<svg xmlns="http://www.w3.org/2000/svg"  viewBox="0 0 17 16" fill="none">
  <g clip-path="url(#clip0_26050_65)">
    <path d="M8.23145 0C3.81348 0 0.231445 3.58332 0.231445 8C0.231445 12.4193 3.81348 16 8.23145 16C12.6494 16 16.2314 12.4193 16.2314 8C16.2314 3.58332 12.6494 0 8.23145 0ZM8.23145 14.4516C4.6659 14.4516 1.77983 11.5667 1.77983 8C1.77983 4.43565 4.66603 1.54839 8.23145 1.54839C11.7957 1.54839 14.6831 4.43455 14.6831 8C14.6831 11.5655 11.7982 14.4516 8.23145 14.4516ZM11.6909 6.21935C11.6909 8.38232 9.35477 8.41561 9.35477 9.21494V9.41935C9.35477 9.63313 9.18145 9.80645 8.96767 9.80645H7.49519C7.28141 9.80645 7.10809 9.63313 7.10809 9.41935V9.14003C7.10809 7.98697 7.98228 7.52603 8.6429 7.15564C9.20938 6.83806 9.55657 6.62206 9.55657 6.20148C9.55657 5.64516 8.84693 5.2759 8.27322 5.2759C7.52519 5.2759 7.17986 5.63 6.69445 6.24265C6.56357 6.40781 6.32477 6.43848 6.15683 6.31116L5.25928 5.63058C5.09454 5.50568 5.05764 5.27361 5.17399 5.10274C5.93615 3.98358 6.90693 3.35484 8.41835 3.35484C10.0013 3.35484 11.6909 4.59045 11.6909 6.21935ZM9.58628 11.6129C9.58628 12.36 8.97851 12.9677 8.23145 12.9677C7.48438 12.9677 6.87661 12.36 6.87661 11.6129C6.87661 10.8658 7.48438 10.2581 8.23145 10.2581C8.97851 10.2581 9.58628 10.8658 9.58628 11.6129Z" fill="#999999"/>
  </g>
  <defs>
    <clipPath id="clip0_26050_65">
      <rect width="16" height="16" fill="white" transform="translate(0.231445)"/>
    </clipPath>
  </defs>
</svg>