<svg viewBox="0 0 906 151" fill="none" xmlns="http://www.w3.org/2000/svg">
<path d="M0 87H906V151H451.742H0V87Z" fill="#220050"/>
<path d="M507.047 114.914C507.776 114.914 508.401 115.076 508.922 115.398C509.443 115.721 509.841 116.174 510.117 116.758C510.393 117.336 510.531 118.013 510.531 118.789V119.594H504.617C504.633 120.599 504.883 121.365 505.367 121.891C505.852 122.417 506.534 122.68 507.414 122.68C507.956 122.68 508.435 122.63 508.852 122.531C509.268 122.432 509.701 122.286 510.148 122.094V123.234C509.716 123.427 509.286 123.568 508.859 123.656C508.438 123.745 507.938 123.789 507.359 123.789C506.536 123.789 505.818 123.622 505.203 123.289C504.594 122.951 504.12 122.456 503.781 121.805C503.443 121.154 503.273 120.357 503.273 119.414C503.273 118.492 503.427 117.695 503.734 117.023C504.047 116.346 504.484 115.826 505.047 115.461C505.615 115.096 506.281 114.914 507.047 114.914ZM507.031 115.977C506.339 115.977 505.786 116.203 505.375 116.656C504.964 117.109 504.719 117.742 504.641 118.555H509.172C509.167 118.044 509.086 117.596 508.93 117.211C508.779 116.82 508.547 116.518 508.234 116.305C507.922 116.086 507.521 115.977 507.031 115.977Z" fill="#DAF0FF"/>
<path d="M498.234 114.914C499.177 114.914 499.888 115.161 500.367 115.656C500.846 116.146 501.086 116.935 501.086 118.023V123.633H499.805V118.086C499.805 117.393 499.654 116.875 499.352 116.531C499.055 116.182 498.612 116.008 498.023 116.008C497.195 116.008 496.594 116.247 496.219 116.727C495.844 117.206 495.656 117.911 495.656 118.844V123.633H494.367V118.086C494.367 117.622 494.299 117.237 494.164 116.93C494.034 116.622 493.836 116.393 493.57 116.242C493.31 116.086 492.979 116.008 492.578 116.008C492.01 116.008 491.555 116.125 491.211 116.359C490.867 116.594 490.617 116.943 490.461 117.406C490.31 117.865 490.234 118.43 490.234 119.102V123.633H488.938V115.07H489.984L490.18 116.281H490.25C490.422 115.984 490.638 115.734 490.898 115.531C491.159 115.328 491.451 115.174 491.773 115.07C492.096 114.966 492.44 114.914 492.805 114.914C493.456 114.914 494 115.036 494.438 115.281C494.88 115.521 495.201 115.888 495.398 116.383H495.469C495.75 115.888 496.135 115.521 496.625 115.281C497.115 115.036 497.651 114.914 498.234 114.914Z" fill="#DAF0FF"/>
<path d="M486.695 119.336C486.695 120.039 486.604 120.667 486.422 121.219C486.24 121.771 485.977 122.237 485.633 122.617C485.289 122.997 484.872 123.289 484.383 123.492C483.898 123.69 483.349 123.789 482.734 123.789C482.161 123.789 481.635 123.69 481.156 123.492C480.682 123.289 480.271 122.997 479.922 122.617C479.578 122.237 479.31 121.771 479.117 121.219C478.93 120.667 478.836 120.039 478.836 119.336C478.836 118.398 478.995 117.602 479.312 116.945C479.63 116.284 480.083 115.781 480.672 115.438C481.266 115.089 481.971 114.914 482.789 114.914C483.57 114.914 484.253 115.089 484.836 115.438C485.424 115.786 485.88 116.292 486.203 116.953C486.531 117.609 486.695 118.404 486.695 119.336ZM480.18 119.336C480.18 120.023 480.271 120.62 480.453 121.125C480.635 121.63 480.917 122.021 481.297 122.297C481.677 122.573 482.167 122.711 482.766 122.711C483.359 122.711 483.846 122.573 484.227 122.297C484.612 122.021 484.896 121.63 485.078 121.125C485.26 120.62 485.352 120.023 485.352 119.336C485.352 118.654 485.26 118.065 485.078 117.57C484.896 117.07 484.615 116.685 484.234 116.414C483.854 116.143 483.362 116.008 482.758 116.008C481.867 116.008 481.214 116.302 480.797 116.891C480.385 117.479 480.18 118.294 480.18 119.336Z" fill="#DAF0FF"/>
<path d="M476.367 123.633H475.039V118.25H469.039V123.633H467.711V112.211H469.039V117.078H475.039V112.211H476.367V123.633Z" fill="#DAF0FF"/>
<path d="M576 113.59H577.391L579.281 118.559C579.391 118.85 579.492 119.132 579.586 119.402C579.68 119.668 579.763 119.923 579.836 120.168C579.909 120.413 579.966 120.65 580.008 120.879H580.062C580.135 120.618 580.24 120.277 580.375 119.855C580.51 119.428 580.656 118.993 580.812 118.551L582.602 113.59H584L580.273 123.41C580.076 123.936 579.844 124.395 579.578 124.785C579.318 125.176 579 125.475 578.625 125.684C578.25 125.897 577.797 126.004 577.266 126.004C577.021 126.004 576.805 125.988 576.617 125.957C576.43 125.931 576.268 125.9 576.133 125.863V124.824C576.247 124.85 576.385 124.874 576.547 124.895C576.714 124.915 576.885 124.926 577.062 124.926C577.385 124.926 577.664 124.863 577.898 124.738C578.138 124.618 578.344 124.441 578.516 124.207C578.688 123.973 578.836 123.694 578.961 123.371L579.43 122.168L576 113.59Z" fill="#BECCE5"/>
<path d="M573.109 122.309C572.339 122.309 571.659 122.15 571.07 121.832C570.482 121.514 570.023 121.03 569.695 120.379C569.367 119.728 569.203 118.908 569.203 117.918C569.203 116.882 569.375 116.035 569.719 115.379C570.068 114.717 570.547 114.228 571.156 113.91C571.766 113.592 572.458 113.434 573.234 113.434C573.661 113.434 574.073 113.478 574.469 113.566C574.87 113.65 575.198 113.757 575.453 113.887L575.062 114.973C574.802 114.868 574.5 114.775 574.156 114.691C573.818 114.608 573.5 114.566 573.203 114.566C572.609 114.566 572.115 114.694 571.719 114.949C571.328 115.204 571.034 115.579 570.836 116.074C570.643 116.569 570.547 117.178 570.547 117.902C570.547 118.595 570.641 119.186 570.828 119.676C571.021 120.165 571.305 120.54 571.68 120.801C572.06 121.056 572.534 121.184 573.102 121.184C573.555 121.184 573.964 121.137 574.328 121.043C574.693 120.944 575.023 120.829 575.32 120.699V121.855C575.034 122.001 574.714 122.113 574.359 122.191C574.01 122.27 573.594 122.309 573.109 122.309Z" fill="#BECCE5"/>
<path d="M566.93 113.59V122.152H565.633V113.59H566.93ZM566.297 110.387C566.51 110.387 566.693 110.457 566.844 110.598C567 110.733 567.078 110.947 567.078 111.238C567.078 111.525 567 111.738 566.844 111.879C566.693 112.02 566.51 112.09 566.297 112.09C566.073 112.09 565.885 112.02 565.734 111.879C565.589 111.738 565.516 111.525 565.516 111.238C565.516 110.947 565.589 110.733 565.734 110.598C565.885 110.457 566.073 110.387 566.297 110.387Z" fill="#BECCE5"/>
<path d="M562.891 122.152H561.586V109.996H562.891V122.152Z" fill="#BECCE5"/>
<path d="M559.344 117.855C559.344 118.559 559.253 119.186 559.07 119.738C558.888 120.29 558.625 120.757 558.281 121.137C557.938 121.517 557.521 121.809 557.031 122.012C556.547 122.21 555.997 122.309 555.383 122.309C554.81 122.309 554.284 122.21 553.805 122.012C553.331 121.809 552.919 121.517 552.57 121.137C552.227 120.757 551.958 120.29 551.766 119.738C551.578 119.186 551.484 118.559 551.484 117.855C551.484 116.918 551.643 116.121 551.961 115.465C552.279 114.803 552.732 114.301 553.32 113.957C553.914 113.608 554.62 113.434 555.438 113.434C556.219 113.434 556.901 113.608 557.484 113.957C558.073 114.306 558.529 114.811 558.852 115.473C559.18 116.129 559.344 116.923 559.344 117.855ZM552.828 117.855C552.828 118.543 552.919 119.139 553.102 119.645C553.284 120.15 553.565 120.54 553.945 120.816C554.326 121.092 554.815 121.23 555.414 121.23C556.008 121.23 556.495 121.092 556.875 120.816C557.26 120.54 557.544 120.15 557.727 119.645C557.909 119.139 558 118.543 558 117.855C558 117.173 557.909 116.585 557.727 116.09C557.544 115.59 557.263 115.204 556.883 114.934C556.503 114.663 556.01 114.527 555.406 114.527C554.516 114.527 553.862 114.822 553.445 115.41C553.034 115.999 552.828 116.814 552.828 117.855Z" fill="#BECCE5"/>
<path d="M545.516 110.73C546.99 110.73 548.065 111.02 548.742 111.598C549.424 112.171 549.766 112.993 549.766 114.066C549.766 114.551 549.685 115.012 549.523 115.449C549.367 115.882 549.112 116.264 548.758 116.598C548.404 116.926 547.938 117.186 547.359 117.379C546.786 117.566 546.083 117.66 545.25 117.66H543.859V122.152H542.531V110.73H545.516ZM545.391 111.863H543.859V116.52H545.102C545.831 116.52 546.438 116.441 546.922 116.285C547.411 116.129 547.779 115.876 548.023 115.527C548.268 115.173 548.391 114.704 548.391 114.121C548.391 113.361 548.148 112.796 547.664 112.426C547.18 112.051 546.422 111.863 545.391 111.863Z" fill="#BECCE5"/>
<g clip-path="url(#clip0_24932_17336)">
<path d="M676 130C682.65 130 688 124.65 688 118C688 111.35 682.65 106 676 106C669.35 106 664 111.35 664 118C664 124.65 669.35 130 676 130Z" fill="#00A6C4"/>
<g clip-path="url(#clip1_24932_17336)">
<path d="M672.703 119.111C673.163 119.111 673.612 118.958 673.974 118.678L671.058 115.762C670.356 116.67 670.524 117.979 671.432 118.681C671.799 118.958 672.243 119.111 672.703 119.111Z" fill="white"/>
<path d="M681.376 117.029C681.376 116.569 681.223 116.12 680.942 115.758L678.026 118.674C678.935 119.377 680.239 119.208 680.942 118.3C681.223 117.937 681.376 117.489 681.376 117.029Z" fill="white"/>
<path d="M682.845 113.855L681.555 115.145C682.594 116.39 682.43 118.244 681.185 119.284C680.093 120.196 678.508 120.196 677.417 119.284L676 120.7L674.587 119.287C673.342 120.326 671.488 120.162 670.449 118.917C669.536 117.826 669.536 116.241 670.449 115.149L669.787 114.487L669.159 113.855C668.4 115.104 668 116.54 668 118.001C668 122.42 671.581 126.001 676 126.001C680.419 126.001 684 122.42 684 118.001C684.004 116.54 683.6 115.104 682.845 113.855Z" fill="white"/>
<path d="M681.787 112.478C678.74 109.282 673.679 109.162 670.482 112.209C670.389 112.299 670.299 112.388 670.213 112.478C670.015 112.687 669.828 112.904 669.652 113.132L676 119.484L682.348 113.132C682.176 112.904 681.985 112.687 681.787 112.478ZM676 111.046C677.869 111.046 679.611 111.768 680.92 113.084L676 118.003L671.08 113.084C672.389 111.768 674.131 111.046 676 111.046Z" fill="white"/>
</g>
</g>
<rect x="704" y="103" width="104" height="32" rx="3" fill="#6CC5FF"/>
<path d="M733.465 112.863C733.966 112.863 734.458 112.92 734.941 113.034C735.429 113.144 735.88 113.301 736.295 113.506L735.721 114.859C735.374 114.695 735.012 114.554 734.634 114.436C734.256 114.317 733.864 114.258 733.458 114.258C732.979 114.258 732.551 114.344 732.173 114.518C731.799 114.691 731.482 114.941 731.223 115.27C730.963 115.593 730.765 115.987 730.628 116.452C730.491 116.912 730.423 117.432 730.423 118.011C730.423 118.785 730.532 119.453 730.751 120.014C730.97 120.57 731.302 120.998 731.749 121.299C732.196 121.595 732.761 121.743 733.444 121.743C733.868 121.743 734.281 121.702 734.682 121.62C735.083 121.538 735.497 121.426 735.926 121.285V122.68C735.52 122.839 735.11 122.955 734.695 123.028C734.281 123.101 733.802 123.138 733.26 123.138C732.239 123.138 731.391 122.926 730.717 122.502C730.047 122.078 729.546 121.481 729.213 120.711C728.885 119.941 728.721 119.038 728.721 118.004C728.721 117.247 728.826 116.555 729.035 115.926C729.245 115.297 729.55 114.755 729.951 114.299C730.352 113.839 730.847 113.485 731.435 113.239C732.027 112.989 732.704 112.863 733.465 112.863ZM741.06 115.289C741.757 115.289 742.372 115.442 742.905 115.747C743.438 116.052 743.855 116.497 744.156 117.08C744.457 117.663 744.607 118.37 744.607 119.199C744.607 119.828 744.525 120.386 744.361 120.874C744.197 121.362 743.958 121.774 743.644 122.111C743.329 122.444 742.951 122.699 742.509 122.877C742.067 123.05 741.568 123.137 741.012 123.137C740.492 123.137 740.016 123.05 739.583 122.877C739.15 122.699 738.774 122.444 738.455 122.111C738.141 121.774 737.897 121.362 737.724 120.874C737.55 120.386 737.464 119.828 737.464 119.199C737.464 118.365 737.607 117.659 737.895 117.08C738.186 116.497 738.601 116.052 739.139 115.747C739.676 115.442 740.317 115.289 741.06 115.289ZM767.269 115.289C767.943 115.289 768.522 115.428 769.005 115.706C769.488 115.984 769.859 116.378 770.119 116.889C770.379 117.399 770.509 118.01 770.509 118.721V119.582H765.457C765.475 120.316 765.671 120.881 766.045 121.277C766.423 121.674 766.952 121.872 767.631 121.872C768.114 121.872 768.547 121.826 768.93 121.735C769.317 121.64 769.716 121.501 770.126 121.318V122.624C769.748 122.802 769.363 122.932 768.971 123.014C768.579 123.096 768.109 123.137 767.562 123.137C766.82 123.137 766.166 122.993 765.601 122.706C765.04 122.414 764.6 121.981 764.281 121.407C763.967 120.833 763.81 120.12 763.81 119.268C763.81 118.42 763.953 117.7 764.24 117.107C764.527 116.515 764.931 116.064 765.45 115.754C765.97 115.444 766.576 115.289 767.269 115.289ZM775.52 115.289C775.971 115.289 776.379 115.335 776.743 115.426C777.112 115.512 777.424 115.619 777.68 115.747L777.201 117.032C776.923 116.918 776.638 116.823 776.347 116.745C776.055 116.668 775.775 116.629 775.506 116.629C775.064 116.629 774.695 116.727 774.398 116.923C774.107 117.119 773.888 117.41 773.742 117.798C773.601 118.185 773.53 118.666 773.53 119.24C773.53 119.796 773.603 120.266 773.749 120.648C773.895 121.027 774.111 121.314 774.398 121.51C774.686 121.701 775.039 121.797 775.458 121.797C775.873 121.797 776.244 121.747 776.572 121.646C776.9 121.546 777.21 121.416 777.502 121.257V122.651C777.215 122.815 776.907 122.936 776.579 123.014C776.251 123.096 775.848 123.137 775.369 123.137C774.654 123.137 774.034 122.998 773.51 122.72C772.986 122.442 772.582 122.016 772.3 121.441C772.017 120.867 771.876 120.138 771.876 119.254C771.876 118.333 772.031 117.581 772.341 116.998C772.651 116.415 773.079 115.984 773.626 115.706C774.177 115.428 774.809 115.289 775.52 115.289ZM781.05 115.432H783.217V116.655H781.05V120.702C781.05 121.085 781.146 121.37 781.337 121.557C781.528 121.743 781.781 121.837 782.096 121.837C782.305 121.837 782.513 121.819 782.718 121.782C782.923 121.741 783.11 121.693 783.278 121.639V122.855C783.101 122.933 782.87 122.999 782.588 123.054C782.305 123.108 782.011 123.136 781.706 123.136C781.278 123.136 780.893 123.065 780.551 122.924C780.209 122.778 779.938 122.53 779.737 122.179C779.537 121.828 779.437 121.342 779.437 120.723V116.655H778.404V115.938L779.512 115.37L780.038 113.75H781.05V115.432ZM750.397 115.289C751.25 115.289 751.913 115.51 752.387 115.952C752.865 116.39 753.104 117.094 753.104 118.064V123H751.498V118.365C751.498 117.777 751.377 117.338 751.136 117.046C750.894 116.75 750.521 116.602 750.015 116.602C749.281 116.602 748.771 116.827 748.483 117.278C748.201 117.729 748.06 118.383 748.06 119.24V123H746.453V115.433H747.704L747.93 116.458H748.019C748.183 116.194 748.385 115.977 748.627 115.809C748.873 115.635 749.146 115.506 749.447 115.419C749.753 115.332 750.069 115.289 750.397 115.289ZM759.298 115.289C760.15 115.289 760.813 115.51 761.287 115.952C761.766 116.39 762.005 117.094 762.005 118.064V123H760.398V118.365C760.398 117.777 760.278 117.338 760.036 117.046C759.795 116.75 759.421 116.602 758.915 116.602C758.181 116.602 757.671 116.827 757.384 117.278C757.101 117.729 756.96 118.383 756.96 119.24V123H755.354V115.433H756.604L756.83 116.458H756.919C757.083 116.194 757.286 115.977 757.527 115.809C757.773 115.635 758.047 115.506 758.348 115.419C758.653 115.332 758.97 115.289 759.298 115.289ZM741.032 116.608C740.367 116.608 739.882 116.832 739.576 117.278C739.271 117.725 739.118 118.365 739.118 119.199C739.118 119.751 739.184 120.222 739.316 120.614C739.453 121.006 739.663 121.307 739.945 121.517C740.228 121.722 740.592 121.824 741.039 121.824C741.486 121.824 741.85 121.722 742.133 121.517C742.415 121.307 742.623 121.006 742.755 120.614C742.887 120.222 742.953 119.751 742.953 119.199C742.953 118.648 742.887 118.181 742.755 117.798C742.623 117.41 742.415 117.117 742.133 116.916C741.85 116.711 741.483 116.608 741.032 116.608ZM767.269 116.499C766.763 116.499 766.353 116.663 766.038 116.991C765.728 117.319 765.546 117.8 765.491 118.434H768.937C768.932 118.055 768.868 117.72 768.745 117.429C768.627 117.137 768.444 116.909 768.198 116.745C767.957 116.581 767.647 116.499 767.269 116.499Z" fill="#220050"/>
<g clip-path="url(#clip2_24932_17336)">
<path d="M832 110C827.582 110 824 113.583 824 118C824 122.419 827.582 126 832 126C836.418 126 840 122.419 840 118C840 113.583 836.418 110 832 110ZM832 124.452C828.434 124.452 825.548 121.567 825.548 118C825.548 114.436 828.435 111.548 832 111.548C835.564 111.548 838.452 114.435 838.452 118C838.452 121.565 835.567 124.452 832 124.452ZM835.459 116.219C835.459 118.382 833.123 118.416 833.123 119.215V119.419C833.123 119.633 832.95 119.806 832.736 119.806H831.264C831.05 119.806 830.877 119.633 830.877 119.419V119.14C830.877 117.987 831.751 117.526 832.411 117.156C832.978 116.838 833.325 116.622 833.325 116.201C833.325 115.645 832.615 115.276 832.042 115.276C831.294 115.276 830.948 115.63 830.463 116.243C830.332 116.408 830.093 116.438 829.925 116.311L829.028 115.631C828.863 115.506 828.826 115.274 828.943 115.103C829.705 113.984 830.675 113.355 832.187 113.355C833.77 113.355 835.459 114.59 835.459 116.219V116.219ZM833.355 121.613C833.355 122.36 832.747 122.968 832 122.968C831.253 122.968 830.645 122.36 830.645 121.613C830.645 120.866 831.253 120.258 832 120.258C832.747 120.258 833.355 120.866 833.355 121.613Z" fill="#BECCE5"/>
</g>
<path d="M865 126C867.468 126 869.721 124.877 871.214 123.038C871.435 122.766 871.194 122.368 870.853 122.433C866.972 123.172 863.407 120.196 863.407 116.278C863.407 114.021 864.615 111.946 866.579 110.828C866.882 110.656 866.806 110.197 866.462 110.134C865.98 110.045 865.49 110 865 110C860.584 110 857 113.578 857 118C857 122.416 860.578 126 865 126Z" fill="#BECCE5"/>
<path d="M0 0H906V64H451.742H0V0Z" fill="white"/>
<path d="M507.047 27.9141C507.776 27.9141 508.401 28.0755 508.922 28.3984C509.443 28.7214 509.841 29.1745 510.117 29.7578C510.393 30.3359 510.531 31.013 510.531 31.7891V32.5938H504.617C504.633 33.599 504.883 34.3646 505.367 34.8906C505.852 35.4167 506.534 35.6797 507.414 35.6797C507.956 35.6797 508.435 35.6302 508.852 35.5312C509.268 35.4323 509.701 35.2865 510.148 35.0938V36.2344C509.716 36.4271 509.286 36.5677 508.859 36.6562C508.438 36.7448 507.938 36.7891 507.359 36.7891C506.536 36.7891 505.818 36.6224 505.203 36.2891C504.594 35.9505 504.12 35.4557 503.781 34.8047C503.443 34.1536 503.273 33.3568 503.273 32.4141C503.273 31.4922 503.427 30.6953 503.734 30.0234C504.047 29.3464 504.484 28.8255 505.047 28.4609C505.615 28.0964 506.281 27.9141 507.047 27.9141ZM507.031 28.9766C506.339 28.9766 505.786 29.2031 505.375 29.6562C504.964 30.1094 504.719 30.7422 504.641 31.5547H509.172C509.167 31.0443 509.086 30.5964 508.93 30.2109C508.779 29.8203 508.547 29.5182 508.234 29.3047C507.922 29.0859 507.521 28.9766 507.031 28.9766Z" fill="#333333"/>
<path d="M498.234 27.9141C499.177 27.9141 499.888 28.1615 500.367 28.6562C500.846 29.1458 501.086 29.9349 501.086 31.0234V36.6328H499.805V31.0859C499.805 30.3932 499.654 29.875 499.352 29.5312C499.055 29.1823 498.612 29.0078 498.023 29.0078C497.195 29.0078 496.594 29.2474 496.219 29.7266C495.844 30.2057 495.656 30.9115 495.656 31.8438V36.6328H494.367V31.0859C494.367 30.6224 494.299 30.237 494.164 29.9297C494.034 29.6224 493.836 29.3932 493.57 29.2422C493.31 29.0859 492.979 29.0078 492.578 29.0078C492.01 29.0078 491.555 29.125 491.211 29.3594C490.867 29.5938 490.617 29.9427 490.461 30.4062C490.31 30.8646 490.234 31.4297 490.234 32.1016V36.6328H488.938V28.0703H489.984L490.18 29.2812H490.25C490.422 28.9844 490.638 28.7344 490.898 28.5312C491.159 28.3281 491.451 28.1745 491.773 28.0703C492.096 27.9661 492.44 27.9141 492.805 27.9141C493.456 27.9141 494 28.0365 494.438 28.2812C494.88 28.5208 495.201 28.888 495.398 29.3828H495.469C495.75 28.888 496.135 28.5208 496.625 28.2812C497.115 28.0365 497.651 27.9141 498.234 27.9141Z" fill="#333333"/>
<path d="M486.695 32.3359C486.695 33.0391 486.604 33.6667 486.422 34.2188C486.24 34.7708 485.977 35.237 485.633 35.6172C485.289 35.9974 484.872 36.2891 484.383 36.4922C483.898 36.6901 483.349 36.7891 482.734 36.7891C482.161 36.7891 481.635 36.6901 481.156 36.4922C480.682 36.2891 480.271 35.9974 479.922 35.6172C479.578 35.237 479.31 34.7708 479.117 34.2188C478.93 33.6667 478.836 33.0391 478.836 32.3359C478.836 31.3984 478.995 30.6016 479.312 29.9453C479.63 29.2839 480.083 28.7812 480.672 28.4375C481.266 28.0885 481.971 27.9141 482.789 27.9141C483.57 27.9141 484.253 28.0885 484.836 28.4375C485.424 28.7865 485.88 29.2917 486.203 29.9531C486.531 30.6094 486.695 31.4036 486.695 32.3359ZM480.18 32.3359C480.18 33.0234 480.271 33.6198 480.453 34.125C480.635 34.6302 480.917 35.0208 481.297 35.2969C481.677 35.5729 482.167 35.7109 482.766 35.7109C483.359 35.7109 483.846 35.5729 484.227 35.2969C484.612 35.0208 484.896 34.6302 485.078 34.125C485.26 33.6198 485.352 33.0234 485.352 32.3359C485.352 31.6536 485.26 31.0651 485.078 30.5703C484.896 30.0703 484.615 29.6849 484.234 29.4141C483.854 29.1432 483.362 29.0078 482.758 29.0078C481.867 29.0078 481.214 29.3021 480.797 29.8906C480.385 30.4792 480.18 31.2943 480.18 32.3359Z" fill="#333333"/>
<path d="M476.367 36.6328H475.039V31.25H469.039V36.6328H467.711V25.2109H469.039V30.0781H475.039V25.2109H476.367V36.6328Z" fill="#333333"/>
<path d="M576 26.5898H577.391L579.281 31.5586C579.391 31.8503 579.492 32.1315 579.586 32.4023C579.68 32.668 579.763 32.9232 579.836 33.168C579.909 33.4128 579.966 33.6497 580.008 33.8789H580.062C580.135 33.6185 580.24 33.2773 580.375 32.8555C580.51 32.4284 580.656 31.9935 580.812 31.5508L582.602 26.5898H584L580.273 36.4102C580.076 36.9362 579.844 37.3945 579.578 37.7852C579.318 38.1758 579 38.4753 578.625 38.6836C578.25 38.8971 577.797 39.0039 577.266 39.0039C577.021 39.0039 576.805 38.9883 576.617 38.957C576.43 38.931 576.268 38.8997 576.133 38.8633V37.8242C576.247 37.8503 576.385 37.8737 576.547 37.8945C576.714 37.9154 576.885 37.9258 577.062 37.9258C577.385 37.9258 577.664 37.8633 577.898 37.7383C578.138 37.6185 578.344 37.4414 578.516 37.207C578.688 36.9727 578.836 36.694 578.961 36.3711L579.43 35.168L576 26.5898Z" fill="#999999"/>
<path d="M573.109 35.3086C572.339 35.3086 571.659 35.1497 571.07 34.832C570.482 34.5143 570.023 34.0299 569.695 33.3789C569.367 32.7279 569.203 31.9076 569.203 30.918C569.203 29.8815 569.375 29.0352 569.719 28.3789C570.068 27.7174 570.547 27.2279 571.156 26.9102C571.766 26.5924 572.458 26.4336 573.234 26.4336C573.661 26.4336 574.073 26.4779 574.469 26.5664C574.87 26.6497 575.198 26.7565 575.453 26.8867L575.062 27.9727C574.802 27.8685 574.5 27.7747 574.156 27.6914C573.818 27.6081 573.5 27.5664 573.203 27.5664C572.609 27.5664 572.115 27.694 571.719 27.9492C571.328 28.2044 571.034 28.5794 570.836 29.0742C570.643 29.569 570.547 30.1784 570.547 30.9023C570.547 31.5951 570.641 32.1862 570.828 32.6758C571.021 33.1654 571.305 33.5404 571.68 33.8008C572.06 34.056 572.534 34.1836 573.102 34.1836C573.555 34.1836 573.964 34.1367 574.328 34.043C574.693 33.944 575.023 33.8294 575.32 33.6992V34.8555C575.034 35.0013 574.714 35.1133 574.359 35.1914C574.01 35.2695 573.594 35.3086 573.109 35.3086Z" fill="#999999"/>
<path d="M566.93 26.5898V35.1523H565.633V26.5898H566.93ZM566.297 23.3867C566.51 23.3867 566.693 23.457 566.844 23.5977C567 23.7331 567.078 23.9466 567.078 24.2383C567.078 24.5247 567 24.7383 566.844 24.8789C566.693 25.0195 566.51 25.0898 566.297 25.0898C566.073 25.0898 565.885 25.0195 565.734 24.8789C565.589 24.7383 565.516 24.5247 565.516 24.2383C565.516 23.9466 565.589 23.7331 565.734 23.5977C565.885 23.457 566.073 23.3867 566.297 23.3867Z" fill="#999999"/>
<path d="M562.891 35.1523H561.586V22.9961H562.891V35.1523Z" fill="#999999"/>
<path d="M559.344 30.8555C559.344 31.5586 559.253 32.1862 559.07 32.7383C558.888 33.2904 558.625 33.7565 558.281 34.1367C557.938 34.5169 557.521 34.8086 557.031 35.0117C556.547 35.2096 555.997 35.3086 555.383 35.3086C554.81 35.3086 554.284 35.2096 553.805 35.0117C553.331 34.8086 552.919 34.5169 552.57 34.1367C552.227 33.7565 551.958 33.2904 551.766 32.7383C551.578 32.1862 551.484 31.5586 551.484 30.8555C551.484 29.918 551.643 29.1211 551.961 28.4648C552.279 27.8034 552.732 27.3008 553.32 26.957C553.914 26.6081 554.62 26.4336 555.438 26.4336C556.219 26.4336 556.901 26.6081 557.484 26.957C558.073 27.306 558.529 27.8112 558.852 28.4727C559.18 29.1289 559.344 29.9232 559.344 30.8555ZM552.828 30.8555C552.828 31.543 552.919 32.1393 553.102 32.6445C553.284 33.1497 553.565 33.5404 553.945 33.8164C554.326 34.0924 554.815 34.2305 555.414 34.2305C556.008 34.2305 556.495 34.0924 556.875 33.8164C557.26 33.5404 557.544 33.1497 557.727 32.6445C557.909 32.1393 558 31.543 558 30.8555C558 30.1732 557.909 29.5846 557.727 29.0898C557.544 28.5898 557.263 28.2044 556.883 27.9336C556.503 27.6628 556.01 27.5273 555.406 27.5273C554.516 27.5273 553.862 27.8216 553.445 28.4102C553.034 28.9987 552.828 29.8138 552.828 30.8555Z" fill="#999999"/>
<path d="M545.516 23.7305C546.99 23.7305 548.065 24.0195 548.742 24.5977C549.424 25.1706 549.766 25.9935 549.766 27.0664C549.766 27.5508 549.685 28.0117 549.523 28.4492C549.367 28.8815 549.112 29.2643 548.758 29.5977C548.404 29.9258 547.938 30.1862 547.359 30.3789C546.786 30.5664 546.083 30.6602 545.25 30.6602H543.859V35.1523H542.531V23.7305H545.516ZM545.391 24.8633H543.859V29.5195H545.102C545.831 29.5195 546.438 29.4414 546.922 29.2852C547.411 29.1289 547.779 28.8763 548.023 28.5273C548.268 28.1732 548.391 27.7044 548.391 27.1211C548.391 26.3607 548.148 25.7956 547.664 25.4258C547.18 25.0508 546.422 24.8633 545.391 24.8633Z" fill="#999999"/>
<g clip-path="url(#clip3_24932_17336)">
<path d="M676 43C682.65 43 688 37.65 688 31C688 24.35 682.65 19 676 19C669.35 19 664 24.35 664 31C664 37.65 669.35 43 676 43Z" fill="#00A6C4"/>
<g clip-path="url(#clip4_24932_17336)">
<path d="M672.703 32.1113C673.163 32.1113 673.612 31.958 673.974 31.6776L671.058 28.7617C670.356 29.6701 670.524 30.9785 671.432 31.6813C671.799 31.958 672.243 32.1113 672.703 32.1113Z" fill="white"/>
<path d="M681.376 30.0288C681.376 29.569 681.223 29.1204 680.942 28.7578L678.026 31.6737C678.935 32.3765 680.239 32.2083 680.942 31.2999C681.223 30.9373 681.376 30.4887 681.376 30.0288Z" fill="white"/>
<path d="M682.845 26.8555L681.555 28.1452C682.594 29.39 682.43 31.2443 681.185 32.2835C680.093 33.1957 678.508 33.1957 677.417 32.2835L676 33.7003L674.587 32.2872C673.342 33.3265 671.488 33.162 670.449 31.9172C669.536 30.8256 669.536 29.2405 670.449 28.1489L669.787 27.4872L669.159 26.8555C668.4 28.1041 668 29.5396 668 31.0013C668 35.42 671.581 39.0013 676 39.0013C680.419 39.0013 684 35.42 684 31.0013C684.004 29.5396 683.6 28.1041 682.845 26.8555Z" fill="white"/>
<path d="M681.787 25.478C678.74 22.2817 673.679 22.1621 670.482 25.2088C670.389 25.2985 670.299 25.3883 670.213 25.478C670.015 25.6873 669.828 25.9041 669.652 26.1322L676 32.4836L682.348 26.1322C682.176 25.9041 681.985 25.6873 681.787 25.478ZM676 24.0462C677.869 24.0462 679.611 24.7677 680.92 26.0836L676 31.0032L671.08 26.0836C672.389 24.7677 674.131 24.0462 676 24.0462Z" fill="white"/>
</g>
</g>
<rect x="704" y="16" width="104" height="32" rx="3" fill="#009AFF"/>
<path d="M733.465 25.8633C733.966 25.8633 734.458 25.9202 734.941 26.0342C735.429 26.1436 735.88 26.3008 736.295 26.5059L735.721 27.8594C735.374 27.6953 735.012 27.554 734.634 27.4355C734.256 27.3171 733.864 27.2578 733.458 27.2578C732.979 27.2578 732.551 27.3444 732.173 27.5176C731.799 27.6908 731.482 27.9414 731.223 28.2695C730.963 28.5931 730.765 28.9873 730.628 29.4521C730.491 29.9124 730.423 30.432 730.423 31.0107C730.423 31.7855 730.532 32.4531 730.751 33.0137C730.97 33.5697 731.302 33.998 731.749 34.2988C732.196 34.5951 732.761 34.7432 733.444 34.7432C733.868 34.7432 734.281 34.7021 734.682 34.6201C735.083 34.5381 735.497 34.4264 735.926 34.2852V35.6797C735.52 35.8392 735.11 35.9554 734.695 36.0283C734.281 36.1012 733.802 36.1377 733.26 36.1377C732.239 36.1377 731.391 35.9258 730.717 35.502C730.047 35.0781 729.546 34.4811 729.213 33.7109C728.885 32.9408 728.721 32.0384 728.721 31.0039C728.721 30.2474 728.826 29.5547 729.035 28.9258C729.245 28.2969 729.55 27.7546 729.951 27.2988C730.352 26.8385 730.847 26.4854 731.435 26.2393C732.027 25.9886 732.704 25.8633 733.465 25.8633ZM741.06 28.2891C741.757 28.2891 742.372 28.4417 742.905 28.7471C743.438 29.0524 743.855 29.4967 744.156 30.0801C744.457 30.6634 744.607 31.3698 744.607 32.1992C744.607 32.8281 744.525 33.3864 744.361 33.874C744.197 34.3617 743.958 34.7741 743.644 35.1113C743.329 35.444 742.951 35.6992 742.509 35.877C742.067 36.0501 741.568 36.1367 741.012 36.1367C740.492 36.1367 740.016 36.0501 739.583 35.877C739.15 35.6992 738.774 35.444 738.455 35.1113C738.141 34.7741 737.897 34.3617 737.724 33.874C737.55 33.3864 737.464 32.8281 737.464 32.1992C737.464 31.3652 737.607 30.6589 737.895 30.0801C738.186 29.4967 738.601 29.0524 739.139 28.7471C739.676 28.4417 740.317 28.2891 741.06 28.2891ZM767.269 28.2891C767.943 28.2891 768.522 28.4281 769.005 28.7061C769.488 28.984 769.859 29.3783 770.119 29.8887C770.379 30.3991 770.509 31.0098 770.509 31.7207V32.582H765.457C765.475 33.3158 765.671 33.8809 766.045 34.2773C766.423 34.6738 766.952 34.8721 767.631 34.8721C768.114 34.8721 768.547 34.8265 768.93 34.7354C769.317 34.6396 769.716 34.5007 770.126 34.3184V35.624C769.748 35.8018 769.363 35.9316 768.971 36.0137C768.579 36.0957 768.109 36.1367 767.562 36.1367C766.82 36.1367 766.166 35.9932 765.601 35.7061C765.04 35.4144 764.6 34.9814 764.281 34.4072C763.967 33.833 763.81 33.1198 763.81 32.2676C763.81 31.4199 763.953 30.6999 764.24 30.1074C764.527 29.515 764.931 29.0638 765.45 28.7539C765.97 28.444 766.576 28.2891 767.269 28.2891ZM775.52 28.2891C775.971 28.2891 776.379 28.3346 776.743 28.4258C777.112 28.5124 777.424 28.6195 777.68 28.7471L777.201 30.0322C776.923 29.9183 776.638 29.8226 776.347 29.7451C776.055 29.6676 775.775 29.6289 775.506 29.6289C775.064 29.6289 774.695 29.7269 774.398 29.9229C774.107 30.1188 773.888 30.4105 773.742 30.7979C773.601 31.1852 773.53 31.666 773.53 32.2402C773.53 32.7962 773.603 33.2656 773.749 33.6484C773.895 34.0267 774.111 34.3138 774.398 34.5098C774.686 34.7012 775.039 34.7969 775.458 34.7969C775.873 34.7969 776.244 34.7467 776.572 34.6465C776.9 34.5462 777.21 34.4163 777.502 34.2568V35.6514C777.215 35.8154 776.907 35.9362 776.579 36.0137C776.251 36.0957 775.848 36.1367 775.369 36.1367C774.654 36.1367 774.034 35.9977 773.51 35.7197C772.986 35.4417 772.582 35.0156 772.3 34.4414C772.017 33.8672 771.876 33.138 771.876 32.2539C771.876 31.3333 772.031 30.5814 772.341 29.998C772.651 29.4147 773.079 28.984 773.626 28.7061C774.177 28.4281 774.809 28.2891 775.52 28.2891ZM781.05 28.4316H783.217V29.6553H781.05V33.7021C781.05 34.085 781.146 34.3698 781.337 34.5566C781.528 34.7435 781.781 34.8369 782.096 34.8369C782.305 34.8369 782.513 34.8187 782.718 34.7822C782.923 34.7412 783.11 34.6934 783.278 34.6387V35.8555C783.101 35.9329 782.87 35.999 782.588 36.0537C782.305 36.1084 782.011 36.1357 781.706 36.1357C781.278 36.1357 780.893 36.0651 780.551 35.9238C780.209 35.778 779.938 35.5296 779.737 35.1787C779.537 34.8278 779.437 34.3424 779.437 33.7227V29.6553H778.404V28.9375L779.512 28.3701L780.038 26.75H781.05V28.4316ZM750.397 28.2891C751.25 28.2891 751.913 28.5101 752.387 28.9521C752.865 29.3896 753.104 30.0938 753.104 31.0645V36H751.498V31.3652C751.498 30.7773 751.377 30.3376 751.136 30.0459C750.894 29.7497 750.521 29.6016 750.015 29.6016C749.281 29.6016 748.771 29.8271 748.483 30.2783C748.201 30.7295 748.06 31.3835 748.06 32.2402V36H746.453V28.4326H747.704L747.93 29.458H748.019C748.183 29.1937 748.385 28.9772 748.627 28.8086C748.873 28.6354 749.146 28.5055 749.447 28.4189C749.753 28.3324 750.069 28.2891 750.397 28.2891ZM759.298 28.2891C760.15 28.2891 760.813 28.5101 761.287 28.9521C761.766 29.3896 762.005 30.0938 762.005 31.0645V36H760.398V31.3652C760.398 30.7773 760.278 30.3376 760.036 30.0459C759.795 29.7497 759.421 29.6016 758.915 29.6016C758.181 29.6016 757.671 29.8271 757.384 30.2783C757.101 30.7295 756.96 31.3835 756.96 32.2402V36H755.354V28.4326H756.604L756.83 29.458H756.919C757.083 29.1937 757.286 28.9772 757.527 28.8086C757.773 28.6354 758.047 28.5055 758.348 28.4189C758.653 28.3324 758.97 28.2891 759.298 28.2891ZM741.032 29.6084C740.367 29.6084 739.882 29.8317 739.576 30.2783C739.271 30.7249 739.118 31.3652 739.118 32.1992C739.118 32.7507 739.184 33.2223 739.316 33.6143C739.453 34.0062 739.663 34.307 739.945 34.5166C740.228 34.7217 740.592 34.8242 741.039 34.8242C741.486 34.8242 741.85 34.7217 742.133 34.5166C742.415 34.307 742.623 34.0062 742.755 33.6143C742.887 33.2223 742.953 32.7507 742.953 32.1992C742.953 31.6478 742.887 31.1807 742.755 30.7979C742.623 30.4105 742.415 30.1165 742.133 29.916C741.85 29.7109 741.483 29.6084 741.032 29.6084ZM767.269 29.499C766.763 29.499 766.353 29.6631 766.038 29.9912C765.728 30.3193 765.546 30.8001 765.491 31.4336H768.937C768.932 31.0553 768.868 30.7204 768.745 30.4287C768.627 30.137 768.444 29.9092 768.198 29.7451C767.957 29.5811 767.647 29.499 767.269 29.499Z" fill="white"/>
<g clip-path="url(#clip5_24932_17336)">
<path d="M832 23C827.582 23 824 26.5833 824 31C824 35.4193 827.582 39 832 39C836.418 39 840 35.4193 840 31C840 26.5833 836.418 23 832 23ZM832 37.4516C828.434 37.4516 825.548 34.5667 825.548 31C825.548 27.4356 828.435 24.5484 832 24.5484C835.564 24.5484 838.452 27.4345 838.452 31C838.452 34.5655 835.567 37.4516 832 37.4516ZM835.459 29.2194C835.459 31.3823 833.123 31.4156 833.123 32.2149V32.4194C833.123 32.6331 832.95 32.8065 832.736 32.8065H831.264C831.05 32.8065 830.877 32.6331 830.877 32.4194V32.14C830.877 30.987 831.751 30.526 832.411 30.1556C832.978 29.8381 833.325 29.6221 833.325 29.2015C833.325 28.6452 832.615 28.2759 832.042 28.2759C831.294 28.2759 830.948 28.63 830.463 29.2426C830.332 29.4078 830.093 29.4385 829.925 29.3112L829.028 28.6306C828.863 28.5057 828.826 28.2736 828.943 28.1027C829.705 26.9836 830.675 26.3548 832.187 26.3548C833.77 26.3548 835.459 27.5905 835.459 29.2194V29.2194ZM833.355 34.6129C833.355 35.36 832.747 35.9677 832 35.9677C831.253 35.9677 830.645 35.36 830.645 34.6129C830.645 33.8658 831.253 33.2581 832 33.2581C832.747 33.2581 833.355 33.8658 833.355 34.6129Z" fill="#999999"/>
</g>
<path d="M865 39C867.468 39 869.721 37.8773 871.214 36.0378C871.435 35.7656 871.194 35.3681 870.853 35.4331C866.972 36.1723 863.407 33.1963 863.407 29.2783C863.407 27.0213 864.615 24.9459 866.579 23.8284C866.882 23.6562 866.806 23.1973 866.462 23.1338C865.98 23.0448 865.49 23.0001 865 23C860.584 23 857 26.5785 857 31C857 35.4159 860.578 39 865 39Z" fill="#999999"/>
<defs>
<clipPath id="clip0_24932_17336">
<rect width="24" height="24" fill="white" transform="translate(664 106)"/>
</clipPath>
<clipPath id="clip1_24932_17336">
<rect width="16" height="16" fill="white" transform="translate(668 110)"/>
</clipPath>
<clipPath id="clip2_24932_17336">
<rect width="16" height="16" fill="white" transform="translate(824 110)"/>
</clipPath>
<clipPath id="clip3_24932_17336">
<rect width="24" height="24" fill="white" transform="translate(664 19)"/>
</clipPath>
<clipPath id="clip4_24932_17336">
<rect width="16" height="16" fill="white" transform="translate(668 23)"/>
</clipPath>
<clipPath id="clip5_24932_17336">
<rect width="16" height="16" fill="white" transform="translate(824 23)"/>
</clipPath>
</defs>
</svg>
