<svg xmlns="http://www.w3.org/2000/svg" width="16" height="16" viewBox="0 0 16 16" fill="none">
  <g clip-path="url(#clip0_25497_17497)">
    <path d="M6.51375 1.32077L7.30652 0.536619C7.6422 0.204591 8.18499 0.204591 8.5171 0.536619L15.4592 7.39971C15.7949 7.73174 15.7949 8.26864 15.4592 8.59713L8.5171 15.4638C8.18142 15.7958 7.63862 15.7958 7.30652 15.4638L6.51375 14.6796C6.1745 14.344 6.18164 13.7966 6.52803 13.4681L10.8311 9.41307L0.567985 9.41307C0.0930377 9.41307 -0.289063 9.03513 -0.289063 8.56534L-0.289063 7.43503C-0.289063 6.96525 0.0930377 6.5873 0.567985 6.5873L10.8311 6.5873L6.52803 2.53232C6.17807 2.20382 6.17093 1.65633 6.51375 1.32077Z" fill="#4872FF"/>
  </g>
  <defs>
    <clipPath id="clip0_25497_17497">
      <rect width="16" height="16" fill="white"/>
    </clipPath>
  </defs>
</svg>