<svg xmlns="http://www.w3.org/2000/svg" viewBox="0 0 15 14" fill="none">
  <g clip-path="url(#clip0_26089_252)">
    <path d="M12.9761 6.22868L13.6415 6.89628C13.9233 7.17895 13.9233 7.63604 13.6415 7.91571L7.81758 13.7617C7.53582 14.0444 7.08022 14.0444 6.80146 13.7617L0.974501 7.91571C0.692745 7.63304 0.692745 7.17595 0.974501 6.89628L1.63993 6.22868C1.92468 5.943 2.38928 5.94902 2.66804 6.24071L6.10906 9.86437L6.10906 1.22172C6.10906 0.821769 6.42978 0.5 6.82844 0.5L7.78761 0.5C8.18626 0.5 8.50698 0.821769 8.50698 1.22172L8.50698 9.86437L11.948 6.24071C12.2268 5.94601 12.6914 5.93999 12.9761 6.22868Z" fill="white"/>
  </g>
  <defs>
    <clipPath id="clip0_26089_252">
      <rect width="13.4737" height="13.4737" fill="white" transform="translate(0.763184 0.5)"/>
    </clipPath>
  </defs>
</svg>