<svg xmlns="http://www.w3.org/2000/svg" width="100" height="16" viewBox="0 0 100 16" fill="none">
  <path fill-rule="evenodd" clip-rule="evenodd" d="M51.6972 0.498334L42.7118 0.097168L37.4737 6.63976L41.1774 15.4099L50.2123 15.9804L55.3472 8.59098L51.6972 0.498334ZM42.7963 7.60825L49.3108 4.76245L48.3644 11.9206L42.7963 7.60825ZM43.3512 1.08953L48.5563 3.33129L42.2592 5.80989L43.3512 1.08953ZM41.5831 8.95955L47.2366 13.0056L41.7208 14.4455L41.5831 8.95955ZM50.5873 4.65734L54.4429 8.56298L49.5638 12.1872L50.5873 4.65734ZM43.7914 15.1336L48.5599 13.8755L49.4026 15.4948L43.7914 15.1336ZM49.5128 13.4642L53.6897 10.354L50.3441 15.0881L49.5128 13.4642ZM50.8976 3.29732L51.716 1.62931L53.9183 6.3662L50.8976 3.29732ZM45.3928 0.616298L50.692 0.83111L49.7666 2.52941L45.3928 0.616298ZM38.2324 6.29689L41.9444 1.60085L40.7161 6.82382L38.2324 6.29689ZM38.0695 7.20984L40.566 7.73769L40.6651 13.3536L38.0695 7.20984ZM14.7884 11.3332H14.0319V4.24202H14.7884V11.3332ZM11.6712 11.3332H12.4277V6.33838H11.6712V11.3332ZM11.735 4.60661C11.65 4.6856 11.6074 4.81169 11.6074 4.98486C11.6074 5.155 11.65 5.28261 11.735 5.36768C11.8201 5.44971 11.9264 5.49072 12.054 5.49072C12.1756 5.49072 12.2804 5.44971 12.3685 5.36768C12.4566 5.28261 12.5006 5.155 12.5006 4.98486C12.5006 4.81472 12.4566 4.68864 12.3685 4.60661C12.2804 4.52458 12.1756 4.48356 12.054 4.48356C11.9264 4.48356 11.8201 4.52458 11.735 4.60661ZM0 4.67041H1.88216C2.76628 4.67041 3.40582 4.80257 3.80078 5.0669C4.19575 5.33122 4.39323 5.74897 4.39323 6.32015C4.39323 6.71512 4.28233 7.04172 4.06055 7.29997C3.8418 7.55518 3.52127 7.72076 3.09896 7.79671V7.84229C4.11068 8.01546 4.61654 8.54715 4.61654 9.43734C4.61654 10.0328 4.4145 10.4977 4.01042 10.8319C3.60937 11.1661 3.04731 11.3332 2.32422 11.3332H0V4.67041ZM0.77474 7.52328H2.05078C2.59766 7.52328 2.9911 7.43821 3.23112 7.26807C3.47114 7.09489 3.59115 6.80474 3.59115 6.39762C3.59115 6.02393 3.45746 5.75505 3.1901 5.59098C2.92274 5.42388 2.4974 5.34033 1.91406 5.34033H0.77474V7.52328ZM0.77474 8.17953V10.6724H2.16471C2.70247 10.6724 3.10655 10.5691 3.37695 10.3625C3.65039 10.1528 3.78711 9.82623 3.78711 9.38265C3.78711 8.96945 3.64735 8.66564 3.36784 8.47119C3.09136 8.27675 2.66905 8.17953 2.10091 8.17953H0.77474ZM6.64909 6.33838V9.57861C6.64909 9.98573 6.74175 10.2896 6.92708 10.4901C7.11241 10.6906 7.40256 10.7909 7.79752 10.7909C8.32009 10.7909 8.70139 10.6481 8.94141 10.3625C9.18446 10.0769 9.30599 9.61051 9.30599 8.96338V6.33838H10.0625V11.3332H9.43815L9.32877 10.6632H9.28776C9.13281 10.9093 8.9171 11.0977 8.64062 11.2284C8.36719 11.359 8.05425 11.4243 7.70182 11.4243C7.09418 11.4243 6.63845 11.28 6.33463 10.9914C6.03385 10.7027 5.88346 10.2409 5.88346 9.60596V6.33838H6.64909ZM18.3932 10.7726C18.2687 10.7909 18.1395 10.8 18.0059 10.8C17.7567 10.8 17.5608 10.7195 17.418 10.5584C17.2752 10.3974 17.2038 10.1665 17.2038 9.86572V6.92627H18.653V6.33838H17.2038V5.18083H16.7663L16.4473 6.24723L15.7318 6.56169V6.92627H16.4473V9.89762C16.4473 10.9154 16.9303 11.4243 17.8965 11.4243C18.0241 11.4243 18.1669 11.4106 18.3249 11.3833C18.4859 11.359 18.6074 11.3271 18.6895 11.2876V10.7088C18.6165 10.7301 18.5178 10.7514 18.3932 10.7726ZM24.4408 6.25635C25.097 6.25635 25.6059 6.48117 25.9674 6.93083C26.332 7.37744 26.5143 8.01091 26.5143 8.83122C26.5143 9.65153 26.3305 10.2896 25.9629 10.7453C25.5983 11.198 25.0909 11.4243 24.4408 11.4243C24.1157 11.4243 23.8179 11.3651 23.5475 11.2466C23.2802 11.1251 23.0553 10.9397 22.873 10.6906H22.8184L22.6589 11.3332H22.1165V4.24202H22.873V5.96468C22.873 6.35053 22.8609 6.69689 22.8366 7.00374H22.873C23.2255 6.50548 23.748 6.25635 24.4408 6.25635ZM24.3314 6.88981C23.8149 6.88981 23.4427 7.03868 23.2148 7.33643C22.987 7.63113 22.873 8.1294 22.873 8.83122C22.873 9.53304 22.99 10.0359 23.224 10.3397C23.4579 10.6405 23.8331 10.7909 24.3496 10.7909C24.8144 10.7909 25.1608 10.6222 25.3887 10.285C25.6165 9.94472 25.7305 9.45709 25.7305 8.8221C25.7305 8.17193 25.6165 7.68734 25.3887 7.36833C25.1608 7.04932 24.8084 6.88981 24.3314 6.88981ZM27.8587 6.33838H27.0475L29.0618 11.3605L28.7838 12.0715C28.5621 12.6548 28.1914 12.9465 27.6719 12.9465C27.4653 12.9465 27.2784 12.9282 27.1113 12.8918V13.4979C27.3361 13.5495 27.564 13.5754 27.7949 13.5754C28.2081 13.5754 28.556 13.4569 28.8385 13.2199C29.1241 12.9859 29.3733 12.5879 29.5859 12.0259L31.7324 6.33838H30.9212C30.2224 8.27067 29.8092 9.42518 29.6816 9.80192C29.5571 10.1756 29.475 10.4399 29.4355 10.5949H29.3991C29.3414 10.3063 29.1925 9.83686 28.9525 9.18669L27.8587 6.33838ZM60.3307 7.57749H60.0351V4.91988H59.2351V11.1582H60.0351V8.23616H60.3073L62.8226 11.3115L63.434 10.7997L61.0128 7.8662L63.0751 5.24347L62.4678 4.76611L60.3307 7.57749ZM67.2808 4.92008H66.4854V11.1579H70.5375V10.44H67.2808V4.92008ZM73.4838 4.92008H77.3596V5.64163H74.2843V7.50839H76.8244V8.22443H74.2852V10.44H77.3605V11.1579H73.4838V4.92008ZM82.6521 4.92008H80.5407L80.5632 11.1574H81.3518V8.4879H82.5076L84.0847 11.3112L84.7732 10.8931L83.2475 8.36856C83.6142 8.24504 83.933 8.00987 84.1593 7.696C84.3856 7.38213 84.5079 7.00532 84.5093 6.61839C84.5093 5.41305 83.689 4.92008 82.6521 4.92008ZM83.6776 6.61976C83.6776 7.32525 83.1768 7.77094 82.3882 7.77094H81.3417V5.64209H82.6306C82.6885 5.63436 82.7471 5.63236 82.8055 5.63613C83.0515 5.65102 83.2816 5.76299 83.4451 5.94743C83.6086 6.13188 83.6922 6.3737 83.6776 6.61976ZM91.7226 8.04671C91.7226 8.54748 91.6872 11.2638 89.5194 11.2638C88.5142 11.2638 87.3116 10.5464 87.3116 8.04671C87.3116 5.54699 88.4944 4.81396 89.5194 4.81396C90.5443 4.81396 91.7226 5.53138 91.7226 8.04671ZM88.1465 8.04671C88.1465 8.95323 88.3122 10.5106 89.5184 10.5106C90.7247 10.5106 90.8867 8.9335 90.8867 8.04671C90.8867 7.15992 90.7215 5.5681 89.5184 5.5681C88.3154 5.5681 88.1268 7.12641 88.1268 8.04671H88.1465ZM96.7101 10.5135C95.8743 10.5135 95.5075 9.9475 95.3496 9.18235L94.6423 9.41552C94.8314 10.5268 95.5686 11.2685 96.7161 11.2685C97.8636 11.2685 98.6898 10.5984 98.6898 9.41552C98.7007 9.11512 98.6256 8.81784 98.4733 8.55868C98.321 8.29952 98.0978 8.08927 97.8301 7.95269L96.5095 7.3693C96.0317 7.15265 95.6737 6.96125 95.6737 6.39943C95.6737 5.83761 96.1754 5.57323 96.6872 5.57323C97.3651 5.57323 97.6882 6.00698 97.8301 6.61424L98.5948 6.38933C98.3428 5.40936 97.7355 4.81266 96.6986 4.81266C95.7205 4.81266 94.8732 5.39972 94.8732 6.45267C94.8732 7.50593 95.5668 7.79777 96.3655 8.1338L96.3655 8.13383C96.4558 8.17179 96.5473 8.21032 96.6394 8.25058C96.6559 8.25741 96.6723 8.26419 96.6888 8.27094C96.7245 8.28554 96.7602 8.29998 96.7959 8.3144C97.3523 8.53925 97.8925 8.75758 97.8925 9.4605C97.8925 10.1554 97.3646 10.5135 96.7101 10.5135Z" fill="#4872FF"/>
</svg>