<svg xmlns="http://www.w3.org/2000/svg" viewBox="0 0 16 17" fill="none">
  <path fill-rule="evenodd" clip-rule="evenodd" d="M7.25003 5.75C7.10721 5.75 6.9712 5.81108 6.87632 5.91782L2.87632 10.4178C2.69286 10.6242 2.71145 10.9402 2.91784 11.1237C3.12424 11.3072 3.44027 11.2886 3.62373 11.0822L7.47456 6.75L11.75 6.75C11.8826 6.75 12.0098 6.69732 12.1036 6.60356L15.6036 3.10355C15.7988 2.90829 15.7988 2.59171 15.6036 2.39645C15.4083 2.20118 15.0917 2.20118 14.8965 2.39645L11.5429 5.75L7.25003 5.75ZM1.5 13H15.5C15.7762 13 16 13.2238 16 13.5V14C16 14.2763 15.7762 14.5 15.5 14.5H1C0.447812 14.5 0 14.0522 0 13.5V3.00001C0 2.72376 0.22375 2.50001 0.5 2.50001H1C1.27625 2.50001 1.5 2.72376 1.5 3.00001V13Z" fill="#1D6AAA"/>
</svg>