<svg xmlns="http://www.w3.org/2000/svg" viewBox="0 0 128 128" fill="none">
  <g clip-path="url(#clip0_25134_37843)">
    <path fill-rule="evenodd" clip-rule="evenodd" d="M0 64C0 28.6571 28.6571 0 64 0C99.3429 0 128 28.6571 128 64C128 99.3429 99.3429 128 64 128C28.6571 128 0 99.3429 0 64ZM10.8571 64C10.8571 93.3429 34.6571 117.143 64 117.143C93.3429 117.143 117.143 93.3429 117.143 64C117.143 34.6571 93.3429 10.8571 64 10.8571C34.6571 10.8571 10.8571 34.6571 10.8571 64ZM84.0139 41.2812H90.7139C91.6424 41.2812 92.1853 42.3384 91.6282 43.0955L61.5424 84.8098C61.1219 85.3967 60.5676 85.8749 59.9254 86.2048C59.2832 86.5348 58.5716 86.7068 57.8496 86.7068C57.1276 86.7068 56.416 86.5348 55.7738 86.2048C55.1316 85.8749 54.5772 85.3967 54.1567 84.8098L36.3567 60.1241C35.8139 59.367 36.3567 58.3098 37.2853 58.3098H43.9853C45.4567 58.3098 46.8281 59.0241 47.6853 60.2098L57.8567 74.3241L80.3139 43.1812C81.171 41.9812 82.5567 41.2812 84.0139 41.2812Z" fill="#00C42B"/>
  </g>
  <defs>
    <clipPath id="clip0_25134_37843">
      <rect width="128" height="128" fill="white"/>
    </clipPath>
  </defs>
</svg>