<svg xmlns="http://www.w3.org/2000/svg"  viewBox="0 0 14 14" fill="none">
  <g clip-path="url(#clip0_24805_9572)">
    <path fill-rule="evenodd" clip-rule="evenodd" d="M0 7C0 3.13438 3.13438 0 7 0C10.8656 0 14 3.13438 14 7C14 10.8656 10.8656 14 7 14C3.13438 14 0 10.8656 0 7ZM1.1875 7C1.1875 10.2094 3.79063 12.8125 7 12.8125C10.2094 12.8125 12.8125 10.2094 12.8125 7C12.8125 3.79063 10.2094 1.1875 7 1.1875C3.79063 1.1875 1.1875 3.79063 1.1875 7ZM9.18902 4.51514H9.92183C10.0234 4.51514 10.0828 4.63076 10.0218 4.71357L6.7312 9.27607C6.68521 9.34027 6.62458 9.39257 6.55434 9.42866C6.4841 9.46474 6.40627 9.48356 6.3273 9.48356C6.24833 9.48356 6.1705 9.46474 6.10026 9.42866C6.03001 9.39257 5.96938 9.34027 5.92339 9.27607L3.97652 6.57607C3.91714 6.49326 3.97652 6.37764 4.07808 6.37764H4.81089C4.97183 6.37764 5.12183 6.45576 5.21558 6.58545L6.32808 8.1292L8.78433 4.72295C8.87808 4.5917 9.02964 4.51514 9.18902 4.51514Z" fill="white"/>
  </g>
  <defs>
    <clipPath id="clip0_24805_9572">
      <rect width="14" height="14" fill="white"/>
    </clipPath>
  </defs>
</svg>