<svg xmlns="http://www.w3.org/2000/svg"  viewBox="0 0 16 17" fill="none">
  <g clip-path="url(#clip0_25930_26140)">
    <path fill-rule="evenodd" clip-rule="evenodd" d="M5 1.5H7V2.57084C3.60703 3.05585 1 5.9726 1 9.5C1 13.3669 4.13306 16.5 8 16.5C11.8669 16.5 15 13.3669 15 9.5C15 8.03386 14.5496 6.67321 13.7796 5.54883L14.4142 4.91421L13 3.5L12.4249 4.07507C11.463 3.2896 10.2881 2.75497 9 2.57084V1.5H11V0.5H9H7H5V1.5ZM2.35484 9.5C2.35484 12.619 4.88105 15.1452 8 15.1452C11.119 15.1452 13.6452 12.619 13.6452 9.5C13.6452 6.38105 11.119 3.85484 8 3.85484C4.88105 3.85484 2.35484 6.38105 2.35484 9.5ZM7.34798 10.4569L9.74435 12.1984C9.89677 12.3085 10.1085 12.2746 10.2185 12.125L10.7492 11.394C10.8593 11.2415 10.8282 11.0298 10.6758 10.9198L8.79032 9.54798V5.54839C8.79032 5.3621 8.6379 5.20968 8.45161 5.20968H7.54839C7.3621 5.20968 7.20968 5.3621 7.20968 5.54839V10.1831C7.20968 10.2903 7.26048 10.3919 7.34798 10.4569Z" fill="#1D6AAA"/>
  </g>
  <defs>
    <clipPath id="clip0_25930_26140">
      <rect width="16" height="16" fill="white" transform="translate(0 0.5)"/>
    </clipPath>
  </defs>
</svg>