<svg xmlns="http://www.w3.org/2000/svg"  viewBox="0 0 25 24" fill="none">
  <g clip-path="url(#clip0_26089_147)">
    <path d="M12.4692 24C19.0967 24 24.4692 18.6274 24.4692 12C24.4692 5.37258 19.0967 0 12.4692 0C5.84182 0 0.469238 5.37258 0.469238 12C0.469238 18.6274 5.84182 24 12.4692 24Z" fill="#FABB36"/>
    <path d="M19.5853 10.0201H18.1613C17.3773 7.84405 15.2693 6.35205 12.4893 6.35205H7.91735V10.0201H6.32935V11.3361H7.91735V12.7161H6.32935V14.0321H7.91735V17.656H12.4893C15.2373 17.656 17.3293 16.1761 18.1333 14.0321H19.5853V12.7161H18.4533C18.4813 12.4841 18.4973 12.2441 18.4973 12.0041V11.9721C18.4973 11.7561 18.4853 11.5441 18.4653 11.3361H19.5893V10.0201H19.5853ZM9.19735 7.52405H12.4893C14.5293 7.52405 16.0453 8.52805 16.7453 10.0161H9.19735V7.52405ZM12.4893 16.472H9.19735V14.0281H16.7373C16.0333 15.4921 14.5213 16.472 12.4893 16.472ZM17.1733 12.0321C17.1733 12.2641 17.1573 12.4921 17.1253 12.712H9.19735V11.332H17.1293C17.1573 11.548 17.1733 11.7721 17.1733 12.0001V12.0321Z" fill="white"/>
  </g>
  <defs>
    <clipPath id="clip0_26089_147">
      <rect width="24" height="24" fill="white" transform="translate(0.469238)"/>
    </clipPath>
  </defs>
</svg>