<svg viewBox="0 0 15 25" fill="none" xmlns="http://www.w3.org/2000/svg">
<path d="M6.67625 4.96018C5.7205 4.96018 4.97714 5.16372 4.44617 5.5708C3.93289 5.96018 3.67625 6.62389 3.67625 7.56194C3.67625 7.98672 3.76475 8.34956 3.94174 8.65044C4.11873 8.95133 4.33997 9.20796 4.60546 9.42035C4.88864 9.63274 5.20723 9.80973 5.56121 9.95133C5.93289 10.0752 6.30457 10.1814 6.67625 10.2699V4.96018ZM3.27802 16.2168C3.26032 17.385 3.51696 18.3053 4.04794 18.9779C4.57891 19.6504 5.45501 20.0044 6.67625 20.0398V13.615C5.95059 13.4204 5.22493 13.1903 4.49926 12.9248C3.7913 12.6416 3.14528 12.2876 2.56121 11.8628C1.99484 11.4204 1.53466 10.8717 1.18068 10.2168C0.826696 9.56195 0.649705 8.74779 0.649705 7.77434C0.649705 6.92478 0.808997 6.18142 1.12758 5.54425C1.46386 4.88938 1.90634 4.34956 2.45501 3.92478C3.02139 3.4823 3.6674 3.14602 4.39307 2.91593C5.11873 2.68584 5.87979 2.5708 6.67625 2.5708V0.5H7.81785V2.5708C8.61431 2.5708 9.36652 2.67699 10.0745 2.88938C10.7824 3.10177 11.3931 3.42035 11.9063 3.84513C12.4373 4.26991 12.8532 4.80973 13.1541 5.4646C13.4727 6.11947 13.632 6.88053 13.632 7.74779H10.6055C10.5701 6.84513 10.3311 6.15487 9.88864 5.67699C9.46386 5.19911 8.7736 4.96018 7.81785 4.96018V10.5619C8.61431 10.7743 9.39307 11.0221 10.1541 11.3053C10.9152 11.5885 11.5878 11.9513 12.1718 12.3938C12.7559 12.8363 13.2249 13.385 13.5789 14.0398C13.9329 14.6947 14.1099 15.5 14.1099 16.4558C14.1099 17.4469 13.9417 18.3142 13.6055 19.0575C13.2869 19.7832 12.8444 20.3938 12.278 20.8894C11.7117 21.3673 11.0479 21.7301 10.2869 21.9779C9.52581 22.2434 8.7028 22.3938 7.81785 22.4292V24.5H6.67625V22.4292C5.7205 22.4115 4.8444 22.2611 4.04794 21.9779C3.25147 21.6947 2.57006 21.2965 2.00369 20.7832C1.43732 20.2522 0.994838 19.6062 0.676254 18.8451C0.375369 18.0841 0.233776 17.208 0.251475 16.2168H3.27802ZM7.81785 20.0398C8.7736 19.969 9.55236 19.6947 10.1541 19.2168C10.7736 18.7212 11.0833 17.9425 11.0833 16.8805C11.0833 16.385 10.986 15.969 10.7913 15.6327C10.6143 15.2965 10.3665 15.0133 10.0479 14.7832C9.74705 14.5531 9.40192 14.3673 9.01254 14.2257C8.62316 14.0841 8.22493 13.9602 7.81785 13.854V20.0398Z" fill="#009AFF"/>
</svg>
