<svg xmlns="http://www.w3.org/2000/svg" width="16" height="16" viewBox="0 0 16 16" fill="none">
  <g clip-path="url(#clip0_24832_11193)">
    <path d="M7.86524 11.3864C7.88125 11.4081 7.9017 11.4257 7.92505 11.4378C7.9484 11.4498 7.97403 11.4561 8 11.4561C8.02597 11.4561 8.0516 11.4498 8.07495 11.4378C8.0983 11.4257 8.11875 11.4081 8.13476 11.3864L10.5305 8.16591C10.6182 8.04773 10.539 7.87273 10.3957 7.87273H8.8107V0.181818C8.8107 0.0818182 8.73369 0 8.63957 0H7.35615C7.26203 0 7.18503 0.0818182 7.18503 0.181818V7.87045H5.60428C5.46096 7.87045 5.38182 8.04545 5.46952 8.16364L7.86524 11.3864ZM15.8289 10.5909H14.5455C14.4513 10.5909 14.3743 10.6727 14.3743 10.7727V14.2727H1.62567V10.7727C1.62567 10.6727 1.54866 10.5909 1.45455 10.5909H0.171123C0.0770053 10.5909 0 10.6727 0 10.7727V15.2727C0 15.675 0.305882 16 0.684492 16H15.3155C15.6941 16 16 15.675 16 15.2727V10.7727C16 10.6727 15.923 10.5909 15.8289 10.5909Z" fill="#009AFF"/>
  </g>
  <defs>
    <clipPath id="clip0_24832_11193">
      <rect width="16" height="16" fill="white"/>
    </clipPath>
  </defs>
</svg>