<svg xmlns="http://www.w3.org/2000/svg"  viewBox="0 0 16 17" fill="none">
  <g clip-path="url(#clip0_24418_6846)">
    <path fill-rule="evenodd" clip-rule="evenodd" d="M3 1.5L13 1.5C14.1046 1.5 15 2.39543 15 3.5L15 13.5C15 14.6046 14.1046 15.5 13 15.5L3 15.5C1.89543 15.5 1 14.6046 1 13.5L1 3.5C1 2.39543 1.89543 1.5 3 1.5ZM0 3.5C0 1.84315 1.34315 0.5 3 0.5L13 0.5C14.6569 0.5 16 1.84315 16 3.5L16 13.5C16 15.1569 14.6569 16.5 13 16.5H3C1.34315 16.5 0 15.1569 0 13.5L0 3.5ZM3.89939 4.53053L3.89473 5.38308C3.8908 5.74984 4.19072 6.04197 4.5576 6.03037L9.07721 5.89623L3.52744 11.4449C3.27061 11.7017 3.26836 12.1126 3.5224 12.3666L4.13361 12.9776C4.38764 13.2316 4.79864 13.2294 5.05547 12.9726L10.6052 7.42395L10.4711 11.9427C10.4614 12.3075 10.7536 12.6074 11.1185 12.6054L11.9712 12.6007C12.3303 12.6007 12.6239 12.3072 12.6258 11.9462L12.6666 4.48072C12.6705 4.12164 12.3802 3.83137 12.0191 3.83334L4.55401 3.87605C4.19488 3.87609 3.90136 4.16955 3.89939 4.53053Z" fill="#009AFF"/>
  </g>
  <defs>
    <clipPath id="clip0_24418_6846">
      <rect width="16" height="16" fill="white" transform="translate(0 0.5)"/>
    </clipPath>
  </defs>
</svg>