<svg xmlns="http://www.w3.org/2000/svg" width="32" height="29" viewBox="0 0 32 29" fill="none">
  <path d="M16 8.1001C15.4112 8.10942 14.8267 8.20413 14.2644 8.38135C14.5245 8.84446 14.663 9.36736 14.6666 9.9001C14.6666 10.3138 14.5862 10.7234 14.4298 11.1056C14.2735 11.4877 14.0443 11.835 13.7554 12.1275C13.4665 12.42 13.1236 12.652 12.7461 12.8103C12.3686 12.9686 11.9641 13.0501 11.5555 13.0501C11.0294 13.0464 10.5129 12.9062 10.0555 12.6428C9.69465 13.91 9.73671 15.2601 10.1757 16.5017C10.6148 17.7434 11.4285 18.8137 12.5017 19.5611C13.5749 20.3084 14.8532 20.695 16.1554 20.6659C17.4576 20.6369 18.7178 20.1937 19.7575 19.3992C20.7971 18.6047 21.5635 17.4991 21.9481 16.2391C22.3327 14.9791 22.316 13.6285 21.9004 12.3786C21.4847 11.1287 20.6912 10.043 19.6322 9.27508C18.5733 8.50719 17.3025 8.09612 16 8.1001ZM31.8066 13.5788C28.7939 7.62704 22.8294 3.6001 16 3.6001C9.17053 3.6001 3.20441 7.62985 0.193303 13.5794C0.0662151 13.8339 0 14.1152 0 14.4004C0 14.6856 0.0662151 14.9668 0.193303 15.2213C3.20608 21.1732 9.17053 25.2001 16 25.2001C22.8294 25.2001 28.7955 21.1703 31.8066 15.2208C31.9337 14.9662 31.9999 14.685 31.9999 14.3998C31.9999 14.1146 31.9337 13.8334 31.8066 13.5788ZM16 22.5001C10.5194 22.5001 5.49497 19.4063 2.78164 14.4001C5.49497 9.39385 10.5189 6.3001 16 6.3001C21.4811 6.3001 26.505 9.39385 29.2183 14.4001C26.5055 19.4063 21.4811 22.5001 16 22.5001Z" fill="#4872FF"/>
</svg>