<svg viewBox="0 0 934 866" fill="none" xmlns="http://www.w3.org/2000/svg">
<g clip-path="url(#clip0_25045_7065)">
<path d="M706.727 298.098V418.695L652.34 448.845L706.727 478.994V599.591L604.219 659.889L487.485 591.818V671.949L383.046 732.247L278.607 671.949V551.352L344.936 515.173L278.607 478.994V358.397L332.876 328.248L278.607 298.098V177.502L383.046 117.203L706.727 298.098ZM598.189 316.188L624.017 329.096L372.023 474.142L367.183 476.921V609.424L315.929 639.503C311.334 642.2 309.794 648.122 312.49 652.717C315.187 657.31 321.109 658.852 325.704 656.156L381.715 623.274L386.485 620.483V488.074L634.369 345.407V370.457L706.727 298.098L598.189 316.188Z" fill="#8DA8FF"/>
<path d="M604.219 539.291L706.727 478.992V599.589L604.219 659.888L489.652 593.559V671.947L381.115 732.246L278.607 671.947V551.35L367.183 603.452V609.423L315.929 639.501C311.334 642.198 309.794 648.12 312.49 652.715C315.187 657.309 321.109 658.85 325.704 656.154L381.715 623.273L386.485 620.482V608.716L447.443 575.47L386.485 540.633V488.072L448.138 452.576L604.219 539.291ZM428.459 441.647L372.023 474.14L367.183 476.919V529.598L278.607 478.992V358.395L428.459 441.647ZM706.727 418.694L598.189 478.992L499.404 423.075L634.369 345.405V370.455L706.727 298.097V418.694ZM585.541 351.235L479.901 412.04L278.607 298.097V177.5L585.541 351.235Z" fill="#4872FF"/>
<path d="M405.766 457.748L397.275 462.205V448.461H405.766V457.748ZM397.504 416.449L403.617 419.919L405.766 421.139V437.352H397.275V426.073L393.312 423.826L389.621 421.732L393.813 414.354L397.504 416.449ZM366.939 399.099L379.164 406.039L382.855 408.134L378.663 415.511L374.972 413.417L362.747 406.477L359.055 404.382L363.247 397.005L366.939 399.099ZM345.484 369.865L323.976 380.046V400.408L280.957 359.684L345.484 369.865ZM336.373 381.753L348.598 388.689L352.29 390.787L348.097 398.165L344.406 396.067L332.181 389.13L328.49 387.032L332.682 379.655L336.373 381.753Z" fill="#E8EEFF"/>
<path d="M555.099 375.289H546.184V360.924H555.099V375.289ZM552.888 326.862L555.099 328.155V345.079H546.184V333.274L536.904 327.863L541.396 320.162L552.888 326.862ZM510.86 302.346L529.991 313.507L525.499 321.207L502.515 307.804L507.007 300.104L510.86 302.346ZM495.607 293.448L491.115 301.149L487.262 298.907L468.131 287.746L472.623 280.045L495.607 293.448ZM461.218 273.39L456.726 281.09L452.874 278.848L433.742 267.687L438.235 259.987L461.218 273.39ZM407.698 242.17L426.83 253.331L422.338 261.032L399.354 247.629L403.846 239.928L407.698 242.17ZM373.31 222.111L392.441 233.273L387.949 240.973L364.965 227.57L369.458 219.87L373.31 222.111ZM358.057 213.214L353.565 220.914L349.712 218.673L330.581 207.512L335.073 199.811L358.057 213.214ZM347.592 187.449L325.379 197.97V219.012L280.957 179.156L347.592 187.449Z" fill="#E8EEFF"/>
<path d="M634.365 370.452V345.402L386.481 488.069V620.478L381.712 623.27L325.7 656.151C321.105 658.848 315.183 657.307 312.486 652.712C309.79 648.117 311.33 642.195 315.925 639.498L367.179 609.42V476.916L372.019 474.137L624.013 329.091L598.186 316.183L706.723 298.094L634.365 370.452Z" fill="white"/>
</g>
<path d="M306.532 75.1306L700.337 90.6185L704.508 90.7839L706.192 94.6015L865.485 455.96L867 459.395L864.854 462.472L639.191 786.957L637.041 790.052L633.28 789.812L237.263 764.739L233.14 764.478L231.53 760.678L68.5497 376.457L67 372.805L69.4638 369.693L301.029 77.6597L303.141 75L306.532 75.1306ZM85.8484 370.546L207.497 399.053C211.092 399.896 213.322 403.49 212.481 407.085C211.639 410.68 208.041 412.916 204.445 412.073L86.4535 384.427L242.225 751.65L625.466 775.913L577.749 692.066C575.922 688.857 577.043 684.773 580.252 682.946C583.461 681.12 587.544 682.241 589.371 685.449L636.227 767.786L851.73 457.915L699.484 112.54L653.647 200.692C651.943 203.968 647.904 205.243 644.628 203.539C641.352 201.835 640.078 197.796 641.781 194.52L689.081 103.556L309.396 88.6248L85.8484 370.546Z" fill="#C6D3FF"/>
<defs>
<clipPath id="clip0_25045_7065">
<rect width="615.045" height="615.045" fill="white" transform="translate(185.322 117.203)"/>
</clipPath>
</defs>
</svg>
