<svg xmlns="http://www.w3.org/2000/svg" viewBox="0 0 585.49 508.25"><defs><style>.a{fill:#0e0060;}</style></defs><title>Clement-logo</title><path class="a" d="M201.9,240.76c-1.11-1.35-2.16-2.78-3.33-4-7.11-7.36-18.07-9.88-26.38-6.11-5.55,2.51-9,10.35-6.9,15.74a62.2,62.2,0,0,1,4-4.93,15.39,15.39,0,0,1,5.33-3.76c0,.77.08,1.29.08,1.81,0,5.16,2.71,8.13,7.77,8.57,4.62.4,7.6-2.1,8.25-7.27.25-2,1-1.73,2.31-1.11a33.64,33.64,0,0,0,7.78,2.8c.61.15,1.33.41,1.74-.32S202.27,241.16,201.9,240.76Zm0,0c-1.11-1.35-2.16-2.78-3.33-4-7.11-7.36-18.07-9.88-26.38-6.11-5.55,2.51-9,10.35-6.9,15.74a62.2,62.2,0,0,1,4-4.93,15.39,15.39,0,0,1,5.33-3.76c0,.77.08,1.29.08,1.81,0,5.16,2.71,8.13,7.77,8.57,4.62.4,7.6-2.1,8.25-7.27.25-2,1-1.73,2.31-1.11a33.64,33.64,0,0,0,7.78,2.8c.61.15,1.33.41,1.74-.32S202.27,241.16,201.9,240.76Zm0,0c-1.11-1.35-2.16-2.78-3.33-4-7.11-7.36-18.07-9.88-26.38-6.11-5.55,2.51-9,10.35-6.9,15.74a62.2,62.2,0,0,1,4-4.93,15.39,15.39,0,0,1,5.33-3.76c0,.77.08,1.29.08,1.81,0,5.16,2.71,8.13,7.77,8.57,4.62.4,7.6-2.1,8.25-7.27.25-2,1-1.73,2.31-1.11a33.64,33.64,0,0,0,7.78,2.8c.61.15,1.33.41,1.74-.32S202.27,241.16,201.9,240.76ZM298,232.28a18.7,18.7,0,0,0-5.26-5.66c-10.05-6.1-20.5-7.08-31.11-1.69-4.29,2.22-6.21,6.19-6.88,10.81-.13.87-.43,2.09.57,2.51s1.33-.8,1.93-1.31a38.69,38.69,0,0,1,10.32-6.41c-.71,6.05,2.57,10.43,7.73,10.82,6.25.46,9.93-3.21,10.23-10.38.63.2,1.24.34,1.82.56a32.94,32.94,0,0,0,9.6,2.5,2.31,2.31,0,0,0,1.54-.31c.43-.48-.16-1-.46-1.44Zm0,0a18.7,18.7,0,0,0-5.26-5.66c-10.05-6.1-20.5-7.08-31.11-1.69-4.29,2.22-6.21,6.19-6.88,10.81-.13.87-.43,2.09.57,2.51s1.33-.8,1.93-1.31a38.69,38.69,0,0,1,10.32-6.41c-.71,6.05,2.57,10.43,7.73,10.82,6.25.46,9.93-3.21,10.23-10.38.63.2,1.24.34,1.82.56a32.94,32.94,0,0,0,9.6,2.5,2.31,2.31,0,0,0,1.54-.31c.43-.48-.16-1-.46-1.44Zm-96.06,8.48c-1.11-1.35-2.16-2.78-3.33-4-7.11-7.36-18.07-9.88-26.38-6.11-5.55,2.51-9,10.35-6.9,15.74a62.2,62.2,0,0,1,4-4.93,15.39,15.39,0,0,1,5.33-3.76c0,.77.08,1.29.08,1.81,0,5.16,2.71,8.13,7.77,8.57,4.62.4,7.6-2.1,8.25-7.27.25-2,1-1.73,2.31-1.11a33.64,33.64,0,0,0,7.78,2.8c.61.15,1.33.41,1.74-.32S202.27,241.16,201.9,240.76Zm0,0c-1.11-1.35-2.16-2.78-3.33-4-7.11-7.36-18.07-9.88-26.38-6.11-5.55,2.51-9,10.35-6.9,15.74a62.2,62.2,0,0,1,4-4.93,15.39,15.39,0,0,1,5.33-3.76c0,.77.08,1.29.08,1.81,0,5.16,2.71,8.13,7.77,8.57,4.62.4,7.6-2.1,8.25-7.27.25-2,1-1.73,2.31-1.11a33.64,33.64,0,0,0,7.78,2.8c.61.15,1.33.41,1.74-.32S202.27,241.16,201.9,240.76ZM298,232.28a18.7,18.7,0,0,0-5.26-5.66c-10.05-6.1-20.5-7.08-31.11-1.69-4.29,2.22-6.21,6.19-6.88,10.81-.13.87-.43,2.09.57,2.51s1.33-.8,1.93-1.31a38.69,38.69,0,0,1,10.32-6.41c-.71,6.05,2.57,10.43,7.73,10.82,6.25.46,9.93-3.21,10.23-10.38.63.2,1.24.34,1.82.56a32.94,32.94,0,0,0,9.6,2.5,2.31,2.31,0,0,0,1.54-.31c.43-.48-.16-1-.46-1.44Zm0,0a18.7,18.7,0,0,0-5.26-5.66c-10.05-6.1-20.5-7.08-31.11-1.69-4.29,2.22-6.21,6.19-6.88,10.81-.13.87-.43,2.09.57,2.51s1.33-.8,1.93-1.31a38.69,38.69,0,0,1,10.32-6.41c-.71,6.05,2.57,10.43,7.73,10.82,6.25.46,9.93-3.21,10.23-10.38.63.2,1.24.34,1.82.56a32.94,32.94,0,0,0,9.6,2.5,2.31,2.31,0,0,0,1.54-.31c.43-.48-.16-1-.46-1.44Zm-96.06,8.48c-1.11-1.35-2.16-2.78-3.33-4-7.11-7.36-18.07-9.88-26.38-6.11-5.55,2.51-9,10.35-6.9,15.74a62.2,62.2,0,0,1,4-4.93,15.39,15.39,0,0,1,5.33-3.76c0,.77.08,1.29.08,1.81,0,5.16,2.71,8.13,7.77,8.57,4.62.4,7.6-2.1,8.25-7.27.25-2,1-1.73,2.31-1.11a33.64,33.64,0,0,0,7.78,2.8c.61.15,1.33.41,1.74-.32S202.27,241.16,201.9,240.76Zm53.34-2.51c.88.38,1.33-.8,1.93-1.31a38.53,38.53,0,0,1,10.32-6.41c-.71,6.05,2.57,10.43,7.72,10.82,6.26.46,9.94-3.21,10.24-10.38.63.2,1.24.34,1.82.56a32.85,32.85,0,0,0,9.6,2.5,2.28,2.28,0,0,0,1.53-.31c.43-.48-.15-1-.45-1.44a18.7,18.7,0,0,0-5.26-5.66c-10.06-6.1-20.5-7.08-31.11-1.69-4.29,2.22-6.21,6.19-6.88,10.81-.12.87-.42,2.09.54,2.51Zm-52.76,3.92c.33-.61-.26-1-.59-1.41-1.11-1.35-2.17-2.78-3.33-4-7.11-7.36-18.07-9.88-26.38-6.11-5.56,2.51-9,10.35-6.9,15.74,1.32-1.68,2.5-3.43,3.94-4.93a15.42,15.42,0,0,1,5.34-3.76c0,.77.08,1.29.08,1.81,0,5.16,2.71,8.13,7.77,8.57,4.61.4,7.6-2.1,8.25-7.27.25-2,1-1.73,2.31-1.11a33.64,33.64,0,0,0,7.78,2.8c.64.17,1.36.46,1.77-.3Zm-.59-1.41c-1.11-1.35-2.17-2.78-3.33-4-7.11-7.36-18.07-9.88-26.38-6.11-5.56,2.51-9,10.35-6.9,15.74,1.32-1.68,2.5-3.43,3.94-4.93a15.42,15.42,0,0,1,5.34-3.76c0,.77.08,1.29.08,1.81,0,5.16,2.71,8.13,7.77,8.57,4.61.4,7.6-2.1,8.25-7.27.25-2,1-1.73,2.31-1.11a33.64,33.64,0,0,0,7.78,2.8c.61.15,1.33.41,1.74-.32s-.22-1-.59-1.39ZM298,232.28a18.7,18.7,0,0,0-5.26-5.66c-10.06-6.1-20.5-7.08-31.11-1.69-4.29,2.22-6.21,6.19-6.88,10.81-.13.87-.43,2.09.57,2.51s1.33-.8,1.93-1.31a38.69,38.69,0,0,1,10.32-6.41c-.71,6.05,2.57,10.43,7.73,10.82,6.25.46,9.93-3.21,10.23-10.38.63.2,1.24.34,1.82.56a32.94,32.94,0,0,0,9.6,2.5,2.27,2.27,0,0,0,1.53-.31c.45-.48-.14-1-.44-1.44Zm0,0a18.7,18.7,0,0,0-5.26-5.66c-10.06-6.1-20.5-7.08-31.11-1.69-4.29,2.22-6.21,6.19-6.88,10.81-.13.87-.43,2.09.57,2.51s1.33-.8,1.93-1.31a38.69,38.69,0,0,1,10.32-6.41c-.71,6.05,2.57,10.43,7.73,10.82,6.25.46,9.93-3.21,10.23-10.38.63.2,1.24.34,1.82.56a32.94,32.94,0,0,0,9.6,2.5,2.27,2.27,0,0,0,1.53-.31c.45-.48-.14-1-.44-1.44Zm-96,8.48c-1.11-1.35-2.16-2.78-3.33-4-7.11-7.36-18.07-9.88-26.38-6.11-5.55,2.51-9,10.35-6.9,15.74a62.2,62.2,0,0,1,4-4.93,15.39,15.39,0,0,1,5.33-3.76c0,.77.08,1.29.08,1.81,0,5.16,2.71,8.13,7.77,8.57,4.62.4,7.6-2.1,8.25-7.27.25-2,1-1.73,2.31-1.11a33.64,33.64,0,0,0,7.78,2.8c.61.15,1.33.41,1.74-.32S202.27,241.16,201.9,240.76Zm0,0c-1.11-1.35-2.16-2.78-3.33-4-7.11-7.36-18.07-9.88-26.38-6.11-5.55,2.51-9,10.35-6.9,15.74a62.2,62.2,0,0,1,4-4.93,15.39,15.39,0,0,1,5.33-3.76c0,.77.08,1.29.08,1.81,0,5.16,2.71,8.13,7.77,8.57,4.62.4,7.6-2.1,8.25-7.27.25-2,1-1.73,2.31-1.11a33.64,33.64,0,0,0,7.78,2.8c.61.15,1.33.41,1.74-.32S202.27,241.16,201.9,240.76ZM298,232.28a18.7,18.7,0,0,0-5.26-5.66c-10.05-6.1-20.5-7.08-31.11-1.69-4.29,2.22-6.21,6.19-6.88,10.81-.13.87-.43,2.09.57,2.51s1.33-.8,1.93-1.31a38.69,38.69,0,0,1,10.32-6.41c-.71,6.05,2.57,10.43,7.73,10.82,6.25.46,9.93-3.21,10.23-10.38.63.2,1.24.34,1.82.56a32.94,32.94,0,0,0,9.6,2.5,2.31,2.31,0,0,0,1.54-.31c.43-.48-.16-1-.46-1.44Zm0,0a18.7,18.7,0,0,0-5.26-5.66c-10.05-6.1-20.5-7.08-31.11-1.69-4.29,2.22-6.21,6.19-6.88,10.81-.13.87-.43,2.09.57,2.51s1.33-.8,1.93-1.31a38.69,38.69,0,0,1,10.32-6.41c-.71,6.05,2.57,10.43,7.73,10.82,6.25.46,9.93-3.21,10.23-10.38.63.2,1.24.34,1.82.56a32.94,32.94,0,0,0,9.6,2.5,2.31,2.31,0,0,0,1.54-.31c.43-.48-.16-1-.46-1.44Zm-96.06,8.48c-1.11-1.35-2.16-2.78-3.33-4-7.11-7.36-18.07-9.88-26.38-6.11-5.55,2.51-9,10.35-6.9,15.74a62.2,62.2,0,0,1,4-4.93,15.39,15.39,0,0,1,5.33-3.76c0,.77.08,1.29.08,1.81,0,5.16,2.71,8.13,7.77,8.57,4.62.4,7.6-2.1,8.25-7.27.25-2,1-1.73,2.31-1.11a33.64,33.64,0,0,0,7.78,2.8c.61.15,1.33.41,1.74-.32S202.27,241.16,201.9,240.76Zm0,0c-1.11-1.35-2.16-2.78-3.33-4-7.11-7.36-18.07-9.88-26.38-6.11-5.55,2.51-9,10.35-6.9,15.74a62.2,62.2,0,0,1,4-4.93,15.39,15.39,0,0,1,5.33-3.76c0,.77.08,1.29.08,1.81,0,5.16,2.71,8.13,7.77,8.57,4.62.4,7.6-2.1,8.25-7.27.25-2,1-1.73,2.31-1.11a33.64,33.64,0,0,0,7.78,2.8c.61.15,1.33.41,1.74-.32S202.27,241.16,201.9,240.76Zm0,0c-1.11-1.35-2.16-2.78-3.33-4-7.11-7.36-18.07-9.88-26.38-6.11-5.55,2.51-9,10.35-6.9,15.74a62.2,62.2,0,0,1,4-4.93,15.39,15.39,0,0,1,5.33-3.76c0,.77.08,1.29.08,1.81,0,5.16,2.71,8.13,7.77,8.57,4.62.4,7.6-2.1,8.25-7.27.25-2,1-1.73,2.31-1.11a33.64,33.64,0,0,0,7.78,2.8c.61.15,1.33.41,1.74-.32S202.27,241.16,201.9,240.76Z"/><path class="a" d="M108.91,258.5l0,0V418.53l.28.63.27.62q0-79.36.06-158.77C109.49,260.17,109.91,259.15,108.91,258.5Zm16.89,214a1.28,1.28,0,0,0,.5.89s0,0,0,0A2.7,2.7,0,0,1,125.8,472.51Zm.28-194h0v0A.06.06,0,0,0,126.08,278.53Zm-.2.53a3.61,3.61,0,0,1,.17-.46v-.14A4.11,4.11,0,0,0,125.88,279.06ZM186.08,5.84c-2,.18-3.93,1-6,.44h0a3.25,3.25,0,0,0,2.38.37,34.22,34.22,0,0,1,11,0,8.88,8.88,0,0,0,5.41-.4C194.57,7.12,190.39,5.45,186.08,5.84ZM455.3,59.48,456,61c.26-.4.5-.79.76-1.18s.38-1,.68-1.41Z"/><path class="a" d="M581.09,274c-4.45-8.75-8.73-17.55-13-26.38-7.34-15-14.51-30.17-22-45.18-9.89-20-19.2-40.25-28.51-60.51-6.08-13.19-12.05-26.43-18.23-39.57-7.32-15.56-14.83-31.11-22.23-46.59Q470.57,42.07,464,28.29c-.55-1.12-1.11-2.08-2.55-2.22C447.82,25,434.19,23.68,420.53,23c-9.14-.49-18.24-1.43-27.38-1.86-11.25-.49-22.36-1.44-33.47-2.21-7.78-.55-15.56-.93-23.25-1.69-9.82-1-19.68-1.23-29.49-2.47-5.85-.74-11.8-.87-17.69-1.18-15.9-.79-31.7-2.5-47.56-3.52-5.72-.37-11.41-1.11-17.12-1.62C216,7.66,207.45,7,198.91,6.25h-.06a8.88,8.88,0,0,1-5.41.4,34.22,34.22,0,0,0-11,0,3.25,3.25,0,0,1-2.38-.37,5.62,5.62,0,0,0-2.28,1.93c-6.19,7.78-12.44,15.4-18.56,23.18C144.92,49.6,130.8,67.86,116.46,86Q94.34,114.18,72,142.21q-15,19-30,38.17Q23.41,204,4.74,227.66a3.14,3.14,0,0,0-.59,3.76c2.22,4.67,4.17,9.47,6.23,14.22,7.08,16.18,14.35,32.29,21.46,48.46,8.12,18.44,16.11,37,24.23,55.41,5.75,13,11.65,26,17.41,39Q83,410,92.37,431.48q10.89,24.91,21.7,49.89c2.16,5,6,7.4,11.2,7.7q14.22.82,28.5,1.51c13.77.63,27.54,1.16,41.3,1.79,15.25.69,30.49,1.56,45.73,2.13,15,.58,29.94,1.11,44.89,2.1,12.22.78,24.58.78,36.85,1.42,4.35.24,8.7.35,13,.58,15.61.81,31.19,1.75,46.81,2.5,8.88.44,17.78.79,26.66,1.18,6.54.28,13.12,1,19.69.13a14.19,14.19,0,0,0,9.56-5c3.28-3.94,5.7-8.43,8.49-12.68,16.3-24.94,32.47-50,48.72-74.92q17.56-27,35.2-53.92Q546.92,331,563.08,306.1c6-9.24,11.94-18.51,18-27.79A3.84,3.84,0,0,0,581.09,274ZM455.3,59.48l2.18-1.07a1,1,0,0,1,.8-.39l-.8.39c-.3.4-.41,1-.68,1.41s-.5.78-.76,1.18l74.33,152.32c-.77-.74-1.52-1.48-2.25-2.24-17.69-18.54-36.48-36-54.34-54.32q-17-17.41-34.18-34.51c-3.33-3.34-6.77-6.57-10.22-9.77-1.4-1.31-1.51-2.39-.49-4.08Q442.09,86.56,454.2,64c.57-1,1.2-2,1.84-3ZM269.82,28.16c10.3,1.11,20.61,1.81,30.93,2.65,10.95.91,21.87,2.08,32.83,3.05,7.35.67,14.74,1.11,22.1,1.79,9.29.8,18.57,1.68,27.86,2.52,5.42.47,10.85,1.1,16.29,1.31,10.44.45,20.83,1.52,31.23,2.23,1.73.12,2.32.58,1.48,2.42C424.61,60.94,417.08,78,408,94.19a5.68,5.68,0,0,0-.6,1.24c-.5,2.13-1.56,2.31-3.42,1.35l-19.85-10c-19.64-9.73-39.24-19.51-58.88-29.14-19.28-9.41-38.66-18.63-58-27.95-.7-.35-1.61-.48-2-1.62A44.08,44.08,0,0,1,269.82,28.16ZM176.15,93.38c1.61-6.09,3.09-12.22,4.81-18.23,3.33-11.57,6.19-23.23,9.12-34.88.61-2.42,1.5-4.79,1.93-7.23.37-2.22,1.35-2.22,3-1.5,7.33,3.05,14.69,6,22,9.11,12.37,5.15,24.81,10.29,37,15.61C261.59,59.45,269,62.87,277,66.49a68.52,68.52,0,0,1-11,3.32,5.43,5.43,0,0,1-3.66-.85c-4.39-2.17-8.67-4.63-13.72-4.94a24.56,24.56,0,0,0-21,8.7c-1.95,2.22-3.79,3.19-6.67,1.66-1.35-.72-3-.79-4.52-1.3-6.11-2-11.35-.28-15.85,3.89-3.78,3.53-7.26,7.37-11,11-3.34,3.33-7.71,5-11.9,7C176,95.82,175.75,94.94,176.15,93.38ZM165.1,53.51l0,0,0,0ZM176,166.79c11.63-21.44,28-37.54,51.53-45.47,7.13-2.42,14.64-3.16,22.07-3.74a100.49,100.49,0,0,1,32.23,2.66,26.63,26.63,0,0,1,12.61,6.67,36,36,0,0,0,13.78,8.56C318.67,139,326,145.93,332,155c7.56,11.65,14.91,23.34,19.68,36.53,2.74,7.55,2.22,15.29,2.22,23,0,5.08,1.24,5.94-5.07,3.42h0a15.63,15.63,0,0,1-6.66-4.44c-5-6.34-11.7-10.53-18.56-14.29-9.24-5-18.65-9.77-28.89-12.73-9.12-2.62-18.26-2.35-27.48-.95-3.45.52-6.93,1.11-10.35,1.8-6.89,1.44-12,5.19-14.39,12-1,2.91-.56,3.24,2.49,2.82,16.33-2.22,32.72-3.64,49.19-2,8.66.85,17.23,2.22,25.26,5.87,1,.43,2.16.58,2.79,2.3a76.31,76.31,0,0,0-10.29-1.88c-15.22-1.11-30.41-2.16-45.55.66-9.31,1.73-18.43,3.88-27,8.09-12.89,6.34-25.95,7.47-39.7,2.67a75.23,75.23,0,0,0-35.85-3.19,9.38,9.38,0,0,0-1.51.12,28.59,28.59,0,0,1,11.3-6.06c9.42-3,19.11-3,28.88-2.33.28,0,.54.13.83.13,1.7,0,3.9,1,5-.46s-.14-3.6-1-5.2c-2.64-5.05-7.56-6.67-12.63-7.49-11.11-1.89-20.79,1.41-29.4,8.37-.5.4-.82,1-1.47,1.11A105,105,0,0,1,176,166.79Zm3.72,162.61c.06.43.1.86.21,1.73a27.33,27.33,0,0,1-9.93-11c-4.09-7.58-5.92-15.88-7.21-24.3a121.4,121.4,0,0,1-1.4-19.61c0-2.38.81-2.95,3.07-2.82,9.16.55,18.29.58,27.08-2.7,1.53-.56,3.06-1.11,5.09-1.92-1.4,3-2.62,5.5-3.78,8.05-3.4,7.55-2.74,14.38,3.69,20.12,1.31,1.16,1,1.8-.36,2.64a54.68,54.68,0,0,0-11.1,9.48C179.51,314.87,178.76,321.89,179.76,329.4Zm-12.7-64c-1.36-.28-2.73-.43-4.09-.68-9.51-1.7-14.75-7.78-17.43-16.6a45.21,45.21,0,0,1-2.14-10.56c-.52-10.32,5.91-13.72,13.34-14.78,5.66-.82,11.36-1.33,17.07-1.78a67.91,67.91,0,0,1,27.32,3.33c4.94,1.65,5.45,2.41,5.55,7.56v4.16c.15,7.34-.63,14.44-5.37,20.48a12.27,12.27,0,0,1-3.87,3.51C187.94,265.15,177.91,267.66,167.06,265.42Zm32.62,57.89c12.77.18,25.55-.12,38.29-.63,9.88-.37,19.7-1.49,29.53-2.43,1.75-.16,3.51-.16,5.24-.4s1.82.42,1.36,1.86c-2.22,7-6.85,12.12-12.83,16.17-9.49,6.42-20,9.31-34.45,9.28-8.88-.32-18.78-4.7-26.17-14.33a18.88,18.88,0,0,1-3-7.07C197.15,323.89,197.82,323.28,199.68,323.31Zm72.59-23.19h0c-10.66-3.27-21.42-5.63-32.64-5.56a38.61,38.61,0,0,0-8.49,1.12c-7.33,1.64-14.61,2-21.88-.39a17.71,17.71,0,0,1-6.83-4.14,8,8,0,0,1-2-9.33c3.05-8,6.94-15.72,9.92-23.78a68,68,0,0,0,4.44-27.69c-.16-2.65.73-3.76,3.42-3.57a22.82,22.82,0,0,0,4.45-.14c3.72-.48,3.71-.53,4.58,3.24a95,95,0,0,0,7.08,19.48c4.92,10.36,13.34,16.1,24.2,17.78,15,2.37,29.83.3,44.14-4.82,10.92-3.89,15-12.46,15.3-23.33.11-3.61,0-7.22,0-10.83h.27c0-3.78.06-7.58,0-11.37,0-1.67.33-2,2.07-1.61a135.29,135.29,0,0,1,27,8.88c5.92,2.64,6.23,2.5,5.9,9.13-.82,17.12-2.22,34.14-9.89,49.9-5.66,11.7-12.54,22.49-23.21,30.29-8.21,6-15.46,6.06-23.49.47a11.56,11.56,0,0,1-1.29-1C288.78,306.52,280.88,302.76,272.27,300.12Zm-36.34-73.66a3.7,3.7,0,0,1,2.37-3.62,94.25,94.25,0,0,1,34.44-9.44l14.37-1.12c7.08-.6,14,.6,20.9,1.87a3.2,3.2,0,0,1,2.54,2.62c1.31,4.3,1.29,8.75,1.28,13.18a70.89,70.89,0,0,1-1.22,14.9,13.88,13.88,0,0,1-8.39,10.31c-4.75,2.23-9.87,3-15,3.83-6.93,1.12-13.85,2.31-20.89,2.3a46.56,46.56,0,0,1-16-2.93c-3.08-1.11-6-2.7-7.67-5.65-4.42-8.17-7-16.82-6.75-26.25ZM108.87,426.79a0,0,0,0,0,0,0h0Zm0-8.28L30.06,240.44c7.63,1.62,15.28,3.19,22.93,4.93,13.61,3.13,27.19,6.39,40.78,9.58l15.1,3.56Zm.62-157.5q0,79.38-.06,158.77l-.27-.62-.28-.63V258.46l0,0C109.91,259.15,109.49,260.17,109.49,261Zm13-60.25c-3.33,11.45-6.85,22.86-10.12,34.33-.7,2.41-2.22,2.4-4,2l-29.64-5.83-42.79-8.47L163.48,60.92q-7.06,24-14.15,48-7.65,25.95-15.21,51.92Q128.27,180.79,122.47,200.76Zm3.62,77.73v0h0A.06.06,0,0,1,126.09,278.49Zm0,0s0,0,0,0v0Zm0-.07v.14a3.61,3.61,0,0,0-.17.46A4.11,4.11,0,0,1,126.05,278.46Zm.25,194.94a1.28,1.28,0,0,1-.5-.89,2.7,2.7,0,0,0,.5.87c0-.59-.06-1.18-.08-1.76,0-.29,0-.57,0-.86,0,.19,0,.37,0,.55s0,.2,0,.31c0,.6.08,1.21.12,1.82ZM210,429.77a12.3,12.3,0,0,1-4.83,9.58q-16.66,14.2-33.33,28.45a39,39,0,0,0-4.27,3.95c-2.5,2.82-5.45,3.61-9.18,3.33-7.45-.61-14.95-.88-22.43-1.11-2.12-.07-4.23-.43-6.35-.54V281.23q11.58,11.7,23.06,23.5a5.82,5.82,0,0,0,.79.78c5.7,3.82,7.53,9.77,8.76,16,3.75,18.89,11.43,36.26,21.48,52.6A101.14,101.14,0,0,0,208.26,401,3.91,3.91,0,0,1,210,404.5Zm154.53-7.85c-8,10-15.61,20.2-24.13,29.72-9.15,10.21-19.05,19.66-28.77,29.34a3.49,3.49,0,0,1-3.1.83c-13.39-.61-26.8-1.29-40.19-1.87-12.22-.53-24.44-1-36.6-1.48-2.78-.12-5.56-.48-8.3-.56a4.15,4.15,0,0,1-.54,0h3.92V409.32c11.93,2.7,23.69,1.23,35.34-1.6a141.88,141.88,0,0,0,54.88-26.15,102.36,102.36,0,0,0,28.16-33.66c.32-.62.44-1.4,1.37-1.87.16,6.83.49,13.55.5,20.25,0,15.12,5.12,28.8,11.12,42.22,1.7,3.86,3.26,7.91,6.66,10.76C365.94,420.26,365.23,421.11,364.56,421.92Zm12.15-110.38c-1,8.15-2.09,16.31-3.07,24.44-1.41,11.92-3.21,23.8-4.36,35.77-.64,6.69-1.54,13.37-2.41,20A65.36,65.36,0,0,1,361,362.35l1.4-49.37a25.53,25.53,0,0,0,13.14-2.82C377.17,309.32,376.82,310.62,376.71,311.54ZM377,293c-2.32,3.81-5.38,7.07-9.94,8.42-5.08,1.5-7.52-.78-6.61-6,1.72-9.91,3.24-19.86,4.95-29.77,1-5.73,2.22-11.4,3.34-17.13.24-1.31.8-2,2.22-1.86,3.22.28,4.91-1.63,6-4.36a38.36,38.36,0,0,1,3.26-7c2.38-3.66,6-3.79,8.53-.2,2.38,3.33,2.32,7.3,2.63,11.87C389.75,262.93,385.74,278.71,377,293Zm67.85,156.36q-20.06-11.44-40.25-22.7l113.88-91.37ZM560.89,276q-23.5,17.93-46.77,36.13c-14.18,11.12-28.18,22.48-42.37,33.62-10.75,8.47-21.7,16.67-32.47,25.12-9.83,7.7-19.5,15.56-29.31,23.34-7.41,5.82-14.93,11.51-22.44,17.23a2.45,2.45,0,0,1-2.32.9c12.08-93.13,21.78-186.55,32.65-280.42,2.1,1.83,3.79,3.18,5.34,4.68,4.8,4.62,9.52,9.3,14.3,13.93,5.78,5.56,11.58,11.18,17.35,16.77q9.88,9.56,19.72,19.13c7.77,7.57,15.38,15.23,23.18,22.74,8.9,8.53,17.52,17.29,26.2,26q18.43,18.46,37,36.77C562.67,273.51,563.09,274.27,560.89,276Z"/><path class="a" d="M198.85,6.26a8.88,8.88,0,0,1-5.41.4,34.22,34.22,0,0,0-11,0,3.25,3.25,0,0,1-2.38-.37h0C186.35,4.66,192.59,5.81,198.85,6.26Z"/><path class="a" d="M126.05,278.46v.14a3.61,3.61,0,0,0-.17.46A4.11,4.11,0,0,1,126.05,278.46Z"/><path class="a" d="M126.22,471.62c0-.29,0-.57,0-.86,0,.19,0,.37,0,.55S126.22,471.51,126.22,471.62Z"/><path class="a" d="M126.34,473.44l0,0a1.28,1.28,0,0,1-.5-.89,2.7,2.7,0,0,0,.5.87c0-.59-.06-1.18-.08-1.76C126.25,472.22,126.3,472.83,126.34,473.44Z"/><path class="a" d="M109.23,261.14q0,79-.07,158l-.28-.63V258.46l0,0C109.51,259.31,109.23,260.26,109.23,261.14Z"/><path class="a" d="M298.45,233.72a2.31,2.31,0,0,1-1.54.31,32.94,32.94,0,0,1-9.6-2.5c-.58-.22-1.19-.36-1.82-.56-.3,7.17-4,10.84-10.23,10.38-5.16-.39-8.44-4.77-7.73-10.82a38.69,38.69,0,0,0-10.32,6.41c-.6.51-1,1.69-1.93,1.31s-.7-1.64-.57-2.51c.67-4.62,2.59-8.63,6.88-10.81,10.64-5.39,21.11-4.45,31.11,1.69a18.7,18.7,0,0,1,5.26,5.66C298.29,232.72,298.88,233.24,298.45,233.72Z"/><path class="a" d="M202.52,242.17c-.41.74-1.11.47-1.74.32a33.64,33.64,0,0,1-7.78-2.8c-1.28-.64-2.05-.94-2.31,1.12-.64,5.16-3.63,7.66-8.24,7.26-5.09-.44-7.78-3.41-7.78-8.56a15.8,15.8,0,0,0-.08-1.82,15.48,15.48,0,0,0-5.33,3.76c-1.45,1.5-2.62,3.26-3.95,4.93-2.11-5.39,1.36-13.23,6.9-15.74,8.31-3.77,19.27-1.25,26.38,6.11,1.21,1.26,2.22,2.68,3.33,4C202.27,241.16,202.86,241.56,202.52,242.17Z"/><path class="a" d="M126.09,278.49v0h0A.06.06,0,0,1,126.09,278.49Z"/><path class="a" d="M126.22,471.62c0-.29,0-.57,0-.86,0,.19,0,.37,0,.55S126.22,471.51,126.22,471.62Z"/><path class="a" d="M126.3,473.4s0,0,0,0c0-.59-.06-1.18-.08-1.76,0,.6.08,1.21.12,1.82Z"/><path class="a" d="M109.49,261q0,79.38-.06,158.77l-.27-.62-.28-.63v-160l0,0C109.91,259.15,109.49,260.17,109.49,261Z"/><path class="a" d="M298.45,233.72a2.31,2.31,0,0,1-1.54.31,32.94,32.94,0,0,1-9.6-2.5c-.58-.22-1.19-.36-1.82-.56-.3,7.17-4,10.84-10.23,10.38-5.16-.39-8.44-4.77-7.73-10.82a38.69,38.69,0,0,0-10.32,6.41c-.6.51-1,1.69-1.93,1.31s-.7-1.64-.57-2.51c.67-4.62,2.59-8.63,6.88-10.81,10.64-5.39,21.11-4.45,31.11,1.69a18.7,18.7,0,0,1,5.26,5.66C298.29,232.72,298.88,233.24,298.45,233.72Z"/><path class="a" d="M202.52,242.17c-.41.74-1.11.47-1.74.32a33.64,33.64,0,0,1-7.78-2.8c-1.28-.64-2.05-.94-2.31,1.12-.64,5.16-3.63,7.66-8.24,7.26-5.09-.44-7.78-3.41-7.78-8.56a15.8,15.8,0,0,0-.08-1.82,15.48,15.48,0,0,0-5.33,3.76c-1.45,1.5-2.62,3.26-3.95,4.93-2.11-5.39,1.36-13.23,6.9-15.74,8.31-3.77,19.27-1.25,26.38,6.11,1.21,1.26,2.22,2.68,3.33,4C202.27,241.16,202.86,241.56,202.52,242.17Z"/><path class="a" d="M457.48,58.41c-.3.4-.41,1-.68,1.41s-.5.78-.76,1.18l-.74-1.52Z"/><path class="a" d="M126.05,278.46v.14a3.61,3.61,0,0,0-.17.46A4.11,4.11,0,0,1,126.05,278.46Z"/><path class="a" d="M126.07,278.53s0,0,0,0v0Z"/><path class="a" d="M126.09,278.49v0h0A.06.06,0,0,1,126.09,278.49Z"/><path class="a" d="M126.22,471.62c0-.29,0-.57,0-.86,0,.19,0,.37,0,.55S126.22,471.51,126.22,471.62Z"/><path class="a" d="M126.34,473.44l0,0a1.28,1.28,0,0,1-.5-.89,2.7,2.7,0,0,0,.5.87c0-.59-.06-1.18-.08-1.76C126.25,472.22,126.3,472.83,126.34,473.44Z"/></svg>