<svg width="24" height="24" viewBox="0 0 24 24" fill="none" xmlns="http://www.w3.org/2000/svg">
<g clip-path="url(#clip0_24856_5049)">
<g clip-path="url(#clip1_24856_5049)">
<path d="M12 24C18.6274 24 24 18.6274 24 12C24 5.37258 18.6274 0 12 0C5.37258 0 0 5.37258 0 12C0 18.6274 5.37258 24 12 24Z" fill="#FF6C6F"/>
<path fill-rule="evenodd" clip-rule="evenodd" d="M18.8443 11.1315L12.0128 5.01935L5.12388 11.1315H6.78056V14.1538L6.77778 14.1793V17.3452C6.77778 17.4346 6.8439 17.4762 6.88889 17.4762H7.32323L7.32906 17.4758L7.34882 17.4741L7.42488 17.4677L7.50103 17.4728C7.52328 17.4743 7.53568 17.4752 7.54666 17.4757C7.55223 17.476 7.55561 17.4761 7.5573 17.4762C7.55807 17.4762 7.55849 17.4762 7.5586 17.4762H9.11111C9.1561 17.4762 9.22222 17.4346 9.22222 17.3452V14.8571C9.22222 13.8212 10.0505 12.9524 11.1111 12.9524H12.8889C13.9495 12.9524 14.7778 13.8212 14.7778 14.8571V17.3452C14.7778 17.4346 14.8439 17.4762 14.8889 17.4762H16.4583C16.4793 17.4762 16.4896 17.4762 16.4985 17.476C16.5016 17.4759 16.5035 17.4759 16.5044 17.4759L16.5849 17.47L16.6515 17.4762L16.6667 17.4762H17.1111C17.1561 17.4762 17.2222 17.4346 17.2222 17.3452V16.8356L17.2281 16.7815C17.2339 16.729 17.236 16.6913 17.2361 16.6627C17.2361 16.6622 17.2361 16.6616 17.2361 16.661L17.2124 11.1315H18.8443ZM12.5944 4.19792L19.6889 10.5454C19.9111 10.7433 20.0222 10.9695 19.9944 11.224C19.9944 11.7026 19.6259 12.0837 19.1892 12.1274C19.1616 12.1301 19.1337 12.1315 19.1056 12.1315H18.2167L18.2361 16.661C18.2361 16.7374 18.2306 16.8137 18.2222 16.89V17.3452C18.2222 17.9701 17.725 18.4762 17.1111 18.4762H16.6667C16.6361 18.4762 16.6056 18.4762 16.575 18.4734C16.5361 18.4762 16.4972 18.4762 16.4583 18.4762H14.8889C14.275 18.4762 13.7778 17.9701 13.7778 17.3452V14.8571C13.7778 14.3567 13.3806 13.9524 12.8889 13.9524H11.1111C10.6194 13.9524 10.2222 14.3567 10.2222 14.8571V17.3452C10.2222 17.9701 9.725 18.4762 9.11111 18.4762H7.55833C7.51667 18.4762 7.475 18.4734 7.43333 18.4705C7.4 18.4734 7.36667 18.4762 7.33333 18.4762H6.88889C6.275 18.4762 5.77778 17.9701 5.77778 17.3452V14.1786C5.77778 14.1531 5.77778 14.1249 5.78056 14.0994V12.1315H4.88889C4.38889 12.1315 4 11.7357 4 11.224C4 10.9695 4.08333 10.7433 4.27778 10.5454L11.4 4.22619C11.5944 4.02827 11.8167 4 12.0111 4C12.2056 4 12.4278 4.05655 12.5944 4.19792Z" fill="white"/>
</g>
</g>
<defs>
<clipPath id="clip0_24856_5049">
<rect width="24" height="24" fill="white"/>
</clipPath>
<clipPath id="clip1_24856_5049">
<rect width="24" height="24" fill="white"/>
</clipPath>
</defs>
</svg>
