<svg xmlns="http://www.w3.org/2000/svg" viewBox="0 0 1440 1157" fill="none">
  <path d="M180 1023C279.411 1023 360 1089.88 360 1089.88C359.961 1089.92 279.387 1156.77 180 1156.77C80.6103 1156.77 0.034868 1089.91 0 1089.88C0 1089.88 80.5887 1023 180 1023ZM540 1023C639.411 1023 720 1089.88 720 1089.88C719.961 1089.92 639.387 1156.77 540 1156.77C440.61 1156.77 360.035 1089.91 360 1089.88C360 1089.88 440.589 1023 540 1023ZM900 1023C999.411 1023 1080 1089.88 1080 1089.88C1079.96 1089.92 999.387 1156.77 900 1156.77C800.61 1156.77 720.035 1089.91 720 1089.88C720 1089.88 800.589 1023 900 1023ZM1260 1023C1359.41 1023 1440 1089.88 1440 1089.88C1439.96 1089.92 1359.39 1156.77 1260 1156.77C1160.61 1156.77 1080.03 1089.91 1080 1089.88C1080 1089.88 1160.59 1023 1260 1023ZM179.773 1025.69C144.447 1025.69 115.809 1054.33 115.809 1089.66C115.809 1124.99 144.447 1153.62 179.773 1153.62C215.1 1153.62 243.739 1124.99 243.739 1089.66C243.739 1054.33 215.1 1025.69 179.773 1025.69ZM539.773 1025.69C504.447 1025.69 475.809 1054.33 475.809 1089.66C475.809 1124.99 504.447 1153.62 539.773 1153.62C575.1 1153.62 603.739 1124.99 603.739 1089.66C603.739 1054.33 575.1 1025.69 539.773 1025.69ZM899.773 1025.69C864.447 1025.69 835.809 1054.33 835.809 1089.66C835.809 1124.99 864.447 1153.62 899.773 1153.62C935.1 1153.62 963.739 1124.99 963.739 1089.66C963.739 1054.33 935.1 1025.69 899.773 1025.69ZM1259.77 1025.69C1224.45 1025.69 1195.81 1054.33 1195.81 1089.66C1195.81 1124.99 1224.45 1153.62 1259.77 1153.62C1295.1 1153.62 1323.74 1124.99 1323.74 1089.66C1323.74 1054.33 1295.1 1025.69 1259.77 1025.69ZM360 908C459.411 908 540 974.883 540 974.883C539.961 974.915 459.387 1041.77 360 1041.77C260.61 1041.77 180.035 974.912 180 974.883C180 974.883 260.589 908 360 908ZM720 908C819.411 908 900 974.883 900 974.883C899.961 974.915 819.387 1041.77 720 1041.77C620.61 1041.77 540.035 974.912 540 974.883C540 974.883 620.589 908 720 908ZM1080 908C1179.41 908 1260 974.883 1260 974.883C1259.96 974.915 1179.39 1041.77 1080 1041.77C980.61 1041.77 900.035 974.912 900 974.883C900 974.883 980.589 908 1080 908ZM359.773 910.693C324.447 910.693 295.809 939.331 295.809 974.658C295.809 1009.99 324.447 1038.62 359.773 1038.62C395.1 1038.62 423.739 1009.99 423.739 974.658C423.739 939.331 395.1 910.693 359.773 910.693ZM719.773 910.693C684.447 910.693 655.809 939.331 655.809 974.658C655.809 1009.99 684.447 1038.62 719.773 1038.62C755.1 1038.62 783.739 1009.99 783.739 974.658C783.739 939.331 755.1 910.693 719.773 910.693ZM1079.77 910.693C1044.45 910.693 1015.81 939.331 1015.81 974.658C1015.81 1009.99 1044.45 1038.62 1079.77 1038.62C1115.1 1038.62 1143.74 1009.99 1143.74 974.658C1143.74 939.331 1115.1 910.693 1079.77 910.693ZM180 796C279.411 796 360 862.883 360 862.883C359.961 862.915 279.387 929.766 180 929.766C80.6103 929.766 0.034868 862.912 0 862.883C0 862.883 80.5887 796 180 796ZM540 796C639.411 796 720 862.883 720 862.883C719.961 862.915 639.387 929.766 540 929.766C440.61 929.766 360.035 862.912 360 862.883C360 862.883 440.589 796 540 796ZM900 796C999.411 796 1080 862.883 1080 862.883C1079.96 862.915 999.387 929.766 900 929.766C800.61 929.766 720.035 862.912 720 862.883C720 862.883 800.589 796 900 796ZM1260 796C1359.41 796 1440 862.883 1440 862.883C1439.96 862.915 1359.39 929.766 1260 929.766C1160.61 929.766 1080.03 862.912 1080 862.883C1080 862.883 1160.59 796 1260 796ZM179.773 798.693C144.447 798.693 115.809 827.331 115.809 862.658C115.809 897.985 144.447 926.624 179.773 926.624C215.1 926.624 243.739 897.985 243.739 862.658C243.739 827.331 215.1 798.693 179.773 798.693ZM539.773 798.693C504.447 798.693 475.809 827.331 475.809 862.658C475.809 897.985 504.447 926.624 539.773 926.624C575.1 926.624 603.739 897.985 603.739 862.658C603.739 827.331 575.1 798.693 539.773 798.693ZM899.773 798.693C864.447 798.693 835.809 827.331 835.809 862.658C835.809 897.985 864.447 926.624 899.773 926.624C935.1 926.624 963.739 897.985 963.739 862.658C963.739 827.331 935.1 798.693 899.773 798.693ZM1259.77 798.693C1224.45 798.693 1195.81 827.331 1195.81 862.658C1195.81 897.985 1224.45 926.624 1259.77 926.624C1295.1 926.624 1323.74 897.985 1323.74 862.658C1323.74 827.331 1295.1 798.693 1259.77 798.693ZM360 681C459.411 681 540 747.883 540 747.883C539.961 747.915 459.387 814.766 360 814.766C260.61 814.766 180.035 747.912 180 747.883C180 747.883 260.589 681 360 681ZM720 681C819.411 681 900 747.883 900 747.883C899.961 747.915 819.387 814.766 720 814.766C620.61 814.766 540.035 747.912 540 747.883C540 747.883 620.589 681 720 681ZM1080 681C1179.41 681 1260 747.883 1260 747.883C1259.96 747.915 1179.39 814.766 1080 814.766C980.61 814.766 900.035 747.912 900 747.883C900 747.883 980.589 681 1080 681ZM359.773 683.693C324.447 683.693 295.809 712.331 295.809 747.658C295.809 782.985 324.447 811.624 359.773 811.624C395.1 811.624 423.739 782.985 423.739 747.658C423.739 712.331 395.1 683.693 359.773 683.693ZM719.773 683.693C684.447 683.693 655.809 712.331 655.809 747.658C655.809 782.985 684.447 811.624 719.773 811.624C755.1 811.624 783.739 782.985 783.739 747.658C783.739 712.331 755.1 683.693 719.773 683.693ZM1079.77 683.693C1044.45 683.693 1015.81 712.331 1015.81 747.658C1015.81 782.985 1044.45 811.624 1079.77 811.624C1115.1 811.624 1143.74 782.985 1143.74 747.658C1143.74 712.331 1115.1 683.693 1079.77 683.693ZM180 569C279.411 569 360 635.883 360 635.883C359.961 635.915 279.387 702.766 180 702.766C80.6103 702.766 0.034868 635.912 0 635.883C0 635.883 80.5887 569 180 569ZM540 569C639.411 569 720 635.883 720 635.883C719.961 635.915 639.387 702.766 540 702.766C440.61 702.766 360.035 635.912 360 635.883C360 635.883 440.589 569 540 569ZM900 569C999.411 569 1080 635.883 1080 635.883C1079.96 635.915 999.387 702.766 900 702.766C800.61 702.766 720.035 635.912 720 635.883C720 635.883 800.589 569 900 569ZM1260 569C1359.41 569 1440 635.883 1440 635.883C1439.96 635.915 1359.39 702.766 1260 702.766C1160.61 702.766 1080.03 635.912 1080 635.883C1080 635.883 1160.59 569 1260 569ZM179.773 571.693C144.447 571.693 115.809 600.331 115.809 635.658C115.809 670.985 144.447 699.624 179.773 699.624C215.1 699.624 243.739 670.985 243.739 635.658C243.739 600.331 215.1 571.693 179.773 571.693ZM539.773 571.693C504.447 571.693 475.809 600.331 475.809 635.658C475.809 670.985 504.447 699.624 539.773 699.624C575.1 699.624 603.739 670.985 603.739 635.658C603.739 600.331 575.1 571.693 539.773 571.693ZM899.773 571.693C864.447 571.693 835.809 600.331 835.809 635.658C835.809 670.985 864.447 699.624 899.773 699.624C935.1 699.624 963.739 670.985 963.739 635.658C963.739 600.331 935.1 571.693 899.773 571.693ZM1259.77 571.693C1224.45 571.693 1195.81 600.331 1195.81 635.658C1195.81 670.985 1224.45 699.624 1259.77 699.624C1295.1 699.624 1323.74 670.985 1323.74 635.658C1323.74 600.331 1295.1 571.693 1259.77 571.693ZM360 454C459.411 454 540 520.883 540 520.883C539.961 520.915 459.387 587.766 360 587.766C260.61 587.766 180.035 520.912 180 520.883C180 520.883 260.589 454 360 454ZM720 454C819.411 454 900 520.883 900 520.883C899.961 520.915 819.387 587.766 720 587.766C620.61 587.766 540.035 520.912 540 520.883C540 520.883 620.589 454 720 454ZM1080 454C1179.41 454 1260 520.883 1260 520.883C1259.96 520.915 1179.39 587.766 1080 587.766C980.61 587.766 900.035 520.912 900 520.883C900 520.883 980.589 454 1080 454ZM359.773 456.693C324.447 456.693 295.809 485.331 295.809 520.658C295.809 555.985 324.447 584.624 359.773 584.624C395.1 584.624 423.739 555.985 423.739 520.658C423.739 485.331 395.1 456.693 359.773 456.693ZM719.773 456.693C684.447 456.693 655.809 485.331 655.809 520.658C655.809 555.985 684.447 584.624 719.773 584.624C755.1 584.624 783.739 555.985 783.739 520.658C783.739 485.331 755.1 456.693 719.773 456.693ZM1079.77 456.693C1044.45 456.693 1015.81 485.331 1015.81 520.658C1015.81 555.985 1044.45 584.624 1079.77 584.624C1115.1 584.624 1143.74 555.985 1143.74 520.658C1143.74 485.331 1115.1 456.693 1079.77 456.693ZM180 342C279.411 342 360 408.883 360 408.883C359.961 408.915 279.387 475.766 180 475.766C80.6103 475.766 0.034868 408.912 0 408.883C0 408.883 80.5887 342 180 342ZM540 342C639.411 342 720 408.883 720 408.883C719.961 408.915 639.387 475.766 540 475.766C440.61 475.766 360.035 408.912 360 408.883C360 408.883 440.589 342 540 342ZM900 342C999.411 342 1080 408.883 1080 408.883C1079.96 408.915 999.387 475.766 900 475.766C800.61 475.766 720.035 408.912 720 408.883C720 408.883 800.589 342 900 342ZM1260 342C1359.41 342 1440 408.883 1440 408.883C1439.96 408.915 1359.39 475.766 1260 475.766C1160.61 475.766 1080.03 408.912 1080 408.883C1080 408.883 1160.59 342 1260 342ZM179.773 344.693C144.447 344.693 115.809 373.331 115.809 408.658C115.809 443.985 144.447 472.624 179.773 472.624C215.1 472.624 243.739 443.985 243.739 408.658C243.739 373.331 215.1 344.693 179.773 344.693ZM539.773 344.693C504.447 344.693 475.809 373.331 475.809 408.658C475.809 443.985 504.447 472.624 539.773 472.624C575.1 472.624 603.739 443.985 603.739 408.658C603.739 373.331 575.1 344.693 539.773 344.693ZM899.773 344.693C864.447 344.693 835.809 373.331 835.809 408.658C835.809 443.985 864.447 472.624 899.773 472.624C935.1 472.624 963.739 443.985 963.739 408.658C963.739 373.331 935.1 344.693 899.773 344.693ZM1259.77 344.693C1224.45 344.693 1195.81 373.331 1195.81 408.658C1195.81 443.985 1224.45 472.624 1259.77 472.624C1295.1 472.624 1323.74 443.985 1323.74 408.658C1323.74 373.331 1295.1 344.693 1259.77 344.693ZM360 227C459.411 227 540 293.883 540 293.883C539.961 293.915 459.387 360.766 360 360.766C260.61 360.766 180.035 293.912 180 293.883C180 293.883 260.589 227 360 227ZM720 227C819.411 227 900 293.883 900 293.883C899.961 293.915 819.387 360.766 720 360.766C620.61 360.766 540.035 293.912 540 293.883C540 293.883 620.589 227 720 227ZM1080 227C1179.41 227 1260 293.883 1260 293.883C1259.96 293.915 1179.39 360.766 1080 360.766C980.61 360.766 900.035 293.912 900 293.883C900 293.883 980.589 227 1080 227ZM359.773 229.693C324.447 229.693 295.809 258.331 295.809 293.658C295.809 328.985 324.447 357.624 359.773 357.624C395.1 357.624 423.739 328.985 423.739 293.658C423.739 258.331 395.1 229.693 359.773 229.693ZM719.773 229.693C684.447 229.693 655.809 258.331 655.809 293.658C655.809 328.985 684.447 357.624 719.773 357.624C755.1 357.624 783.739 328.985 783.739 293.658C783.739 258.331 755.1 229.693 719.773 229.693ZM1079.77 229.693C1044.45 229.693 1015.81 258.331 1015.81 293.658C1015.81 328.985 1044.45 357.624 1079.77 357.624C1115.1 357.624 1143.74 328.985 1143.74 293.658C1143.74 258.331 1115.1 229.693 1079.77 229.693ZM180 115C279.411 115 360 181.883 360 181.883C359.961 181.915 279.387 248.766 180 248.766C80.6103 248.766 0.034868 181.912 0 181.883C0 181.883 80.5887 115 180 115ZM540 115C639.411 115 720 181.883 720 181.883C719.961 181.915 639.387 248.766 540 248.766C440.61 248.766 360.035 181.912 360 181.883C360 181.883 440.589 115 540 115ZM900 115C999.411 115 1080 181.883 1080 181.883C1079.96 181.915 999.387 248.766 900 248.766C800.61 248.766 720.035 181.912 720 181.883C720 181.883 800.589 115 900 115ZM1260 115C1359.41 115 1440 181.883 1440 181.883C1439.96 181.915 1359.39 248.766 1260 248.766C1160.61 248.766 1080.03 181.912 1080 181.883C1080 181.883 1160.59 115 1260 115ZM179.773 117.693C144.447 117.693 115.809 146.331 115.809 181.658C115.809 216.985 144.447 245.624 179.773 245.624C215.1 245.624 243.739 216.985 243.739 181.658C243.739 146.331 215.1 117.693 179.773 117.693ZM539.773 117.693C504.447 117.693 475.809 146.331 475.809 181.658C475.809 216.985 504.447 245.624 539.773 245.624C575.1 245.624 603.739 216.985 603.739 181.658C603.739 146.331 575.1 117.693 539.773 117.693ZM899.773 117.693C864.447 117.693 835.809 146.331 835.809 181.658C835.809 216.985 864.447 245.624 899.773 245.624C935.1 245.624 963.739 216.985 963.739 181.658C963.739 146.331 935.1 117.693 899.773 117.693ZM1259.77 117.693C1224.45 117.693 1195.81 146.331 1195.81 181.658C1195.81 216.985 1224.45 245.624 1259.77 245.624C1295.1 245.624 1323.74 216.985 1323.74 181.658C1323.74 146.331 1295.1 117.693 1259.77 117.693ZM360 0C459.411 0 540 66.8828 540 66.8828C539.961 66.9152 459.387 133.766 360 133.766C260.61 133.766 180.035 66.9117 180 66.8828C180 66.8828 260.589 1.06967e-06 360 0ZM720 0C819.411 0 900 66.8828 900 66.8828C899.961 66.9152 819.387 133.766 720 133.766C620.61 133.766 540.035 66.9117 540 66.8828C540 66.8828 620.589 1.06967e-06 720 0ZM1080 0C1179.41 0 1260 66.8828 1260 66.8828C1259.96 66.9152 1179.39 133.766 1080 133.766C980.61 133.766 900.035 66.9117 900 66.8828C900 66.8828 980.589 1.06967e-06 1080 0ZM359.773 2.69336C324.447 2.69349 295.809 31.3315 295.809 66.6582C295.809 101.985 324.447 130.624 359.773 130.624C395.1 130.624 423.739 101.985 423.739 66.6582C423.739 31.3314 395.1 2.69336 359.773 2.69336ZM719.773 2.69336C684.447 2.69349 655.809 31.3315 655.809 66.6582C655.809 101.985 684.447 130.624 719.773 130.624C755.1 130.624 783.739 101.985 783.739 66.6582C783.739 31.3314 755.1 2.69336 719.773 2.69336ZM1079.77 2.69336C1044.45 2.69349 1015.81 31.3315 1015.81 66.6582C1015.81 101.985 1044.45 130.624 1079.77 130.624C1115.1 130.624 1143.74 101.985 1143.74 66.6582C1143.74 31.3314 1115.1 2.69336 1079.77 2.69336Z" />
</svg>