<svg xmlns="http://www.w3.org/2000/svg" width="16" height="16" viewBox="0 0 16 16" fill="none">
  <g clip-path="url(#clip0_24731_9789)">
    <path d="M8 0C12.4179 0 16 3.58214 16 8C16 12.4179 12.4179 16 8 16C3.58214 16 0 12.4179 0 8C1.93324e-07 3.58214 3.58214 1.93318e-07 8 0ZM8 1.35742C4.33214 1.35742 1.35742 4.33214 1.35742 8C1.35742 11.6679 4.33214 14.6426 8 14.6426C11.6679 14.6426 14.6426 11.6679 14.6426 8C14.6426 4.33214 11.6679 1.35742 8 1.35742ZM8.42871 6.85742C8.50709 6.85765 8.57129 6.92157 8.57129 7V11.8574C8.57114 11.9357 8.507 11.9998 8.42871 12H7.57129C7.49281 12 7.42886 11.9359 7.42871 11.8574V7C7.42871 6.92143 7.49272 6.85742 7.57129 6.85742H8.42871ZM8 4C8.22713 4.00007 8.44481 4.09043 8.60547 4.25098C8.76621 4.41172 8.85645 4.63009 8.85645 4.85742C8.85637 5.08465 8.76615 5.30221 8.60547 5.46289C8.44479 5.62357 8.22723 5.71379 8 5.71387C7.77267 5.71387 7.5543 5.62364 7.39355 5.46289C7.23301 5.30223 7.14265 5.08455 7.14258 4.85742C7.14258 4.63009 7.23281 4.41172 7.39355 4.25098C7.5543 4.09023 7.77267 4 8 4Z" fill="#6CC5FF"/>
  </g>
  <defs>
    <clipPath id="clip0_24731_9789">
      <rect width="16" height="16" fill="white"/>
    </clipPath>
  </defs>
</svg>