<svg xmlns="http://www.w3.org/2000/svg" width="16" height="16" viewBox="0 0 16 16" fill="none">
  <g clip-path="url(#clip0_24797_19541)">
    <path d="M8 0C12.4179 0 16 3.58214 16 8C16 12.4179 12.4179 16 8 16C3.58214 16 0 12.4179 0 8C1.93324e-07 3.58214 3.58214 1.93318e-07 8 0ZM8 1.35742C4.33214 1.35742 1.35742 4.33214 1.35742 8C1.35742 11.6679 4.33214 14.6426 8 14.6426C11.6679 14.6426 14.6426 11.6679 14.6426 8C14.6426 4.33214 11.6679 1.35742 8 1.35742ZM11.2861 7.42871C11.3645 7.42894 11.4286 7.49292 11.4287 7.57129V8.42871C11.4286 8.50708 11.3645 8.57106 11.2861 8.57129H4.71387C4.63553 8.57106 4.57136 8.50708 4.57129 8.42871V7.57129C4.57136 7.49292 4.63553 7.42894 4.71387 7.42871H11.2861Z" fill="#E5E5E5"/>
  </g>
  <defs>
    <clipPath id="clip0_24797_19541">
      <rect width="16" height="16" fill="white"/>
    </clipPath>
  </defs>
</svg>