<svg xmlns="http://www.w3.org/2000/svg"  viewBox="0 0 24 24" fill="none">
  <g clip-path="url(#clip0_24731_9781)">
    <path d="M12 24C18.6274 24 24 18.6274 24 12C24 5.37258 18.6274 0 12 0C5.37258 0 0 5.37258 0 12C0 18.6274 5.37258 24 12 24Z" fill="#FF6C6F"/>
    <path d="M13.7018 7H6.69208C6.05041 7 5.53027 7.55729 5.53027 8.24479V15.7552C5.53027 16.4427 6.05041 17 6.69208 17H13.7018C14.3435 17 14.8636 16.4427 14.8636 15.7552V8.24479C14.8636 7.55729 14.3435 7 13.7018 7ZM18.3053 7.98177L15.6414 9.95052V14.0495L18.3053 16.0156C18.8205 16.3958 19.5303 16.0078 19.5303 15.3438V8.65365C19.5303 7.99219 18.823 7.60156 18.3053 7.98177Z" fill="white"/>
  </g>
  <defs>
    <clipPath id="clip0_24731_9781">
      <rect width="24" height="24" fill="white"/>
    </clipPath>
  </defs>
</svg>