<svg xmlns="http://www.w3.org/2000/svg" width="105" height="40" viewBox="0 0 105 40" fill="none">
  <path d="M4.30785 22.927V28.3588H0.563477V10.8541H8.05223C12.106 10.8541 15.0235 13.2223 15.0235 16.8766C15.0235 19.2709 13.7316 21.1495 11.6935 22.1532L16.1597 28.3569H11.6916L7.8441 22.9252H4.30785V22.927ZM7.92285 19.5027C9.80723 19.5027 11.3316 18.4728 11.3316 16.8766C11.3316 15.2541 9.80723 14.2504 7.92285 14.2504H4.30785V19.5009H7.92285V19.5027Z" fill="#1A1F28"/>
  <path d="M28.7658 23.1065H19.6514C19.9364 24.5477 20.8908 25.6804 22.8539 25.6804C23.8608 25.6804 24.5583 25.372 24.9445 24.7533H28.6889C28.0177 27.1215 25.6945 28.7439 22.7752 28.7439C18.7983 28.7439 16.1133 25.886 16.1133 22.2056C16.1133 18.3963 18.772 15.6411 22.672 15.6411C26.2102 15.6411 28.8427 18.1383 28.8427 21.9477C28.8427 22.4635 28.8183 22.7458 28.7658 23.1065ZM19.6758 20.9963H25.2783C25.072 19.4523 24.142 18.6019 22.6964 18.6019C20.9677 18.6019 20.0114 19.6056 19.6758 20.9963Z" fill="#1A1F28"/>
  <path d="M43.7205 16.028V28.3588H40.1317V27.6373C39.1755 28.2541 38.0148 28.6149 36.6198 28.6149C33.2111 28.6149 30.4492 25.7831 30.4492 22.2055C30.4492 18.5756 33.213 15.77 36.6198 15.77C38.0148 15.77 39.1755 16.1308 40.1317 16.7476V16.0261H43.7205V16.028ZM40.1317 24.1625V20.2242C39.3311 19.1438 38.2717 18.7831 37.2142 18.7831C35.3298 18.7831 34.0117 20.3794 34.0117 22.2074C34.0117 24.0093 35.328 25.5794 37.2142 25.5794C38.2717 25.5775 39.3311 25.2186 40.1317 24.1625Z" fill="#1A1F28"/>
  <path d="M49.7733 28.3589H46.1846V10.8505H49.7733V28.3589Z" fill="#1A1F28"/>
  <path d="M61.4337 14.2523V28.3588H57.6894V14.2523H51.8281V10.8541H67.295V14.2523H61.4337Z" fill="#F2A91E"/>
  <path opacity="0.4" d="M99.7139 29.9009L87.5845 36.8654L75.457 29.9009V12.3663L87.5845 5.40186L99.7139 12.3663V29.9009Z" fill="#72A8DA"/>
  <path d="M79.9307 33.0037L80.3113 15.329L87.6238 19.0916L87.1888 36.714L79.9307 33.0037Z" fill="#C56728"/>
  <path d="M94.9755 32.785L94.8555 14.9832L87.543 18.7458L87.7192 36.4953L94.9755 32.785Z" fill="#F2A91E"/>
  <path d="M87.3443 10.3962L80.585 14.5981L88.1431 18.5832L94.4675 14.7439L87.3443 10.3962Z" fill="#EB8523"/>
  <path fill-rule="evenodd" clip-rule="evenodd" d="M87.5848 9.85608L95.8337 14.5935V33.4578L87.5848 38.0122L79.3379 33.4577V14.5936L87.5848 9.85608ZM87.5849 11.9718L81.1768 15.653V32.3776L87.5849 35.9166L93.9948 32.3775V15.653L87.5849 11.9718Z" fill="#1A1F28"/>
  <path fill-rule="evenodd" clip-rule="evenodd" d="M87.5844 0.0231934L104.393 9.67679V28.9867L87.5844 38.6403L70.7754 28.9867V9.67679L87.5844 0.0231934ZM87.5844 2.844L73.2272 11.0895V27.574L87.5844 35.8195L101.942 27.574V11.0895L87.5844 2.844Z" fill="#1A1F28"/>
  <path fill-rule="evenodd" clip-rule="evenodd" d="M86.5957 37.2878V18.8766H88.4352V37.2878H86.5957Z" fill="#1A1F28"/>
  <path fill-rule="evenodd" clip-rule="evenodd" d="M103.691 11.1883L88.0086 19.693L87.1299 18.0827L102.812 9.578L103.691 11.1883Z" fill="#1A1F28"/>
  <path fill-rule="evenodd" clip-rule="evenodd" d="M72.478 9.57971L88.0123 18.0844L87.1271 19.6912L71.5928 11.1865L72.478 9.57971Z" fill="#1A1F28"/>
  <path d="M87.5846 40.0111C96.2882 40.0111 103.344 39.3006 103.344 38.4242C103.344 37.5478 96.2882 36.8373 87.5846 36.8373C78.8809 36.8373 71.8252 37.5478 71.8252 38.4242C71.8252 39.3006 78.8809 40.0111 87.5846 40.0111Z" fill="#1A1F28"/>
  <path fill-rule="evenodd" clip-rule="evenodd" d="M80.655 20.1927L87.825 24.2339L86.92 25.8296L79.75 21.7885L80.655 20.1927Z" fill="#1A1F28"/>
  <path fill-rule="evenodd" clip-rule="evenodd" d="M80.6553 25.976L87.8253 30.0189L86.92 31.6145L79.75 27.5715L80.6553 25.976Z" fill="#1A1F28"/>
  <path fill-rule="evenodd" clip-rule="evenodd" d="M95.1659 21.7888L87.994 25.8299L87.0889 24.2335L94.2607 20.1924L95.1659 21.7888Z" fill="#1A1F28"/>
  <path fill-rule="evenodd" clip-rule="evenodd" d="M95.1659 27.5716L87.994 31.6146L87.0889 30.0189L94.2607 25.976L95.1659 27.5716Z" fill="#1A1F28"/>
</svg>
