<svg  viewBox="0 0 600 600" fill="none" xmlns="http://www.w3.org/2000/svg">
<path d="M600 300C600 465.685 465.685 600 300 600C134.315 600 0 465.685 0 300C0 134.315 134.315 0 300 0C465.685 0 600 134.315 600 300Z" fill="#8B52F6"/>
<path d="M576.344 300.538C576.344 148.215 452.861 24.7318 300.537 24.7318C148.214 24.7318 24.7308 148.215 24.7308 300.538C24.7308 452.862 148.214 576.345 300.537 576.345V581.721C145.244 581.721 19.3545 455.831 19.3545 300.538C19.3545 145.245 145.244 19.3555 300.537 19.3555C455.83 19.3555 581.72 145.245 581.72 300.538C581.72 455.831 455.83 581.721 300.537 581.721V576.345C452.861 576.345 576.344 452.862 576.344 300.538Z" fill="black"/>
<path d="M76.7658 212.067C77.8409 211.709 78.8607 212.484 78.8607 212.484C89.9859 219.844 128.773 239.706 193.764 259.284C226.864 269.254 243.593 287.242 250.843 305.916C257.926 324.16 255.847 342.768 251.666 354.63C251.594 354.86 251.515 355.087 251.424 355.309L247.412 353.759C247.468 353.606 247.521 353.45 247.576 353.294C248.142 351.359 247.711 347.774 242.259 343.877C236.346 339.65 224.844 335.392 203.892 333.349C161.184 329.185 129.277 308.489 118.51 298.494C118.477 298.458 115.884 295.658 117.087 294.325C118.297 292.987 142.579 297.287 142.671 297.303C134.013 294.62 126.405 291.663 119.792 288.61C101.691 280.252 90.9182 271.145 86.5241 265.057C86.5194 265.051 85.3696 263.678 86.4422 262.605C87.5174 261.53 150.477 273.056 150.477 273.056C128.024 265.278 111.788 256.808 100.298 248.599C81.8059 235.387 75.2496 222.563 75.5257 214.206C75.5275 214.187 75.6966 212.424 76.7658 212.067ZM522.016 212.484C522.016 212.484 523.036 211.709 524.111 212.067C525.181 212.424 525.349 214.189 525.351 214.206C525.627 222.563 519.071 235.387 500.579 248.599C489.089 256.808 472.853 265.278 450.399 273.056C450.497 273.038 513.358 261.531 514.434 262.605C515.509 263.68 514.352 265.057 514.352 265.057C509.957 271.145 499.186 280.252 481.085 288.61C474.472 291.663 466.863 294.62 458.205 297.303C458.205 297.303 482.576 292.985 483.788 294.325C484.998 295.664 482.374 298.485 482.366 298.494C471.598 308.489 439.692 329.185 396.984 333.349C376.032 335.392 364.53 339.65 358.617 343.877C353.166 347.774 352.735 351.359 353.301 353.294C353.356 353.45 353.408 353.606 353.464 353.759L349.452 355.309C349.362 355.087 349.283 354.86 349.211 354.63C345.03 342.768 342.95 324.16 350.033 305.916C357.283 287.242 374.012 269.254 407.112 259.284C472.104 239.706 510.891 219.844 522.016 212.484ZM73.0024 187.336C74.6148 186.799 202.382 238.738 202.382 238.738C215.938 244.427 235.045 256.665 248.451 275.004C261.916 293.426 269.623 318.022 260.131 348.087L256.004 346.881C260.731 329.3 257.719 286.513 205.623 259.146C186.647 254.297 157.416 245.108 131.004 233.187C117.741 227.201 105.13 220.499 94.8679 213.278C84.6498 206.088 76.5455 198.234 72.5886 189.869C72.5886 189.869 71.39 187.874 73.0024 187.336ZM527.874 187.336C529.478 187.871 528.301 189.848 528.288 189.869C524.331 198.234 516.227 206.088 506.009 213.278C495.747 220.499 483.136 227.201 469.873 233.187C443.461 245.108 414.229 254.297 395.253 259.146C343.157 286.513 340.146 329.3 344.873 346.881L340.745 348.087C331.253 318.022 338.96 293.426 352.426 275.004C365.831 256.665 384.939 244.427 398.495 238.738C398.495 238.738 526.262 186.799 527.874 187.336ZM80.3423 218.463C82.0441 225.036 88.1789 234.654 102.798 245.099C120.759 257.932 150.76 273.84 200.136 284.381L94.0268 267.045C99.2842 272.105 108.271 278.553 121.594 284.705C136.957 291.798 170.665 302.038 198.17 305.702L126.897 299.86C140.493 310.12 168.478 325.575 204.31 329.069C225.54 331.139 237.938 335.5 244.761 340.377C246.962 341.951 248.611 343.612 249.782 345.28C251.961 334.641 252.056 320.926 246.834 307.473C240.124 290.192 224.528 273.042 192.524 263.402C133.245 245.546 95.4461 227.385 80.3423 218.463ZM520.534 218.463C505.431 227.385 467.631 245.546 408.353 263.402C376.349 273.042 360.751 290.192 354.042 307.473C348.82 320.926 348.915 334.641 351.094 345.28C352.265 343.612 353.915 341.951 356.116 340.377C362.939 335.5 375.336 331.139 396.566 329.069C432.398 325.575 460.384 310.12 473.98 299.86L402.706 305.702C430.212 302.038 463.918 291.798 479.282 284.705C492.605 278.553 501.591 272.105 506.849 267.045L400.74 284.381C450.116 273.84 480.117 257.932 498.078 245.099C512.697 234.654 518.833 225.036 520.534 218.463ZM79.6745 193.368C83.6875 198.924 89.761 204.427 97.3419 209.761C107.301 216.77 119.649 223.344 132.774 229.267C159.022 241.114 188.146 250.256 206.935 255.042L207.178 255.105L207.401 255.221C240.811 272.699 255.054 296.491 259.85 316.717C258.753 301.508 252.932 288.424 244.979 277.543C232.532 260.515 214.863 248.904 201.952 243.234L200.718 242.704L79.6745 193.368ZM400.159 242.704L398.924 243.234C386.013 248.904 368.344 260.516 355.898 277.543C347.944 288.424 342.123 301.508 341.027 316.717C345.822 296.491 360.066 272.699 393.475 255.221L393.698 255.105L393.942 255.042C412.731 250.256 441.855 241.114 468.103 229.267C481.227 223.344 493.575 216.77 503.534 209.761C511.115 204.427 517.188 198.924 521.201 193.368L400.159 242.704Z" fill="white"/>
<path fill-rule="evenodd" clip-rule="evenodd" d="M309.555 302.841L408.622 446.136V461.208H193.426V446.158L290.2 302.841L193.426 159.524V143.969H408.622V159.546L309.555 302.841Z" fill="white"/>
<path fill-rule="evenodd" clip-rule="evenodd" d="M187.097 137.633H414.954V161.516L317.252 302.835L414.954 444.155V467.533H187.097V444.216L282.563 302.835L187.097 161.455V137.633ZM199.757 150.294V157.581L297.84 302.835L199.757 448.09V454.872H402.293V448.105L301.86 302.835L402.293 157.566V150.294H199.757Z" fill="#511778"/>
<path d="M298.054 337.872C298.242 338.201 298.448 338.518 298.668 338.82C299.028 339.309 299.493 339.796 299.908 339.796C300.655 339.795 301.663 338.219 301.846 337.896C301.417 338.608 301.127 339.416 300.998 340.263C300.993 340.421 301.031 340.577 301.106 340.711C301.527 341.442 303.525 341.5 303.536 341.5C303.525 341.501 301.527 341.566 301.099 342.289C301.021 342.434 300.984 342.602 300.998 342.77C301.126 343.616 301.414 344.421 301.839 345.135C301.663 344.836 300.648 343.236 299.901 343.235C299.492 343.235 299.025 343.717 298.659 344.206C298.44 344.507 298.239 344.823 298.054 345.151C298.146 344.939 298.984 343.038 298.575 342.296C298.166 341.556 296.257 341.507 296.257 341.507C296.257 341.507 298.2 341.374 298.575 340.72C298.948 340.066 298.153 338.085 298.054 337.872ZM298.054 320.888C298.242 321.217 298.448 321.532 298.668 321.834C299.028 322.323 299.492 322.812 299.908 322.812C300.655 322.811 301.663 321.235 301.846 320.912C301.417 321.624 301.127 322.43 300.998 323.277C300.992 323.435 301.031 323.593 301.106 323.727C301.528 324.457 303.522 324.513 303.536 324.514C303.531 324.514 301.529 324.579 301.099 325.303C301.021 325.447 300.985 325.616 300.998 325.784C301.126 326.63 301.414 327.437 301.839 328.151C301.663 327.852 300.648 326.252 299.901 326.251C299.492 326.251 299.025 326.731 298.659 327.22C298.44 327.52 298.239 327.836 298.054 328.165C298.148 327.948 298.983 326.053 298.575 325.312C298.166 324.571 296.257 324.523 296.257 324.523C296.257 324.523 298.201 324.389 298.575 323.734C298.948 323.08 298.154 321.105 298.054 320.888ZM298.054 309.367C298.242 309.696 298.448 310.011 298.668 310.313C299.028 310.802 299.492 311.291 299.908 311.291C300.655 311.29 301.663 309.714 301.846 309.391C301.417 310.103 301.127 310.911 300.998 311.758C300.993 311.916 301.031 312.072 301.106 312.206C301.527 312.938 303.526 312.995 303.536 312.995C303.524 312.995 301.527 313.061 301.099 313.784C301.021 313.929 300.984 314.097 300.998 314.265C301.126 315.111 301.414 315.916 301.839 316.63C301.663 316.33 300.648 314.731 299.901 314.73C299.492 314.73 299.025 315.21 298.659 315.699C298.44 316 298.239 316.317 298.054 316.646C298.146 316.433 298.984 314.532 298.575 313.791C298.166 313.05 296.257 313.002 296.257 313.002C296.257 313.002 298.202 312.868 298.575 312.213C298.948 311.558 298.153 309.58 298.054 309.367Z" fill="#511778"/>
<path fill-rule="evenodd" clip-rule="evenodd" d="M316.692 277.848L304.273 295.769L299.729 303.456L295.556 295.769L283.467 277.848L300.52 283.37L316.692 277.848Z" fill="#511778"/>
<path fill-rule="evenodd" clip-rule="evenodd" d="M300.651 371.931C318.845 372.271 337.152 379.135 355.571 392.524L395.078 448.416H206.223L246.219 390.482C264.312 377.775 282.456 371.592 300.651 371.931Z" fill="#511778"/>
</svg>
