<svg xmlns="http://www.w3.org/2000/svg" width="103" height="48" viewBox="0 0 103 48" fill="none">
  <path d="M89.0975 29.9271L92.3533 14.5986H98.5887C99.0938 14.5922 99.5928 14.71 100.042 14.9417C100.464 15.1673 100.835 15.4779 101.132 15.8541C101.454 16.2346 101.701 16.673 101.859 17.1461C102.013 17.6349 102.091 18.1444 102.092 18.657C102.09 19.2673 101.982 19.8726 101.772 20.4454C101.555 21.0184 101.256 21.5568 100.885 22.0439C100.517 22.5503 100.071 22.994 99.5625 23.3578C99.0851 23.7042 98.5442 23.9523 97.971 24.0877L100.224 29.9271H98.0436L95.9288 24.4454H92.1934L91.0306 29.9271H89.0975ZM96.8809 22.7008C97.3111 22.7033 97.7346 22.5926 98.109 22.3797C98.4958 22.1485 98.838 21.8494 99.1192 21.4965C99.4206 21.1342 99.6657 20.7281 99.8459 20.2921C100.012 19.8409 100.098 19.3642 100.1 18.8833C100.101 18.5542 100.052 18.2269 99.9549 17.9125C99.8629 17.6202 99.7255 17.3443 99.548 17.095C99.3812 16.8714 99.168 16.6871 98.923 16.5548C98.6896 16.4095 98.42 16.3336 98.1454 16.3359H93.9594L92.6004 22.7008H96.8809Z" fill="#511778"/>
  <path d="M79.8971 14.5986H89.5627L89.1921 16.3213H81.4596L80.4058 21.2775H87.1281L86.7866 22.8979H80.057L78.9378 28.1826H86.8665L86.4813 29.9271H76.6414L79.8971 14.5986Z" fill="#511778"/>
  <path d="M67.4336 14.5986H77.0992L76.7358 16.3213H68.9961L67.9423 21.2848H74.6646L74.3231 22.8979H67.5862L66.4598 28.1826H74.3885L74.0251 29.9052H64.1779L67.4336 14.5986Z" fill="#511778"/>
  <path d="M50.7841 28.2919L49.4178 30.0364H56.2927C57.1112 30.0409 57.9269 29.9403 58.72 29.7372C59.4368 29.5421 60.1135 29.2208 60.7186 28.7883C61.2878 28.3763 61.7532 27.8364 62.0775 27.2116C62.4331 26.5118 62.6104 25.7343 62.5935 24.9488C62.6065 24.4786 62.5042 24.0123 62.2956 23.5912C62.1085 23.2111 61.8346 22.881 61.4962 22.6277C61.1141 22.3303 60.6872 22.0962 60.2316 21.9342C59.6865 21.7185 59.1282 21.5381 58.5602 21.3941C58.0175 21.2627 57.533 21.1313 57.1067 20.9999C56.7553 20.8846 56.4167 20.733 56.0965 20.5474C55.8476 20.4017 55.6341 20.2023 55.4715 19.9634C55.3378 19.7124 55.2727 19.4304 55.2826 19.1459C55.2727 18.7488 55.348 18.3542 55.5035 17.9889C55.659 17.6236 55.891 17.2963 56.1837 17.0291C56.9991 16.403 58.0171 16.1038 59.0398 16.1897H64.3159L64.8246 14.4671H59.4831C58.6531 14.4644 57.8275 14.5874 57.034 14.832C56.3087 15.0584 55.6312 15.4172 55.0355 15.8904C54.469 16.3242 54.007 16.8806 53.6838 17.5182C53.3507 18.1992 53.1814 18.9492 53.1896 19.708C53.1803 20.1239 53.2596 20.537 53.4222 20.9196C53.6013 21.2612 53.8487 21.5619 54.1489 21.8029C54.5024 22.0719 54.8912 22.2905 55.3044 22.4525C55.8164 22.6578 56.3407 22.8309 56.8741 22.9707C57.4337 23.1313 57.9352 23.2846 58.3785 23.4233C58.7718 23.5453 59.1461 23.7222 59.4904 23.9488C59.7846 24.105 60.0346 24.3335 60.2171 24.6131C60.4027 24.8873 60.4899 25.2168 60.4642 25.5474C60.48 25.9437 60.3957 26.3377 60.219 26.6925C60.0424 27.0473 59.7792 27.3514 59.454 27.5766C58.6437 28.0996 57.6908 28.3548 56.7288 28.3065L50.7841 28.2919Z" fill="#511778"/>
  <path d="M38.6041 32.9489C38.5038 32.9507 38.4052 32.9228 38.3207 32.8686C38.198 32.7927 38.1087 32.6727 38.0709 32.5331C38.0331 32.3934 38.0496 32.2446 38.1172 32.1167C40.3739 28.2557 41.236 23.7312 40.5582 19.3061C39.8804 14.881 37.7041 10.826 34.3963 7.82477C34.3429 7.77181 34.3006 7.70873 34.2716 7.63919C34.2427 7.56965 34.2278 7.49503 34.2278 7.41966C34.2278 7.34429 34.2427 7.26967 34.2716 7.20013C34.3006 7.13059 34.3429 7.06751 34.3963 7.01455C34.4979 6.90198 34.6397 6.83424 34.7907 6.82604C34.9418 6.81784 35.0899 6.86984 35.203 6.97075C38.6967 10.1508 40.9918 14.4436 41.7014 19.1253C42.4109 23.807 41.4916 28.5913 39.0983 32.6715C39.0468 32.7567 38.9742 32.827 38.8876 32.8756C38.801 32.9242 38.7033 32.9494 38.6041 32.9489Z" fill="#8B52F6"/>
  <path d="M21.4169 42.8103C21.0026 42.8103 20.5884 42.8103 20.1887 42.7665C19.5778 42.735 18.9689 42.6717 18.3646 42.5767C16.9573 42.3657 15.5761 42.006 14.244 41.5037C13.619 41.2701 13.0158 41.0073 12.449 40.73C11.3986 40.2086 10.3945 39.5982 9.44757 38.9052C8.88493 38.4959 8.34398 38.0573 7.82696 37.5913C6.9421 36.8111 6.12519 35.9564 5.38513 35.0365C4.99599 34.5496 4.63214 34.0429 4.29503 33.5183C3.73217 32.6591 3.23418 31.7588 2.80522 30.8249C2.53633 30.2336 2.29651 29.6278 2.07849 29.0365C1.78291 28.2285 1.54015 27.4019 1.35175 26.5621C1.22821 26 1.13373 25.4015 1.05379 24.803C0.973853 24.2044 0.922982 23.438 0.908447 22.7665C0.908447 22.5913 0.908447 22.4088 0.908447 22.2263C0.911308 19.5197 1.44504 16.8402 2.47915 14.3408C3.51326 11.8414 5.02749 9.57111 6.93534 7.65962C8.84319 5.74813 11.1073 4.23288 13.5983 3.20043C16.0893 2.16797 18.7584 1.63854 21.4532 1.64238C23.0632 1.63374 24.6684 1.81751 26.2351 2.18983C26.3695 2.23651 26.4818 2.33158 26.5503 2.45665C26.6189 2.58171 26.6388 2.72787 26.6062 2.86684C26.5737 3.00581 26.491 3.12771 26.3741 3.20895C26.2572 3.29019 26.1145 3.32499 25.9735 3.30661C24.4926 2.95142 22.9757 2.77016 21.4532 2.76647C16.3191 2.77033 11.3962 4.82003 7.76517 8.46568C4.13411 12.1113 2.09153 17.055 2.08576 22.2117C2.08576 22.3869 2.08576 22.5548 2.08576 22.7227C2.08576 23.3577 2.15116 24 2.2311 24.6497C2.31104 25.2993 2.39098 25.7738 2.50726 26.3066C2.67411 27.0988 2.8926 27.879 3.16132 28.6424C3.35705 29.2159 3.58265 29.7787 3.83719 30.3285C4.24777 31.2001 4.71889 32.0416 5.24705 32.8468C5.56681 33.3358 5.90838 33.8103 6.27901 34.3066C6.96972 35.1826 7.73573 35.996 8.56822 36.7373C9.05513 37.1752 9.57112 37.5913 10.0944 37.9781C10.9953 38.6316 11.9509 39.2055 12.9504 39.6935C13.5013 39.9674 14.0665 40.2111 14.6437 40.4234C15.9007 40.8962 17.2039 41.2338 18.5317 41.4307C19.1021 41.5232 19.6771 41.5841 20.2541 41.6132C21.0745 41.6643 21.8973 41.6643 22.7177 41.6132C22.8689 41.6031 23.0179 41.6535 23.1322 41.7533C23.2466 41.8531 23.317 41.9943 23.3282 42.146C23.3362 42.2986 23.2844 42.4482 23.1839 42.5628C23.0833 42.6774 22.9421 42.7479 22.7904 42.7592C22.3398 42.7957 21.8747 42.8103 21.4169 42.8103Z" fill="#8B52F6"/>
  <path d="M32.0635 25.6204C32.0635 26.1167 31.5548 26.4598 30.6754 26.562C29.0672 26.7077 27.454 26.3422 26.0639 25.517C24.6738 24.6918 23.5769 23.4488 22.9284 21.9635C22.8707 21.8207 22.8707 21.6609 22.9284 21.5182C22.9818 21.3724 23.0883 21.2524 23.2264 21.1824C23.3667 21.1278 23.5222 21.1278 23.6624 21.1824C23.7355 21.2069 23.8028 21.2461 23.8603 21.2975C23.9177 21.349 23.9642 21.4116 23.9967 21.4817C24.4371 22.4238 25.0856 23.2527 25.8928 23.9054C26.7 24.558 27.6447 25.0172 28.6551 25.2481C29.2188 25.3859 29.7974 25.4521 30.3775 25.4452C28.924 24.7153 27.9211 24.051 26.3732 21.3284C26.1432 20.7916 25.7903 20.3168 25.3433 19.9426C24.8963 19.5685 24.3677 19.3055 23.8005 19.1751C22.8067 18.9023 21.889 18.4027 21.1189 17.7153C18.7061 15.635 19.4038 13.3795 19.5782 12.9124C19.8253 11.9124 21.177 11.3795 23.8151 11.2481C24.7816 11.197 25.7264 11.2481 26.3514 11.2481C25.2104 10.0802 21.7293 9.78827 20.5375 9.78827H20.2759L20.1232 9.67879C18.1611 8.21893 16.3442 7.82477 14.7381 8.40871C11.5551 9.5693 9.75275 14.3357 9.06962 16.5839C9.32828 16.5818 9.58154 16.6582 9.79635 16.8029C10.5231 17.2846 10.1452 18.1021 9.79635 18.8175C9.34953 19.6754 9.10112 20.6235 9.06962 21.5912V21.8467C9.06962 24.5839 8.98241 30.9781 25.1958 38.8467L25.3121 38.9051L25.3921 39C25.84 39.6386 26.2361 40.3123 26.5766 41.0145C26.642 41.1605 26.7147 41.2992 26.7729 41.4525C26.808 41.5219 26.8268 41.5983 26.828 41.6761C26.8292 41.7539 26.8127 41.8309 26.7798 41.9013C26.7468 41.9718 26.6983 42.0337 26.6379 42.0824C26.5775 42.1311 26.5068 42.1653 26.4313 42.1824H26.2569C26.13 42.1829 26.0056 42.1466 25.8987 42.078C25.7917 42.0094 25.7067 41.9114 25.6537 41.7956C25.5956 41.6544 25.5301 41.5158 25.4575 41.3795C25.1976 40.8462 24.9013 40.3316 24.5709 39.8394C7.81964 31.6788 7.85598 24.7883 7.91411 21.8467C7.91411 21.7591 7.91411 21.6715 7.91411 21.5912C7.94629 20.4583 8.23457 19.3475 8.75713 18.343C8.82253 18.197 8.93881 17.9489 8.99695 17.7737C8.88874 17.8168 8.79179 17.8842 8.71352 17.9708C8.60805 18.0658 8.47499 18.1243 8.33393 18.1376C8.19287 18.151 8.05127 18.1184 7.93 18.0449C7.80872 17.9713 7.71418 17.8605 7.66029 17.7289C7.60641 17.5973 7.59603 17.4518 7.63069 17.3138C8.15394 15.3284 10.1016 8.85397 14.3457 7.29922C16.2934 6.5693 18.4154 7.03645 20.6465 8.61309C21.7272 8.63907 22.8039 8.75381 23.8659 8.95616C26.3441 9.44521 27.6813 10.416 27.8339 11.7883L27.9138 12.5182L27.1871 12.4598C23.6406 12.1897 20.7555 12.6423 20.6465 13.1897V13.27V13.3211C20.6465 13.3868 19.8834 15.1021 21.8674 16.8175C22.5238 17.3902 23.3018 17.8046 24.1421 18.0292C25.2176 18.3722 26.2205 18.6934 27.376 20.7153C28.7568 23.1532 29.4545 23.562 30.4211 24.1167C30.6682 24.2627 30.9298 24.416 31.2205 24.6131L31.3585 24.7007C31.7292 24.9708 32.0635 25.1897 32.0635 25.6204Z" fill="#511778"/>
  <path d="M36.5837 34.168C36.5732 34.3171 36.5174 34.4593 36.4238 34.5755C36.3302 34.6916 36.2034 34.7762 36.0605 34.8176C35.9106 34.8787 35.7499 34.9085 35.5881 34.9052C35.2691 34.8939 34.9523 34.8474 34.6434 34.7665L34.2436 34.6498C32.8684 34.3067 31.5781 33.6832 30.4529 32.818C29.3277 31.9528 28.3917 30.8645 27.703 29.6206C27.623 29.4946 27.5928 29.3431 27.6184 29.1958C27.6439 29.0486 27.7234 28.9163 27.8411 28.8249C27.9092 28.7746 27.9875 28.74 28.0704 28.7236C28.1533 28.7072 28.2388 28.7094 28.3208 28.73C28.3988 28.747 28.4719 28.7814 28.5348 28.8307C28.5977 28.88 28.6488 28.9429 28.6841 29.0147C29.3867 30.2632 30.3523 31.3426 31.5134 32.1772C32.6745 33.0119 34.0032 33.5817 35.4064 33.8468C32.9719 31.657 31.046 27.8395 31.046 27.8103C31.0072 27.7407 30.983 27.6638 30.975 27.5844C30.9669 27.505 30.9751 27.4248 30.9991 27.3487C31.0231 27.2727 31.0624 27.2023 31.1145 27.1421C31.1666 27.0819 31.2305 27.033 31.3021 26.9985C31.3738 26.964 31.4517 26.9446 31.5311 26.9416C31.6105 26.9385 31.6897 26.9519 31.7637 26.9807C31.8378 27.0096 31.9052 27.0534 31.9617 27.1095C32.0183 27.1656 32.0628 27.2327 32.0925 27.3067C33.0656 29.2824 34.3243 31.1026 35.8279 32.7081L35.8715 32.7519C36.2276 33.1461 36.6855 33.5768 36.5837 34.168Z" fill="#511778"/>
  <path d="M44.8467 45.9123C44.6432 46.3795 44.1709 46.6423 43.4369 46.6423H43.1752C40.5116 46.3143 37.9753 45.3094 35.8062 43.7226L35.3338 43.3722C33.7277 42.2116 32.5722 41.3722 30.7772 37.9999C30.5637 37.8874 30.3427 37.7899 30.1158 37.708C28.1486 36.9564 26.3608 35.7975 24.8688 34.3065C19.9416 29.6934 17.725 25.4452 18.2701 21.6642C18.2855 21.5548 18.3316 21.4521 18.4028 21.3679C18.4741 21.2838 18.5677 21.2217 18.6727 21.1888C18.7777 21.1559 18.8899 21.1537 18.9961 21.1822C19.1024 21.2108 19.1984 21.2691 19.273 21.3503C19.3305 21.4136 19.3728 21.4892 19.3967 21.5715C19.4206 21.6537 19.4255 21.7403 19.411 21.8248C18.8006 26.0291 22.4706 30.4744 25.6537 33.4598C28.597 36.2043 30.6972 36.9123 31.4676 37.1094C31.4964 37.1042 31.5259 37.1042 31.5548 37.1094L31.751 37.2262L31.8091 37.4306C34.9195 43.8685 42.6302 45.4598 42.7101 45.4598C42.9927 45.5143 43.2799 45.5412 43.5677 45.5401C43.607 45.5341 43.6445 45.5191 43.6773 45.4963C43.71 45.4736 43.7372 45.4436 43.7566 45.4087C43.7706 45.3829 43.778 45.3541 43.778 45.3248C43.778 45.2954 43.7706 45.2666 43.7566 45.2408C43.4111 44.7626 43.0192 44.32 42.5866 43.9196C37.4268 38.9853 36.2422 37.0656 35.9951 36.3576C35.9403 36.2143 35.9403 36.0557 35.9951 35.9123C36.0195 35.8399 36.0586 35.7734 36.1099 35.7168C36.1612 35.6603 36.2235 35.615 36.2931 35.5839C36.4322 35.5207 36.5903 35.5144 36.7341 35.5661C36.8778 35.6179 36.9959 35.7237 37.0634 35.8613V35.8977C37.1143 36.0583 37.7102 37.6496 43.4078 43.1021C44.6941 44.3357 45.152 45.2554 44.8467 45.9123Z" fill="#511778"/>
  <path d="M16.635 11.0876C17.0684 11.0876 17.4198 10.7347 17.4198 10.2993C17.4198 9.86393 17.0684 9.51099 16.635 9.51099C16.2015 9.51099 15.8501 9.86393 15.8501 10.2993C15.8501 10.7347 16.2015 11.0876 16.635 11.0876Z" fill="#511778"/>
  <path d="M31.8237 5.91249C31.9553 6.6954 32.25 7.44159 32.6885 8.10227C32.5068 7.82489 31.4603 6.34314 30.69 6.34314C30.2684 6.34314 29.7888 6.7884 29.4109 7.24095C29.1848 7.51968 28.976 7.81221 28.7859 8.11686C28.8804 7.91978 29.7452 6.16066 29.3237 5.47453C28.9022 4.7884 26.9327 4.7446 26.9327 4.7446C26.9327 4.7446 28.9385 4.62051 29.3237 4.01468C29.7089 3.40884 28.8877 1.57672 28.7859 1.37964C28.9795 1.6837 29.1906 1.97617 29.4182 2.25555C29.7888 2.70811 30.2684 3.16066 30.6972 3.16066C31.4676 3.16066 32.5068 1.70081 32.6957 1.40154C32.2535 2.06099 31.9562 2.80748 31.8237 3.59132C31.8176 3.73785 31.8555 3.88284 31.9327 4.00738C32.3687 4.68621 34.4399 4.7373 34.4399 4.7373C34.4399 4.7373 32.3687 4.7957 31.9254 5.46723C31.8449 5.60089 31.8093 5.75696 31.8237 5.91249Z" fill="#511778"/>
</svg>