<svg xmlns="http://www.w3.org/2000/svg" width="104" height="48" viewBox="0 0 104 48" fill="none">
  <path d="M89.4781 29.9271L92.7478 14.5986H99.0098C99.5171 14.5922 100.018 14.71 100.47 14.9417C100.893 15.1673 101.266 15.4779 101.564 15.8541C101.887 16.2346 102.135 16.673 102.294 17.1461C102.449 17.6349 102.527 18.1444 102.528 18.657C102.526 19.2673 102.417 19.8726 102.207 20.4454C101.988 21.0184 101.688 21.5568 101.316 22.0439C100.947 22.5503 100.498 22.994 99.9878 23.3578C99.5084 23.7042 98.9652 23.9523 98.3895 24.0877L100.652 29.9271H98.4625L96.3386 24.4454H92.5873L91.4195 29.9271H89.4781ZM97.2947 22.7008C97.7268 22.7033 98.1521 22.5926 98.5281 22.3797C98.9166 22.1485 99.2602 21.8494 99.5426 21.4965C99.8454 21.1342 100.091 20.7281 100.272 20.2921C100.439 19.8409 100.525 19.3642 100.528 18.8833C100.529 18.5542 100.479 18.2269 100.382 17.9125C100.289 17.6202 100.152 17.3443 99.9732 17.095C99.8058 16.8714 99.5916 16.6871 99.3456 16.5548C99.1112 16.4095 98.8404 16.3336 98.5646 16.3359H94.3608L92.996 22.7008H97.2947Z" fill="#511778"/>
  <path d="M80.2384 14.5986H89.9453L89.5731 16.3213H81.8076L80.7493 21.2775H87.5003L87.1573 22.8979H80.399L79.275 28.1826H87.2376L86.8508 29.9271H76.9688L80.2384 14.5986Z" fill="#511778"/>
  <path d="M67.7217 14.5986H77.4286L77.0636 16.3213H69.2909L68.2326 21.2848H74.9836L74.6406 22.8979H67.875L66.7437 28.1826H74.7063L74.3413 29.9052H64.452L67.7217 14.5986Z" fill="#511778"/>
  <path d="M51.0011 28.2919L49.629 30.0364H56.5333C57.3553 30.0409 58.1745 29.9403 58.971 29.7372C59.6908 29.5421 60.3704 29.2208 60.978 28.7883C61.5497 28.3763 62.017 27.8364 62.3428 27.2116C62.6999 26.5118 62.878 25.7343 62.861 24.9488C62.8741 24.4786 62.7713 24.0123 62.5618 23.5912C62.3739 23.2111 62.0988 22.881 61.7589 22.6277C61.3753 22.3303 60.9466 22.0962 60.489 21.9342C59.9416 21.7185 59.3809 21.5381 58.8104 21.3941C58.2655 21.2627 57.7789 21.1313 57.3507 20.9999C56.9978 20.8846 56.6578 20.733 56.3362 20.5474C56.0863 20.4017 55.8719 20.2023 55.7086 19.9634C55.5743 19.7124 55.5089 19.4304 55.5188 19.1459C55.5089 18.7488 55.5845 18.3542 55.7407 17.9889C55.8969 17.6236 56.1299 17.2963 56.4238 17.0291C57.2426 16.403 58.265 16.1038 59.2921 16.1897H64.5907L65.1016 14.4671H59.7373C58.9038 14.4644 58.0746 14.5874 57.2777 14.832C56.5494 15.0584 55.869 15.4172 55.2707 15.8904C54.7018 16.3242 54.2378 16.8806 53.9132 17.5182C53.5786 18.1992 53.4087 18.9492 53.4169 19.708C53.4075 20.1239 53.4872 20.537 53.6504 20.9196C53.8303 21.2612 54.0788 21.5619 54.3803 21.8029C54.7353 22.0719 55.1258 22.2905 55.5407 22.4525C56.0549 22.6578 56.5814 22.8309 57.1172 22.9707C57.6791 23.1313 58.1827 23.2846 58.6279 23.4233C59.0229 23.5453 59.3988 23.7222 59.7446 23.9488C60.0401 24.105 60.2912 24.3335 60.4744 24.6131C60.6608 24.8873 60.7484 25.2168 60.7226 25.5474C60.7384 25.9437 60.6537 26.3377 60.4764 26.6925C60.299 27.0473 60.0347 27.3514 59.7081 27.5766C58.8943 28.0996 57.9373 28.3548 56.9712 28.3065L51.0011 28.2919Z" fill="#511778"/>
  <path d="M38.7691 32.9489C38.6683 32.9507 38.5693 32.9228 38.4844 32.8686C38.3612 32.7927 38.2715 32.6727 38.2335 32.5331C38.1956 32.3934 38.2122 32.2446 38.2801 32.1167C40.5464 28.2557 41.4122 23.7312 40.7315 19.3061C40.0508 14.881 37.8652 10.826 34.5433 7.82477C34.4897 7.77181 34.4471 7.70873 34.418 7.63919C34.389 7.56965 34.374 7.49503 34.374 7.41966C34.374 7.34429 34.389 7.26967 34.418 7.20013C34.4471 7.13059 34.4897 7.06751 34.5433 7.01455C34.6453 6.90198 34.7877 6.83424 34.9394 6.82604C35.091 6.81784 35.2398 6.86984 35.3534 6.97075C38.862 10.1508 41.1669 14.4436 41.8795 19.1253C42.5921 23.807 41.6689 28.5913 39.2654 32.6715C39.2136 32.7567 39.1407 32.827 39.0538 32.8756C38.9668 32.9242 38.8687 32.9494 38.7691 32.9489Z" fill="#8B52F6"/>
  <path d="M21.5084 42.8103C21.0924 42.8103 20.6764 42.8103 20.275 42.7665C19.6615 42.735 19.05 42.6717 18.4431 42.5767C17.0298 42.3657 15.6427 42.006 14.3049 41.5037C13.6772 41.2701 13.0715 41.0073 12.5022 40.73C11.4473 40.2086 10.4389 39.5982 9.48796 38.9052C8.9229 38.4959 8.37965 38.0573 7.86042 37.5913C6.97178 36.8111 6.15138 35.9564 5.40816 35.0365C5.01735 34.5496 4.65195 34.0429 4.3134 33.5183C3.74814 32.6591 3.24802 31.7588 2.81723 30.8249C2.54719 30.2336 2.30634 29.6278 2.08739 29.0365C1.79056 28.2285 1.54676 27.4019 1.35755 26.5621C1.23348 26 1.1386 25.4015 1.05832 24.803C0.978039 24.2044 0.92695 23.438 0.912354 22.7665C0.912354 22.5913 0.912354 22.4088 0.912354 22.2263C0.915227 19.5197 1.45124 16.8402 2.48976 14.3408C3.52829 11.8414 5.04899 9.57111 6.96499 7.65962C8.88099 5.74813 11.1548 4.23288 13.6564 3.20043C16.1581 2.16797 18.8386 1.63854 21.5449 1.64238C23.1617 1.63374 24.7738 1.81751 26.3472 2.18983C26.4821 2.23651 26.5949 2.33158 26.6638 2.45665C26.7326 2.58171 26.7526 2.72787 26.7199 2.86684C26.6872 3.00581 26.6042 3.12771 26.4868 3.20895C26.3694 3.29019 26.226 3.32499 26.0845 3.30661C24.5973 2.95142 23.0739 2.77016 21.5449 2.76647C16.3888 2.77033 11.4449 4.82003 7.79837 8.46568C4.1518 12.1113 2.10049 17.055 2.09469 22.2117C2.09469 22.3869 2.09469 22.5548 2.09469 22.7227C2.09469 23.3577 2.16038 24 2.24066 24.6497C2.32094 25.2993 2.40122 25.7738 2.518 26.3066C2.68556 27.0988 2.90498 27.879 3.17485 28.6424C3.37141 29.2159 3.59798 29.7787 3.8536 30.3285C4.26594 31.2001 4.73907 32.0416 5.26949 32.8468C5.59062 33.3358 5.93364 33.8103 6.30586 34.3066C6.99952 35.1826 7.76881 35.996 8.60485 36.7373C9.09384 37.1752 9.61203 37.5913 10.1375 37.9781C11.0423 38.6316 12.002 39.2055 13.0058 39.6935C13.559 39.9674 14.1267 40.2111 14.7063 40.4234C15.9686 40.8962 17.2775 41.2338 18.6109 41.4307C19.1837 41.5232 19.7612 41.5841 20.3407 41.6132C21.1646 41.6643 21.9909 41.6643 22.8148 41.6132C22.9666 41.6031 23.1162 41.6535 23.2311 41.7533C23.3459 41.8531 23.4166 41.9943 23.4279 42.146C23.4359 42.2986 23.3839 42.4482 23.2829 42.5628C23.182 42.6774 23.0401 42.7479 22.8878 42.7592C22.4353 42.7957 21.9682 42.8103 21.5084 42.8103Z" fill="#8B52F6"/>
  <path d="M32.2004 25.6204C32.2004 26.1167 31.6895 26.4598 30.8064 26.562C29.1913 26.7077 27.5713 26.3422 26.1752 25.517C24.7791 24.6918 23.6776 23.4488 23.0263 21.9635C22.9683 21.8207 22.9683 21.6609 23.0263 21.5182C23.08 21.3724 23.1869 21.2524 23.3256 21.1824C23.4664 21.1278 23.6226 21.1278 23.7635 21.1824C23.8368 21.2069 23.9044 21.2461 23.9621 21.2975C24.0199 21.349 24.0665 21.4116 24.0992 21.4817C24.5415 22.4238 25.1927 23.2527 26.0033 23.9054C26.814 24.558 27.7627 25.0172 28.7775 25.2481C29.3435 25.3859 29.9246 25.4521 30.5072 25.4452C29.0475 24.7153 28.0403 24.051 26.4858 21.3284C26.2548 20.7916 25.9005 20.3168 25.4516 19.9426C25.0026 19.5685 24.4718 19.3055 23.9021 19.1751C22.9041 18.9023 21.9824 18.4027 21.209 17.7153C18.786 15.635 19.4866 13.3795 19.6618 12.9124C19.9099 11.9124 21.2674 11.3795 23.9167 11.2481C24.8874 11.197 25.8362 11.2481 26.4639 11.2481C25.318 10.0802 21.8221 9.78827 20.6252 9.78827H20.3624L20.2092 9.67879C18.2386 8.21893 16.414 7.82477 14.8011 8.40871C11.6044 9.5693 9.79437 14.3357 9.10832 16.5839C9.36808 16.5818 9.62243 16.6582 9.83816 16.8029C10.568 17.2846 10.1885 18.1021 9.83816 18.8175C9.38943 19.6754 9.13996 20.6235 9.10832 21.5912V21.8467C9.10832 24.5839 9.02074 30.9781 25.3034 38.8467L25.4202 38.9051L25.5005 39C25.9503 39.6386 26.3481 40.3123 26.6901 41.0145C26.7558 41.1605 26.8288 41.2992 26.8872 41.4525C26.9224 41.5219 26.9414 41.5983 26.9426 41.6761C26.9438 41.7539 26.9272 41.8309 26.8941 41.9013C26.861 41.9718 26.8123 42.0337 26.7517 42.0824C26.691 42.1311 26.62 42.1653 26.5442 42.1824H26.369C26.2416 42.1829 26.1167 42.1466 26.0093 42.078C25.9019 42.0094 25.8165 41.9114 25.7632 41.7956C25.7048 41.6544 25.6392 41.5158 25.5662 41.3795C25.3052 40.8462 25.0077 40.3316 24.6758 39.8394C7.853 31.6788 7.88949 24.7883 7.94788 21.8467C7.94788 21.7591 7.94788 21.6715 7.94788 21.5912C7.9802 20.4583 8.2697 19.3475 8.79449 18.343C8.86018 18.197 8.97695 17.9489 9.03534 17.7737C8.92667 17.8168 8.82931 17.8842 8.7507 17.9708C8.64478 18.0658 8.51115 18.1243 8.36949 18.1376C8.22783 18.151 8.08563 18.1184 7.96383 18.0449C7.84204 17.9713 7.74709 17.8605 7.69298 17.7289C7.63886 17.5973 7.62844 17.4518 7.66324 17.3138C8.18873 15.3284 10.1447 8.85397 14.407 7.29922C16.3629 6.5693 18.494 7.03645 20.7346 8.61309C21.8199 8.63907 22.9013 8.75381 23.9678 8.95616C26.4566 9.44521 27.7995 10.416 27.9528 11.7883L28.033 12.5182L27.3032 12.4598C23.7416 12.1897 20.8441 12.6423 20.7346 13.1897V13.27V13.3211C20.7346 13.3868 19.9683 15.1021 21.9608 16.8175C22.62 17.3902 23.4013 17.8046 24.2452 18.0292C25.3253 18.3722 26.3325 18.6934 27.493 20.7153C28.8796 23.1532 29.5803 23.562 30.551 24.1167C30.7991 24.2627 31.0619 24.416 31.3538 24.6131L31.4925 24.7007C31.8647 24.9708 32.2004 25.1897 32.2004 25.6204Z" fill="#511778"/>
  <path d="M36.7401 34.168C36.7295 34.3171 36.6735 34.4593 36.5795 34.5755C36.4855 34.6916 36.3582 34.7762 36.2146 34.8176C36.0641 34.8787 35.9027 34.9085 35.7402 34.9052C35.4198 34.8939 35.1017 34.8474 34.7914 34.7665L34.39 34.6498C33.0089 34.3067 31.7131 33.6832 30.5831 32.818C29.4531 31.9528 28.5131 30.8645 27.8215 29.6206C27.7411 29.4946 27.7108 29.3431 27.7364 29.1958C27.7621 29.0486 27.8419 28.9163 27.9602 28.8249C28.0285 28.7746 28.1071 28.74 28.1904 28.7236C28.2737 28.7072 28.3595 28.7094 28.4418 28.73C28.5202 28.747 28.5936 28.7814 28.6568 28.8307C28.72 28.88 28.7713 28.9429 28.8068 29.0147C29.5123 30.2632 30.482 31.3426 31.6481 32.1772C32.8142 33.0119 34.1485 33.5817 35.5578 33.8468C33.1128 31.657 31.1787 27.8395 31.1787 27.8103C31.1398 27.7407 31.1155 27.6638 31.1074 27.5844C31.0993 27.505 31.1075 27.4248 31.1316 27.3487C31.1557 27.2727 31.1952 27.2023 31.2475 27.1421C31.2998 27.0819 31.364 27.033 31.4359 26.9985C31.5079 26.964 31.5861 26.9446 31.6659 26.9416C31.7456 26.9385 31.8251 26.9519 31.8995 26.9807C31.9739 27.0096 32.0416 27.0534 32.0984 27.1095C32.1552 27.1656 32.1999 27.2327 32.2297 27.3067C33.2069 29.2824 34.4711 31.1026 35.9811 32.7081L36.0249 32.7519C36.3825 33.1461 36.8423 33.5768 36.7401 34.168Z" fill="#511778"/>
  <path d="M45.0384 45.9123C44.834 46.3795 44.3596 46.6423 43.6225 46.6423H43.3597C40.6847 46.3143 38.1376 45.3094 35.9592 43.7226L35.4848 43.3722C33.8718 42.2116 32.7114 41.3722 30.9087 37.9999C30.6943 37.8874 30.4724 37.7899 30.2445 37.708C28.2689 36.9564 26.4735 35.7975 24.9751 34.3065C20.0268 29.6934 17.8008 25.4452 18.3482 21.6642C18.3637 21.5548 18.4099 21.4521 18.4815 21.3679C18.5531 21.2838 18.6471 21.2217 18.7525 21.1888C18.858 21.1559 18.9706 21.1537 19.0773 21.1822C19.184 21.2108 19.2804 21.2691 19.3553 21.3503C19.4131 21.4136 19.4556 21.4892 19.4796 21.5715C19.5037 21.6537 19.5086 21.7403 19.494 21.8248C18.8809 26.0291 22.5666 30.4744 25.7633 33.4598C28.7192 36.2043 30.8284 36.9123 31.602 37.1094C31.631 37.1042 31.6607 37.1042 31.6896 37.1094L31.8867 37.2262L31.9451 37.4306C35.0688 43.8685 42.8124 45.4598 42.8926 45.4598C43.1764 45.5143 43.4649 45.5412 43.7538 45.5401C43.7934 45.5341 43.831 45.5191 43.8639 45.4963C43.8968 45.4736 43.9241 45.4436 43.9436 45.4087C43.9577 45.3829 43.965 45.3541 43.965 45.3248C43.965 45.2954 43.9577 45.2666 43.9436 45.2408C43.5966 44.7626 43.203 44.32 42.7686 43.9196C37.5867 38.9853 36.3971 37.0656 36.1489 36.3576C36.0938 36.2143 36.0938 36.0557 36.1489 35.9123C36.1735 35.8399 36.2127 35.7734 36.2642 35.7168C36.3157 35.6603 36.3783 35.615 36.4482 35.5839C36.5879 35.5207 36.7467 35.5144 36.8911 35.5661C37.0354 35.6179 37.154 35.7237 37.2218 35.8613V35.8977C37.2729 36.0583 37.8713 37.6496 43.5933 43.1021C44.8851 44.3357 45.3449 45.2554 45.0384 45.9123Z" fill="#511778"/>
  <path d="M16.706 11.0876C17.1413 11.0876 17.4942 10.7347 17.4942 10.2993C17.4942 9.86393 17.1413 9.51099 16.706 9.51099C16.2706 9.51099 15.9177 9.86393 15.9177 10.2993C15.9177 10.7347 16.2706 11.0876 16.706 11.0876Z" fill="#511778"/>
  <path d="M31.9597 5.91249C32.0919 6.6954 32.3878 7.44159 32.8282 8.10227C32.6457 7.82489 31.5947 6.34314 30.8211 6.34314C30.3978 6.34314 29.9161 6.7884 29.5366 7.24095C29.3095 7.51968 29.0999 7.81221 28.9089 8.11686C29.0038 7.91978 29.8723 6.16066 29.449 5.47453C29.0257 4.7884 27.0479 4.7446 27.0479 4.7446C27.0479 4.7446 29.0622 4.62051 29.449 4.01468C29.8358 3.40884 29.0111 1.57672 28.9089 1.37964C29.1034 1.6837 29.3154 1.97617 29.5439 2.25555C29.9161 2.70811 30.3978 3.16066 30.8284 3.16066C31.602 3.16066 32.6457 1.70081 32.8355 1.40154C32.3914 2.06099 32.0928 2.80748 31.9597 3.59132C31.9535 3.73785 31.9917 3.88284 32.0691 4.00738C32.507 4.68621 34.5871 4.7373 34.5871 4.7373C34.5871 4.7373 32.507 4.7957 32.0618 5.46723C31.981 5.60089 31.9452 5.75696 31.9597 5.91249Z" fill="#511778"/>
</svg>