<svg xmlns="http://www.w3.org/2000/svg" width="16" height="16" viewBox="0 0 16 16" fill="none">
  <g clip-path="url(#clip0_25243_41772)">
    <path fill-rule="evenodd" clip-rule="evenodd" d="M13.5401 1V1.87305H16C16 1.87305 16 6.34332 16 7.75586C16 8.0258 15.8913 8.28486 15.6983 8.47363C14.6625 9.48431 11.2129 12.8511 9.2383 14.7783C8.4518 15.5464 7.19351 15.5382 6.41603 14.7607L6.02345 14.3691C6.03982 14.3636 6.05505 14.3546 6.0713 14.3486C5.35829 14.6118 4.52786 14.4591 3.95607 13.8877C2.95039 12.8817 1.59862 11.5312 0.586928 10.5195C0.209092 10.1417 -0.0019904 9.62796 1.41477e-05 9.09375C0.00238771 8.55955 0.21779 8.0477 0.598647 7.67285C2.59101 5.71089 6.06 2.29639 7.084 1.28809C7.27142 1.10344 7.52393 1 7.78712 1H13.5401ZM6.17384 14.3076C6.20002 14.2963 6.22619 14.285 6.25197 14.2725C6.22619 14.285 6.20002 14.2963 6.17384 14.3076ZM6.37013 14.209C6.39302 14.1959 6.41602 14.183 6.43849 14.1689C6.41601 14.183 6.39303 14.1959 6.37013 14.209ZM6.57814 14.0732C6.58839 14.0656 6.59926 14.0587 6.60939 14.0508C6.59926 14.0587 6.58839 14.0656 6.57814 14.0732ZM13.5401 6.88281C13.54 7.15262 13.4312 7.41121 13.2383 7.59961C12.26 8.55459 9.12546 11.6132 7.1172 13.5732L7.12892 13.584C7.51104 13.9661 8.12967 13.9713 8.51759 13.5947C9.98495 12.1695 13.3338 8.91607 14.3594 7.91992C14.5535 7.73116 14.6631 7.47212 14.6631 7.20117V3.20996H13.5401V6.88281ZM8.33986 2.33691C8.07725 2.33691 7.82417 2.43895 7.63673 2.62305C6.62501 3.61606 3.2541 6.92565 1.76564 8.38672C1.57586 8.57282 1.46879 8.82715 1.46779 9.09277C1.46651 9.35821 1.57121 9.61308 1.7588 9.80078C2.56502 10.607 3.87143 11.9137 4.66896 12.7109C5.05153 13.0933 5.66978 13.0972 6.05763 12.7207C7.52489 11.2955 10.8736 8.04331 11.8994 7.04688C12.0935 6.8581 12.2041 6.59811 12.2041 6.32715V2.33691C12.2041 2.33691 9.40997 2.33691 8.33986 2.33691ZM9.59376 3.15918C10.0328 3.16663 10.4605 3.36548 10.7608 3.68359C11.1119 4.05613 11.2649 4.60232 11.166 5.10449C11.0306 5.79291 10.4106 6.33538 9.72853 6.40625C9.05012 6.47706 8.37712 6.07294 8.09767 5.46777C7.88651 5.01037 7.90018 4.45642 8.13673 4.01172C8.40935 3.49881 8.97677 3.16436 9.56154 3.15918C9.57223 3.15918 9.58341 3.15885 9.59376 3.15918ZM9.54982 4.00098C9.17464 4.00724 8.85131 4.3053 8.79201 4.66211C8.72687 5.05658 9.01318 5.46298 9.39357 5.55469C9.77579 5.64657 10.1861 5.40152 10.3174 5.04102C10.3617 4.91829 10.3706 4.7843 10.3477 4.65625C10.2805 4.28472 9.93366 4.00332 9.56447 4.00098H9.54982Z" fill="#4872FF"/>
  </g>
  <defs>
    <clipPath id="clip0_25243_41772">
      <rect width="16" height="16" fill="white"/>
    </clipPath>
  </defs>
</svg>