<svg xmlns="http://www.w3.org/2000/svg" width="140" height="40" viewBox="0 0 140 40" fill="none">
  <g clip-path="url(#clip0_25497_17564)">
    <path d="M3.74549 22.5277V27.9611H0V10.4512H7.49097C11.5459 10.4512 14.4643 12.8201 14.4643 16.4754C14.4643 18.8705 13.172 20.7496 11.1333 21.7536L15.6009 27.9592H11.1314L7.28278 22.5258H3.74549V22.5277ZM7.36156 19.1024C9.24649 19.1024 10.7713 18.0722 10.7713 16.4754C10.7713 14.8525 9.24649 13.8485 7.36156 13.8485H3.74549V19.1005H7.36156V19.1024Z" fill="white"/>
    <path d="M28.207 22.7069H19.09C19.375 24.1485 20.3297 25.2815 22.2934 25.2815C23.3006 25.2815 23.9983 24.973 24.3846 24.3542H28.1301C27.4587 26.7231 25.1349 28.346 22.2146 28.346C18.2366 28.346 15.5508 25.4872 15.5508 21.8057C15.5508 17.9952 18.2103 15.2393 22.1115 15.2393C25.6507 15.2393 28.2839 17.7372 28.2839 21.5477C28.2839 22.0637 28.2595 22.3461 28.207 22.7069ZM19.1143 20.596H24.7185C24.5122 19.0516 23.5819 18.2009 22.1359 18.2009C20.4066 18.2009 19.4501 19.2049 19.1143 20.596Z" fill="white"/>
    <path d="M43.1697 15.6262V27.9607H39.5799V27.239C38.6234 27.856 37.4624 28.2169 36.067 28.2169C32.6572 28.2169 29.8945 25.3843 29.8945 21.8056C29.8945 18.1746 32.6591 15.3682 36.067 15.3682C37.4624 15.3682 38.6234 15.729 39.5799 16.346V15.6243H43.1697V15.6262ZM39.5799 23.7632V19.8237C38.779 18.743 37.7194 18.3822 36.6615 18.3822C34.7766 18.3822 33.4581 19.9789 33.4581 21.8075C33.4581 23.6099 34.7747 25.1805 36.6615 25.1805C37.7194 25.1786 38.779 24.8196 39.5799 23.7632Z" fill="white"/>
    <path d="M49.2226 27.9609H45.6328V10.4473H49.2226V27.9609Z" fill="white"/>
    <path d="M60.8858 13.8503V27.9611H57.1403V13.8503H51.2773V10.4512H66.7488V13.8503H60.8858Z" fill="#F2A91E"/>
    <path opacity="0.4" d="M99.1781 29.5035L87.0452 36.4701L74.9141 29.5035V11.9637L87.0452 4.99707L99.1781 11.9637V29.5035Z" fill="#72A8DA"/>
    <path d="M79.3867 32.6073L79.7675 14.9272L87.0821 18.691L86.647 36.3187L79.3867 32.6073Z" fill="#C56728"/>
    <path d="M94.4386 32.3883L94.3186 14.5811L87.0039 18.3448L87.1802 36.0997L94.4386 32.3883Z" fill="#F2A91E"/>
    <path d="M86.8043 9.99268L80.043 14.1958L87.6033 18.1821L93.9296 14.3416L86.8043 9.99268Z" fill="#EB8523"/>
    <path fill-rule="evenodd" clip-rule="evenodd" d="M87.0462 9.45264L95.2975 14.1915V33.0614L87.0462 37.6172L78.7969 33.0614V14.1916L87.0462 9.45264ZM87.0463 11.569L80.6363 15.2513V31.9809L87.0463 35.521L93.4581 31.9809V15.2513L87.0463 11.569Z" fill="#1A1F28"/>
    <path fill-rule="evenodd" clip-rule="evenodd" d="M87.0445 -0.383301L103.859 9.2732V28.5889L87.0445 38.2454L70.2305 28.5889V9.2732L87.0445 -0.383301ZM87.0445 2.43835L72.683 10.6863V27.1758L87.0445 35.4237L101.406 27.1758V10.6863L87.0445 2.43835Z" fill="#1A1F28"/>
    <path fill-rule="evenodd" clip-rule="evenodd" d="M86.0547 36.8928V18.4761H87.8947V36.8928H86.0547Z" fill="#1A1F28"/>
    <path fill-rule="evenodd" clip-rule="evenodd" d="M103.156 10.7851L87.4688 19.2923L86.5898 17.6815L102.277 9.17432L103.156 10.7851Z" fill="#1A1F28"/>
    <path fill-rule="evenodd" clip-rule="evenodd" d="M71.9323 9.17578L87.4713 17.683L86.5859 19.2903L71.0469 10.7831L71.9323 9.17578Z" fill="#1A1F28"/>
    <path d="M87.0453 39.6167C95.7515 39.6167 102.809 38.906 102.809 38.0293C102.809 37.1526 95.7515 36.4419 87.0453 36.4419C78.3391 36.4419 71.2812 37.1526 71.2812 38.0293C71.2812 38.906 78.3391 39.6167 87.0453 39.6167Z" fill="#1A1F28"/>
    <path fill-rule="evenodd" clip-rule="evenodd" d="M80.1123 19.792L87.2845 23.8343L86.3792 25.4306L79.207 21.3882L80.1123 19.792Z" fill="#1A1F28"/>
    <path fill-rule="evenodd" clip-rule="evenodd" d="M80.1126 25.5771L87.2848 29.6214L86.3792 31.2174L79.207 27.1732L80.1126 25.5771Z" fill="#1A1F28"/>
    <path fill-rule="evenodd" clip-rule="evenodd" d="M94.6263 21.3889L87.4523 25.4312L86.5469 23.8343L93.7209 19.792L94.6263 21.3889Z" fill="#1A1F28"/>
    <path fill-rule="evenodd" clip-rule="evenodd" d="M94.6263 27.1733L87.4523 31.2175L86.5469 29.6214L93.7209 25.5771L94.6263 27.1733Z" fill="#1A1F28"/>
  </g>
  <defs>
    <clipPath id="clip0_25497_17564">
      <rect width="140" height="40" fill="white"/>
    </clipPath>
  </defs>
</svg>