<svg  viewBox="0 0 211 266" fill="none" xmlns="http://www.w3.org/2000/svg">
<path d="M195.978 25.6446C176.474 26.7653 137.709 30.8444 113.778 45.6765C112.127 46.6999 111.191 48.5197 111.191 50.4223V181.543C111.191 185.705 115.686 188.336 119.476 186.405C144.098 173.857 179.706 170.434 197.312 169.497C203.323 169.176 207.996 164.297 207.996 158.449V36.7074C208 30.3255 202.533 25.2698 195.978 25.6446ZM97.2181 45.6765C73.2908 30.8444 34.5259 26.7689 15.0224 25.6446C8.46667 25.2698 3 30.3255 3 36.7074V158.452C3 164.304 7.673 169.183 13.6842 169.5C31.2978 170.437 66.9237 173.864 91.5451 186.419C95.3247 188.347 99.8056 185.72 99.8056 181.569V50.3575C99.8056 48.4512 98.8731 46.7035 97.2181 45.6765Z" fill="#0E0060"/>
<path d="M11.6255 260L9.77979 255.242H3.771L1.93555 260H0.171875L6.03711 244.947H7.60596L13.4302 260H11.6255ZM9.25684 253.694L7.50342 248.967C7.4624 248.844 7.39404 248.642 7.29834 248.362C7.20947 248.082 7.11719 247.791 7.02148 247.49C6.92578 247.189 6.84717 246.947 6.78564 246.762C6.71729 247.042 6.64209 247.323 6.56006 247.603C6.48486 247.876 6.40967 248.133 6.33447 248.372C6.25928 248.604 6.19434 248.803 6.13965 248.967L4.35547 253.694H9.25684ZM19.2544 260.205C17.8325 260.205 16.7046 259.72 15.8706 258.749C15.0435 257.778 14.6299 256.336 14.6299 254.422C14.6299 252.487 15.0537 251.028 15.9014 250.043C16.749 249.052 17.877 248.557 19.2852 248.557C19.8799 248.557 20.3994 248.635 20.8438 248.792C21.2881 248.95 21.6709 249.162 21.9922 249.428C22.3135 249.688 22.5835 249.985 22.8022 250.32H22.9253C22.8979 250.108 22.8706 249.818 22.8433 249.449C22.8159 249.08 22.8022 248.779 22.8022 248.546V244.045H24.5044V260H23.1304L22.874 258.4H22.8022C22.5903 258.735 22.3203 259.04 21.9922 259.313C21.6709 259.586 21.2847 259.805 20.8335 259.969C20.3892 260.126 19.8628 260.205 19.2544 260.205ZM19.521 258.79C20.7241 258.79 21.5752 258.448 22.0742 257.765C22.5732 257.081 22.8228 256.066 22.8228 254.719V254.412C22.8228 252.983 22.5835 251.886 22.105 251.12C21.6333 250.354 20.772 249.972 19.521 249.972C18.4751 249.972 17.6924 250.375 17.1729 251.182C16.6533 251.981 16.3936 253.075 16.3936 254.463C16.3936 255.844 16.6499 256.91 17.1626 257.662C17.6821 258.414 18.4683 258.79 19.521 258.79ZM30.585 260L26.3193 248.762H28.1445L30.6157 255.56C30.7866 256.025 30.9609 256.538 31.1387 257.098C31.3164 257.659 31.4395 258.11 31.5078 258.452H31.5796C31.6616 258.11 31.7983 257.659 31.9897 257.098C32.1812 256.531 32.3555 256.018 32.5127 255.56L34.9839 248.762H36.8091L32.5332 260H30.585ZM42.8179 248.577C44.1577 248.577 45.1523 248.878 45.8018 249.479C46.4512 250.081 46.7759 251.042 46.7759 252.361V260H45.5352L45.207 258.339H45.125C44.8105 258.749 44.4824 259.094 44.1406 259.375C43.7988 259.648 43.4023 259.856 42.9512 260C42.5068 260.137 41.96 260.205 41.3105 260.205C40.627 260.205 40.0186 260.085 39.4854 259.846C38.959 259.607 38.542 259.245 38.2344 258.759C37.9336 258.274 37.7832 257.659 37.7832 256.914C37.7832 255.792 38.2275 254.931 39.1162 254.33C40.0049 253.728 41.3584 253.4 43.1768 253.345L45.1147 253.263V252.576C45.1147 251.605 44.9062 250.925 44.4893 250.536C44.0723 250.146 43.4844 249.951 42.7256 249.951C42.1377 249.951 41.5771 250.037 41.0439 250.208C40.5107 250.378 40.0049 250.58 39.5264 250.812L39.0034 249.521C39.5093 249.261 40.0903 249.039 40.7466 248.854C41.4028 248.669 42.0933 248.577 42.8179 248.577ZM45.0942 254.463L43.3818 254.535C41.9805 254.589 40.9927 254.818 40.4185 255.222C39.8442 255.625 39.5571 256.196 39.5571 256.934C39.5571 257.577 39.752 258.052 40.1416 258.359C40.5312 258.667 41.0474 258.821 41.6899 258.821C42.688 258.821 43.5049 258.544 44.1406 257.99C44.7764 257.437 45.0942 256.606 45.0942 255.499V254.463ZM55.6045 248.557C56.9375 248.557 57.9458 248.885 58.6294 249.541C59.313 250.19 59.6548 251.236 59.6548 252.679V260H57.9731V252.792C57.9731 251.855 57.7578 251.154 57.3271 250.689C56.9033 250.225 56.2505 249.992 55.3687 249.992C54.1245 249.992 53.2495 250.344 52.7437 251.048C52.2378 251.752 51.9849 252.774 51.9849 254.114V260H50.2827V248.762H51.6567L51.9131 250.382H52.0054C52.2446 249.985 52.5488 249.654 52.918 249.387C53.2871 249.114 53.7007 248.909 54.1587 248.772C54.6167 248.628 55.0986 248.557 55.6045 248.557ZM67.6631 260.205C66.6514 260.205 65.7593 259.997 64.9868 259.58C64.2144 259.163 63.6128 258.527 63.1821 257.672C62.7515 256.818 62.5361 255.741 62.5361 254.442C62.5361 253.082 62.7617 251.971 63.2129 251.11C63.6709 250.242 64.2998 249.599 65.0996 249.182C65.8994 248.765 66.8086 248.557 67.8271 248.557C68.3877 248.557 68.9277 248.615 69.4473 248.731C69.9736 248.84 70.4043 248.98 70.7393 249.151L70.2266 250.577C69.8848 250.44 69.4883 250.317 69.0371 250.208C68.5928 250.098 68.1758 250.043 67.7861 250.043C67.0068 250.043 66.3574 250.211 65.8379 250.546C65.3252 250.881 64.939 251.373 64.6792 252.022C64.4263 252.672 64.2998 253.472 64.2998 254.422C64.2998 255.331 64.4229 256.107 64.6689 256.75C64.9219 257.392 65.2944 257.884 65.7866 258.226C66.2856 258.561 66.9077 258.729 67.6528 258.729C68.2476 258.729 68.7842 258.667 69.2627 258.544C69.7412 258.414 70.1753 258.264 70.5649 258.093V259.61C70.189 259.802 69.7686 259.949 69.3037 260.051C68.8457 260.154 68.2988 260.205 67.6631 260.205ZM77.5581 248.557C78.5151 248.557 79.3354 248.769 80.019 249.192C80.7026 249.616 81.2256 250.211 81.5879 250.977C81.9502 251.735 82.1313 252.624 82.1313 253.643V254.699H74.3691C74.3896 256.018 74.7178 257.023 75.3535 257.713C75.9893 258.404 76.8848 258.749 78.04 258.749C78.751 258.749 79.3799 258.684 79.9268 258.554C80.4736 258.424 81.041 258.233 81.6289 257.98V259.477C81.0615 259.73 80.4976 259.915 79.937 260.031C79.3833 260.147 78.7271 260.205 77.9683 260.205C76.8882 260.205 75.9448 259.986 75.1382 259.549C74.3384 259.104 73.7163 258.455 73.272 257.601C72.8276 256.746 72.6055 255.7 72.6055 254.463C72.6055 253.253 72.8071 252.207 73.2104 251.325C73.6206 250.437 74.1948 249.753 74.9331 249.274C75.6782 248.796 76.5532 248.557 77.5581 248.557ZM77.5376 249.951C76.6284 249.951 75.9038 250.249 75.3638 250.843C74.8237 251.438 74.5024 252.269 74.3999 253.335H80.3472C80.3403 252.665 80.2344 252.077 80.0293 251.571C79.8311 251.059 79.5269 250.662 79.1167 250.382C78.7065 250.095 78.1802 249.951 77.5376 249.951ZM89.022 260.205C87.6001 260.205 86.4722 259.72 85.6382 258.749C84.811 257.778 84.3975 256.336 84.3975 254.422C84.3975 252.487 84.8213 251.028 85.6689 250.043C86.5166 249.052 87.6445 248.557 89.0527 248.557C89.6475 248.557 90.167 248.635 90.6113 248.792C91.0557 248.95 91.4385 249.162 91.7598 249.428C92.0811 249.688 92.3511 249.985 92.5698 250.32H92.6929C92.6655 250.108 92.6382 249.818 92.6108 249.449C92.5835 249.08 92.5698 248.779 92.5698 248.546V244.045H94.272V260H92.8979L92.6416 258.4H92.5698C92.3579 258.735 92.0879 259.04 91.7598 259.313C91.4385 259.586 91.0522 259.805 90.6011 259.969C90.1567 260.126 89.6304 260.205 89.022 260.205ZM89.2886 258.79C90.4917 258.79 91.3428 258.448 91.8418 257.765C92.3408 257.081 92.5903 256.066 92.5903 254.719V254.412C92.5903 252.983 92.3511 251.886 91.8726 251.12C91.4009 250.354 90.5396 249.972 89.2886 249.972C88.2427 249.972 87.46 250.375 86.9404 251.182C86.4209 251.981 86.1611 253.075 86.1611 254.463C86.1611 255.844 86.4175 256.91 86.9302 257.662C87.4497 258.414 88.2358 258.79 89.2886 258.79ZM114.934 245.009V254.709C114.934 255.769 114.718 256.712 114.288 257.539C113.864 258.366 113.221 259.019 112.36 259.498C111.499 259.969 110.418 260.205 109.12 260.205C107.267 260.205 105.855 259.703 104.885 258.698C103.921 257.693 103.439 256.35 103.439 254.668V245.009H105.192V254.719C105.192 255.991 105.527 256.972 106.197 257.662C106.874 258.353 107.882 258.698 109.222 258.698C110.138 258.698 110.887 258.534 111.468 258.206C112.056 257.871 112.49 257.406 112.77 256.811C113.057 256.209 113.201 255.516 113.201 254.729V245.009H114.934ZM125.926 256.924C125.926 257.642 125.745 258.247 125.382 258.739C125.027 259.224 124.514 259.59 123.844 259.836C123.181 260.082 122.388 260.205 121.465 260.205C120.679 260.205 119.999 260.144 119.425 260.021C118.851 259.897 118.348 259.723 117.917 259.498V257.929C118.375 258.154 118.922 258.359 119.558 258.544C120.194 258.729 120.843 258.821 121.506 258.821C122.477 258.821 123.181 258.664 123.619 258.349C124.056 258.035 124.275 257.607 124.275 257.067C124.275 256.76 124.186 256.49 124.008 256.257C123.837 256.018 123.547 255.789 123.137 255.57C122.727 255.345 122.159 255.099 121.435 254.832C120.717 254.559 120.095 254.289 119.568 254.022C119.049 253.749 118.646 253.417 118.358 253.027C118.078 252.638 117.938 252.132 117.938 251.51C117.938 250.56 118.321 249.832 119.086 249.326C119.859 248.813 120.871 248.557 122.122 248.557C122.798 248.557 123.431 248.625 124.019 248.762C124.613 248.892 125.167 249.069 125.68 249.295L125.105 250.659C124.641 250.46 124.145 250.293 123.619 250.156C123.092 250.02 122.556 249.951 122.009 249.951C121.223 249.951 120.618 250.081 120.194 250.341C119.777 250.601 119.568 250.956 119.568 251.407C119.568 251.756 119.664 252.043 119.855 252.269C120.054 252.494 120.368 252.706 120.799 252.904C121.229 253.103 121.797 253.335 122.501 253.602C123.205 253.861 123.813 254.131 124.326 254.412C124.839 254.685 125.232 255.02 125.505 255.417C125.786 255.806 125.926 256.309 125.926 256.924ZM132.991 248.557C133.948 248.557 134.768 248.769 135.452 249.192C136.135 249.616 136.658 250.211 137.021 250.977C137.383 251.735 137.564 252.624 137.564 253.643V254.699H129.802C129.822 256.018 130.15 257.023 130.786 257.713C131.422 258.404 132.317 258.749 133.473 258.749C134.184 258.749 134.812 258.684 135.359 258.554C135.906 258.424 136.474 258.233 137.062 257.98V259.477C136.494 259.73 135.93 259.915 135.37 260.031C134.816 260.147 134.16 260.205 133.401 260.205C132.321 260.205 131.377 259.986 130.571 259.549C129.771 259.104 129.149 258.455 128.705 257.601C128.26 256.746 128.038 255.7 128.038 254.463C128.038 253.253 128.24 252.207 128.643 251.325C129.053 250.437 129.627 249.753 130.366 249.274C131.111 248.796 131.986 248.557 132.991 248.557ZM132.97 249.951C132.061 249.951 131.336 250.249 130.796 250.843C130.256 251.438 129.935 252.269 129.833 253.335H135.78C135.773 252.665 135.667 252.077 135.462 251.571C135.264 251.059 134.959 250.662 134.549 250.382C134.139 250.095 133.613 249.951 132.97 249.951ZM145.562 248.557C145.788 248.557 146.023 248.57 146.27 248.598C146.516 248.618 146.734 248.649 146.926 248.69L146.71 250.269C146.526 250.221 146.321 250.184 146.095 250.156C145.87 250.129 145.658 250.115 145.459 250.115C145.008 250.115 144.581 250.208 144.178 250.392C143.781 250.57 143.433 250.83 143.132 251.171C142.831 251.506 142.595 251.913 142.424 252.392C142.253 252.863 142.168 253.39 142.168 253.971V260H140.456V248.762H141.871L142.055 250.833H142.127C142.359 250.416 142.64 250.037 142.968 249.695C143.296 249.346 143.675 249.069 144.106 248.864C144.543 248.659 145.029 248.557 145.562 248.557ZM161.168 252.146H166.408V259.416C165.622 259.682 164.812 259.88 163.978 260.01C163.151 260.14 162.225 260.205 161.199 260.205C159.641 260.205 158.325 259.894 157.251 259.272C156.185 258.65 155.375 257.765 154.821 256.616C154.268 255.461 153.991 254.09 153.991 252.504C153.991 250.953 154.295 249.599 154.903 248.444C155.519 247.289 156.404 246.393 157.559 245.757C158.721 245.115 160.116 244.793 161.743 244.793C162.577 244.793 163.366 244.872 164.111 245.029C164.863 245.18 165.561 245.395 166.203 245.675L165.537 247.193C164.983 246.954 164.371 246.749 163.701 246.578C163.038 246.407 162.351 246.321 161.64 246.321C160.417 246.321 159.367 246.574 158.492 247.08C157.624 247.586 156.958 248.3 156.493 249.223C156.035 250.146 155.806 251.24 155.806 252.504C155.806 253.755 156.007 254.846 156.411 255.775C156.814 256.698 157.443 257.416 158.297 257.929C159.152 258.441 160.252 258.698 161.599 258.698C162.276 258.698 162.857 258.66 163.342 258.585C163.828 258.503 164.269 258.407 164.665 258.298V253.704H161.168V252.146ZM179.062 248.762V260H177.667L177.421 258.421H177.329C177.096 258.811 176.795 259.139 176.426 259.405C176.057 259.672 175.64 259.87 175.175 260C174.717 260.137 174.229 260.205 173.709 260.205C172.82 260.205 172.075 260.062 171.474 259.774C170.872 259.487 170.417 259.043 170.11 258.441C169.809 257.84 169.659 257.067 169.659 256.124V248.762H171.381V256.001C171.381 256.938 171.593 257.638 172.017 258.103C172.441 258.561 173.087 258.79 173.955 258.79C174.789 258.79 175.452 258.633 175.944 258.318C176.443 258.004 176.802 257.542 177.021 256.934C177.24 256.319 177.349 255.567 177.349 254.678V248.762H179.062ZM184.363 248.762V260H182.661V248.762H184.363ZM183.532 244.558C183.812 244.558 184.052 244.65 184.25 244.834C184.455 245.012 184.558 245.292 184.558 245.675C184.558 246.051 184.455 246.332 184.25 246.516C184.052 246.701 183.812 246.793 183.532 246.793C183.238 246.793 182.992 246.701 182.794 246.516C182.603 246.332 182.507 246.051 182.507 245.675C182.507 245.292 182.603 245.012 182.794 244.834C182.992 244.65 183.238 244.558 183.532 244.558ZM191.971 260.205C190.549 260.205 189.421 259.72 188.587 258.749C187.76 257.778 187.347 256.336 187.347 254.422C187.347 252.487 187.771 251.028 188.618 250.043C189.466 249.052 190.594 248.557 192.002 248.557C192.597 248.557 193.116 248.635 193.561 248.792C194.005 248.95 194.388 249.162 194.709 249.428C195.03 249.688 195.3 249.985 195.519 250.32H195.642C195.615 250.108 195.587 249.818 195.56 249.449C195.533 249.08 195.519 248.779 195.519 248.546V244.045H197.221V260H195.847L195.591 258.4H195.519C195.307 258.735 195.037 259.04 194.709 259.313C194.388 259.586 194.001 259.805 193.55 259.969C193.106 260.126 192.58 260.205 191.971 260.205ZM192.238 258.79C193.441 258.79 194.292 258.448 194.791 257.765C195.29 257.081 195.54 256.066 195.54 254.719V254.412C195.54 252.983 195.3 251.886 194.822 251.12C194.35 250.354 193.489 249.972 192.238 249.972C191.192 249.972 190.409 250.375 189.89 251.182C189.37 251.981 189.11 253.075 189.11 254.463C189.11 255.844 189.367 256.91 189.879 257.662C190.399 258.414 191.185 258.79 192.238 258.79ZM205.158 248.557C206.115 248.557 206.935 248.769 207.619 249.192C208.302 249.616 208.825 250.211 209.188 250.977C209.55 251.735 209.731 252.624 209.731 253.643V254.699H201.969C201.989 256.018 202.317 257.023 202.953 257.713C203.589 258.404 204.484 258.749 205.64 258.749C206.351 258.749 206.979 258.684 207.526 258.554C208.073 258.424 208.641 258.233 209.229 257.98V259.477C208.661 259.73 208.097 259.915 207.537 260.031C206.983 260.147 206.327 260.205 205.568 260.205C204.488 260.205 203.544 259.986 202.738 259.549C201.938 259.104 201.316 258.455 200.872 257.601C200.427 256.746 200.205 255.7 200.205 254.463C200.205 253.253 200.407 252.207 200.81 251.325C201.22 250.437 201.794 249.753 202.533 249.274C203.278 248.796 204.153 248.557 205.158 248.557ZM205.137 249.951C204.228 249.951 203.503 250.249 202.963 250.843C202.423 251.438 202.102 252.269 202 253.335H207.947C207.94 252.665 207.834 252.077 207.629 251.571C207.431 251.059 207.126 250.662 206.716 250.382C206.306 250.095 205.78 249.951 205.137 249.951Z" fill="#0E0060"/>
</svg>
